<?xml version="1.0" encoding="UTF-8"?>
<svg xmlns="http://www.w3.org/2000/svg" viewBox="0 0 1179 2556">
  <defs>
    <style>
      .cls-1 {
        fill: #b4b8c0;
      }

      .cls-2, .cls-3 {
        fill: #e6e6e6;
      }

      .cls-2, .cls-4 {
        mix-blend-mode: multiply;
      }

      .cls-5 {
        fill: #4d4d4d;
      }

      .cls-6 {
        isolation: isolate;
      }

      .cls-7 {
        fill: #f2f2f2;
      }

      .cls-8 {
        fill: #a5cced;
      }
    </style>
  </defs>
  <g class="cls-6">
    <g id="Farbe">
      <path class="cls-7" d="M764.95,1653.65v-7.9l-3.68-6.08-16.18-6.72-3.29-.78-15.79-3.84-24.13-14.35-4.58-93.51-3.78-18.01,15.59-60.3,10.26-66.31,1.9-12.49,4.49-53.95,1.2-13.98,5.19-9.95,15.56-11.12-9.55-37.53-5.26-34.32-8.34-26.76-9.11-38.01,4.11,3.96,5.56-.18,7.16-9.61,6.28-17.75-4.68-27.31-6.21-11.24-1.06-3.84-8.45-30.9-3.92-10.18,1.86-13.11-4.12-2.62h-3.73l-.77-10.13-3.08-13.78,23.32-1.54.49-1.77v-4.41l4.68-.35.79-4.84-.72-5.52-2.09-3.33-6.71.49-1.57-1.68-57.63,2.81-.67-3.67,75.81-2.9,3.01,1.56,22.43-1.73.84-5.15-.93-3.21-1.47-3.68-11.13.64-.37-5.26,3.97-.21-.07-3.77h-3.32s1.96-2.97,1.96-2.97l-.29-5.07-2.45-2.09h-7l-3.34,1.31-1.84,3.02.36,3.29,2.01,2.26,1.13.25.13,4.27,4.35-.19.27,5.32-7.94.45-3.35,2.42-76.1,3.08-.68-1.2-15.09.43-1.14-3.92h-5.77l-1.99-6.28h-2.22l-2.22-11.43-8.16-.15-1.91-.49-1.27.49-1.72,2.71,1.3,4.21,1.79.98h.57l.11,3.68h3.14v6.4l-2.6-.13-.62-2.81-3.24-3.7-3.43-5.11-.66-6.72,4.52-2.28.29-2.38,5.02.13,13.8-4.57,2.62-4-17.58-6.82-10.72-7.88-1.01.53-.55-2.44-1.86-3.38-1.35.29v-6.67l-6.11-10.16-29.52-8.97-12.23,1.21.43-.82,6.6-5.35,1.47-4.95-1.75-3.65-12.86-2.33-4.08,1.97-2.39-.31-5.33-3.17-23.56,1.31-4.32,5.3-1.16,13.27,1.55,5.18,2.83,2.02,16.74,3.68.27.72-11.94,4.48-5.21,9.33-2.69,12.72.06,6.99,1.39,2.56,4.14,5.01-4.42,1.33.16,2.39,8.26,15.05-.44.44,6.15,13.44,1.85-.85.92,6.3,1.48.34.76,4.72-7.01,21.09-2.75,5.79-26.02,17.76-8.5,28.47,7.91,38,7.85,41.98,2.88,37.27,18.19,32.3-2.37,31.26-4.05,19.88-7.59,26.16v23.32l8.82,48.87,6.88-.18-1.06,31.41,8.69,22.88-5.42,19.63,1.88,11.28,7.22,11.83-12.24,44.64-9.02,50.09-7.72,147.13,6.67.24-.59,14.85-2.91,2.18.26,7.53,35.77,12.02,33.15,4.48,32.17,1.34,23.34-1.11,7.52-6.02-.16-5.42-1.9-2.4-.12-3.28-2.15-9.02-11.32-9.12-7.75-2.84-8.56-2.48-8.31-3.95-15.61-13.93,1.98.07-2.26-14.68,9.53-51.27,3.56-19.31,15.54-47.76,2.38,52.42,1.65,51.57,11.98,1.21-.27,11.31-2.04,1.48.16,6.18,76.07,7.19,28.91-.56,7.49,1.21,16.53-4.21,3.74-2.46v-6.34l-1.44-1.88ZM628.43,1014.96l-2.34-13.37,3.07-8.14,2.37-1.2-.34,4.8-.59.52,1.47,13.96-3.64,3.43ZM660.4,993.92l-1.88,2.67-2.02-5.59,4.97-1.51-1.06,4.43Z"/>
      <polygon class="cls-8" points="605.44 1236.87 620.35 1289.54 626.63 1298.76 637.32 1302.68 701.37 1282.87 711.8 1271.57 712.75 1265.7 693.33 1186.06 672.24 1192.53 672.21 1208.85 667.11 1215.52 652.88 1222.87 605.44 1236.87"/>
      <polygon class="cls-8" points="520.9 1337.52 522.77 1348.16 528.97 1347.56 572.6 1343.82 671.88 1318.66 689.76 1314 712.41 1307.2 726.01 1296.73 732.15 1285.49 747.72 1274.37 738.17 1236.84 733.07 1202.83 724.57 1175.76 715.76 1139.11 713.16 1128.73 706.76 1120.06 691.97 1102.28 681.41 1089.51 678.72 1090.18 689.49 1107.24 702.96 1123.65 710.45 1131.14 714.34 1156.61 728.92 1200.61 734.48 1242.2 739.84 1266.72 739.98 1269.99 726.24 1279.21 721.34 1292.68 669.62 1310.67 572.05 1333.81 527.86 1339.59 520.9 1337.52"/>
      <polygon class="cls-8" points="698.65 1016.69 704.63 1015.31 711.59 1014.71 716.1 1017.58 715.06 1024.89 712.43 1022.39 707.62 1020.85 700.56 1021.51 700.56 1020.24 698.65 1016.69"/>
      <polygon class="cls-8" points="665.22 1001.25 662.81 999.54 652.87 999.54 636.12 1006.73 627.1 1017.06 630.6 1017.4 637.65 1008.75 652.74 1001.73 665.22 1001.25"/>
      <polygon class="cls-8" points="529.46 994.41 528.03 997.78 538.47 1001.14 551.51 997.39 540.72 997.05 529.46 994.41"/>
      <polygon class="cls-1" points="535.34 1088.17 528.12 1090.98 509.29 1093.53 508.21 1096.96 515.74 1114.65 518.51 1118.44 557.74 1110.2 608.75 1088.83 571.77 1086.12 551.29 1093.01 539.19 1089.35 535.34 1088.17"/>
      <polygon class="cls-8" points="524.34 951.57 604.43 914.61 613.08 908.07 623.39 915.63 641.22 922.85 638.76 926.77 624.96 931.33 591.33 930.49 530.47 965.22 524.34 951.57"/>
      <polygon class="cls-8" points="534.53 890.11 535.26 891.99 544.17 890.61 560.27 881.39 560.74 877.87 539.57 888.41 534.53 890.11"/>
      <polygon class="cls-8" points="518.16 1565.46 531.72 1558.88 536.91 1557.31 543.55 1560.96 549.96 1561.36 552.1 1563.57 570.38 1573.36 578.61 1574.42 584.19 1579.77 598.4 1581.2 602.28 1584.59 603.24 1589.66 601.13 1599.48 600.38 1592.76 599.06 1587.86 559.42 1571.85 544.62 1568.24 535.21 1564.57 527.07 1568.23 517.71 1573.19 518.16 1565.46"/>
      <polygon class="cls-8" points="621.23 1531.55 631.03 1532.4 645 1527.93 650.1 1525.04 697.69 1528.48 698.07 1535.97 650.74 1532.4 644.87 1535.4 627.59 1540 619.88 1538.29 619.78 1535.58 621.23 1531.55"/>
      <polygon class="cls-8" points="512.31 1678.75 511.92 1686.43 526.5 1686.95 545.36 1678.07 547.58 1674.74 576.38 1668.91 593.4 1669.56 592.5 1663.72 585.76 1661.97 553.59 1666.97 537.35 1675.68 518.27 1681.58 512.31 1678.75"/>
      <polygon class="cls-8" points="623.48 1630.58 623.8 1640.52 644.6 1642.62 672.84 1630.98 682.24 1628.47 701.88 1613.98 701.14 1602.9 699.3 1608.11 682.04 1619.88 647.51 1634.21 634.11 1634.21 623.48 1630.58"/>
      <polygon class="cls-8" points="542.52 1090.43 537.01 1093.14 517.81 1097.13 515.96 1100.85 519.78 1110.66 522.26 1112.01 568.4 1100.59 596.47 1088.02 572.18 1086.24 551.29 1093.01 542.52 1090.43"/>
      <polygon class="cls-8" points="575.02 1673.66 579.17 1677.99 587.35 1677 595.95 1673.4 593.28 1671.01 583.04 1674.16 575.02 1673.66"/>
      <polygon class="cls-8" points="584.19 1682.76 592.02 1680.05 598.8 1676.1 601.17 1678.47 595.26 1683.04 587.57 1686.19 585.49 1684.98 584.19 1682.76"/>
      <polygon class="cls-8" points="595.73 1690.33 602.55 1685.97 604.84 1681.32 606.58 1683.06 605.1 1687.59 601.17 1691.86 598.08 1691.66 595.73 1690.33"/>
      <polygon class="cls-8" points="694.43 1622.85 702.55 1620.15 705.22 1616.23 707.35 1617.39 705.37 1622.31 698.01 1624.98 694.43 1622.85"/>
      <polygon class="cls-8" points="708.95 1630.72 714.82 1626.22 715.9 1622.66 718.82 1624.31 716.76 1629.44 712.51 1632.75 708.95 1630.72"/>
      <polygon class="cls-8" points="719.8 1636.54 724.88 1632.62 726.57 1628.69 730.17 1629.44 728.66 1634.21 724.55 1638.93 719.8 1636.54"/>
      <polygon class="cls-1" points="518 1701.24 515.09 1703.69 515.35 1710.95 551.34 1723.27 584.7 1727.78 616.81 1729.06 639.79 1727.95 647.31 1721.93 647.31 1716.77 645.24 1714.11 645.12 1711.15 642.97 1701.81 631.21 1692.66 624.42 1690.19 617.35 1693.54 610.39 1700.7 610 1721.79 586.85 1720.96 583.29 1703.63 579.57 1699.9 552.23 1692.44 543 1695.5 537.09 1711.84 519.32 1705.8 518 1703.13 518 1701.24"/>
      <polygon class="cls-1" points="635.52 1653.04 633.48 1654.51 633.64 1660.7 710.14 1667.88 738.63 1667.56 746.11 1668.54 762.88 1664.22 766.38 1661.87 766.38 1655.53 764.95 1654.09 764.95 1646.09 761.32 1640.02 744.53 1633.02 742.98 1632.55 738.05 1639.37 736.38 1650.01 736.08 1662.76 723.61 1662.76 700.89 1660.7 702.1 1647.65 697.39 1642.62 664.78 1638.57 658.6 1642.95 654.56 1657.37 635.78 1655.04 635.52 1653.04"/>
      <polygon class="cls-1" points="558.95 1511.6 547.13 1556.79 551.72 1563.4 570.38 1573.36 603.81 1578.17 607.34 1570.98 619.7 1524.7 615.97 1516.57 624.47 1510.43 640.3 1466.74 640.3 1459.16 586.41 1445.3 573.32 1450.84 562.57 1497.42 570.68 1507.43 558.95 1511.6"/>
      <polygon class="cls-1" points="562.61 1375.85 562.61 1384.09 648.27 1427.25 654.55 1427.25 657.18 1431.12 659.96 1424.47 654.94 1421.23 648.41 1419.87 562.61 1375.85"/>
      <polygon class="cls-1" points="717.68 1386.73 711.73 1392.69 697.01 1396.9 686.53 1407.06 675.93 1448.59 684.41 1453.76 674.39 1459.57 659.96 1504.38 662.73 1511.18 683.78 1506.08 692.41 1497.69 696.43 1492.34 709.11 1442.16 717.68 1386.73"/>
      <polygon class="cls-1" points="527.72 1202.48 531.03 1196.88 535.34 1192.28 535.34 1194.78 531.59 1199.7 527.22 1206.65 527.72 1202.48"/>
      <polygon class="cls-1" points="508.57 1151.43 511.77 1149.18 513.2 1137.42 517 1130.29 518.05 1131.13 514.8 1139.7 513.88 1150.89 509.06 1155.11 508.57 1151.43"/>
      <polygon class="cls-1" points="519.78 1006.42 499.18 1020.24 491.06 1049.07 498.97 1086.7 508.6 1090.3 525.63 1088.5 531.09 1086.7 551.29 1093.28 571.41 1086.24 568.16 1084.96 563.72 1079.87 543.26 1023.08 531.23 1010.12 519.78 1006.42"/>
      <polygon class="cls-1" points="605.99 1081.76 610.72 1088.5 647.77 1097.87 681.73 1089.14 700.08 1067.67 703.02 1049.69 700.56 1020.24 698.05 1015.48 696.07 1014.71 691.95 1018.67 690.12 1023.24 686.92 1020.42 679.97 1022.25 665.67 1023.56 662.4 1019.13 659.28 1020.62 656.32 1026.37 653.2 1020.81 648.58 1019.7 637.59 1017.96 624.93 1019.88 616.21 1025.88 608.94 1039.03 604.38 1073.65 605.99 1081.76"/>
      <polygon class="cls-1" points="645.01 1019.13 650.43 1014.96 666.45 1010.88 678.21 1011.27 684.11 1012.38 686.65 1015.01 683.2 1018.63 675.61 1017.58 670.07 1018.63 666.99 1017.58 655.36 1021.51 650.24 1020.1 645.01 1019.13"/>
      <polygon class="cls-1" points="695.87 1072.59 702.69 1076.56 710.3 1078.23 719.71 1093.89 723.37 1106.97 709.62 1112.19 703.98 1116.71 688.53 1098.2 681.41 1089.51 695.87 1072.59"/>
      <polygon class="cls-1" points="707.07 1120.48 713.38 1129 715.54 1138.09 719.73 1142.02 725.12 1141.53 732.28 1131.92 738.56 1114.16 733.88 1086.86 727.67 1075.62 727.01 1073.23 720.95 1070.49 716.9 1076.04 718.28 1085.12 722.92 1093.69 726.3 1109.16 723.37 1106.97 710.45 1112.19 713.94 1119.1 707.07 1120.48"/>
      <polygon class="cls-1" points="704.53 991.62 727.72 989.5 728.21 987.74 728.05 978.15 726.54 974.05 722.57 968.1 664.94 970.91 663.64 963.75 660.57 957.33 626.43 958.52 629.92 961.52 632.07 966.91 626.76 969.42 622.17 971.32 616.21 986.56 616.36 988.99 608.3 989.49 596.23 991.42 598.2 1004.83 603.47 1004.11 604.03 1008.02 598.91 1008.76 599.23 1012.36 605.08 1015.48 609.61 1016.69 612.96 1016.81 626.76 1017.4 628.43 1014.96 626.09 1001.24 629.48 992.9 631.77 992.42 632.07 989.76 650.61 983.35 659.59 983.35 662.68 985.12 662.68 988.68 660.94 989.92 659.99 994.16 658.52 997.05 658.65 999.54 661.79 999.54 662.22 998.07 681.13 996.29 682.46 995.23 682.77 985.9 683.45 985.74 683.74 973.53 686.85 972.62 688.6 973.97 689.06 976.4 693.18 974.65 696.1 976.67 696.44 981.55 698.65 982.22 704.27 990.46 704.53 991.62"/>
      <polygon class="cls-1" points="662.28 998.27 661.96 999.25 662.98 999.64 671.46 1004.48 672.17 1002.49 681.38 996.04 662.28 998.27"/>
      <polygon class="cls-1" points="737.35 955.81 740.38 953.64 763.96 952.13 765.43 955.81 766.36 958.72 765.53 964.16 743.1 965.89 740.08 964.66 741.43 964.16 741.69 961.71 741.85 958.64 740.08 955.81 737.35 955.81"/>
      <polygon class="cls-1" points="745.26 933.62 741.92 934.71 740.08 937.73 740.71 941.67 742.9 943.53 753.04 943.11 754.8 940.85 754.8 935.26 752.02 933.4 745.26 933.62"/>
      <polygon class="cls-1" points="620.81 936.04 618.59 939.4 620.07 943.27 622.12 944.19 622.67 944.19 622.54 947.93 634.05 947.93 631.83 936.5 623.67 936.35 620.81 936.04"/>
      <polygon class="cls-1" points="601.13 974.21 582.15 977.4 580.77 976.13 591.56 957.69 626.09 958.18 630.25 962.33 632.07 966.91 621.75 971.35 614.97 971.94 613.97 967.54 605.88 966.91 600.84 969.14 601.13 974.21"/>
      <polygon class="cls-1" points="631.84 1011.63 630.78 997.79 648.7 992.08 657.97 994.93 658.65 997.79 658.65 999.54 653.2 999.54 636.12 1006.73 631.84 1011.63"/>
    </g>
    <g id="Schatten">
      <path class="cls-2" d="M523.84,888.09c-.27-.06-.5-.21-.67-.43-.74-.95-2.8-3.75-2.88-5.92-.1-2.65,3.33-6.87,13.54-7.06,7.54-.15,22.07-1.22,29.13-1.77,1.21-.09,1.79,1.44.84,2.18l-3.67,2.85c-.05.04-.11.08-.17.11l-8.97,4.87s-.05.03-.07.04l-12.64,5.81-3.25,1.69c-.26.14-.56.17-.85.1l-10.34-2.48Z"/>
      <path class="cls-2" d="M517.96,929.18s40.19-11.8,53.04-16.12c12.85-4.32,37.31-13.08,37.31-13.08v3.28l-54.93,19.32-32.89,9.66-2.53-3.06Z"/>
      <path class="cls-2" d="M522.62,947.53s30.86-11.8,47.83-20.04,40.98-21.77,40.98-21.77l.69,3.08-8.19,6.05-79.58,36.23-1.72-3.54Z"/>
      <path class="cls-2" d="M591.55,930.63l-31.52,16.87-27.84,16.69v2.72s14.26-3.52,20.43-7.93c3.61-2.58,15.04-10.13,24.91-16.08-.37,1.1-.87,3.42.26,5.88,1.57,3.41,8.11,9.82,9.91,9.75,1.79-.07,6.47-3.22,6.47-3.22h-4.38l-4.16-3.91-4.87-8.44.29-2.17c2.14-1.25,4.13-2.38,5.88-3.3l-1.56,4.65,1.93,7.15,4.12.65s1.26-2.28.32-2.67c-.94-.39-4.47-.39-4.34-3.79s3.3-5.13,3.47-6.02-1.63-1.11-1.63-1.11l-.23.08c1.73-.84,3.06-1.38,3.83-1.49,5-.69,22.13,1.7,22.13,1.7l4.64-2.76v-2.31l-28.07-.95Z"/>
      <path class="cls-2" d="M619.62,942.14s.76.31,4.61.44,8.53-1.2,8.53-1.2l-.68-4.89-8.4-.15-1.52-.49-1.86.64-1.26,2.39.59,3.25Z"/>
      <polygon class="cls-2" points="613.97 966.91 616.4 988.88 622.43 988.62 626.76 969.42 631.53 967.24 613.97 966.91"/>
      <g class="cls-4">
        <path class="cls-3" d="M622.54,955.81s-6.36-.86-11.66-.79c-5.3.07-19.32,2.67-19.32,2.67l30.54.43.44-2.31Z"/>
        <path class="cls-3" d="M575.9,987.1c-1.88,5.63-2.58,12.44-2.58,12.44l7.61,4.03-.81-5.91,11.82-1.61,1.64,9.5,4.3-.62v.05s5.01-.86,5.01-.86l1.09,3.86-5.08.79.64,4.04,5.06,2.56,6.34,1.69,1.46-.26-4.11-27.3-1.88.27-2.43-22.18,1.5-.67s-4.14-4.52-6.03-6.28c-1.9-1.77-7.9-2.94-7.9-2.94l-10.79,18.44s-2.99,5.34-4.87,10.97ZM602.87,990.02l-.24-2.45.27,2.44h-.03ZM600.62,969.1l.04.4-18.2,7.9-.12-.09,18.27-8.21Z"/>
      </g>
      <path class="cls-2" d="M611.2,1008.76s2.33,1.72,6.42.77,8.51-7.87,8.51-7.87l2.68,13.82-2.05,1.92-13.94-.6-1.61-8.04Z"/>
      <polygon class="cls-2" points="629.26 992.81 629.72 987 632.07 982.3 653.82 980.73 655.45 983.35 650.22 983.33 632.07 989.92 631.53 992.81 629.26 992.81"/>
      <polygon class="cls-2" points="662.68 988.88 682.27 987.57 682.52 995.23 672.17 1002.49 671.46 1004.75 662.68 999.07 658.65 999.86 658.65 996.8 660.19 993.96 661.34 989.49 662.68 988.88"/>
      <polygon class="cls-2" points="701.64 986.4 728.21 984.1 728.21 987.93 727.72 989.5 704.53 991.62 703.71 989.3 701.64 986.4"/>
      <path class="cls-2" d="M707.51,1005.21s-1.55,4.51-5.21,5.67c-3.66,1.16-6.02-1.23-11.28-3.04-3.15-1.08-7.36-1.97-10.25-2.52,1.24-.93,2.48-2.23,3.41-4.08,2.75-5.45,2.81-9.62,2.81-9.62l-14.83,10.87-.98,2.34,4.81,2.65s.02,0,.05,0l.89.58,20.91,6.92.8,2.09,2.99-1.05,6.61-1.04-.74-9.75Z"/>
      <polygon class="cls-2" points="663.64 963.45 741.85 960.71 741.59 962.94 741.26 964.25 664.35 967.24 663.64 963.45"/>
      <polygon class="cls-2" points="741.85 959.82 766.38 958.61 765.53 964.16 743.24 965.75 740.08 964.3 741.33 963.97 741.85 959.82"/>
      <path class="cls-2" d="M740.29,937.38s2.66-2.09,4.96-.77c1.37.78,1.98,2.14,1.49,3.92-.39,1.41-4.1,2.56-4.1,2.56l3.48.59,3.29-1.53.8-2.45v-2.4l-1.79-2.53-2.61-.94-3.31.69-1.44,1-.78,1.87Z"/>
      <path class="cls-2" d="M631.53,994.27s3.6-3.24,8.89-3.8c5.3-.56,16.22.94,16.22.94l1.45,4.03-9.74-3.35-17.16,5.49.34-3.31Z"/>
      <path class="cls-2" d="M631.83,1009.16s0-2.97,2.45-5.05,13.31-7.01,16.77-7.06c3.47-.05,7.47,0,7.47,0l.14,2.49h-5.45l-16.86,7.27-4.27,4.72-.25-2.37Z"/>
      <path class="cls-2" d="M628.3,1014.96s7.23-1.58,14.34-2.27,26.92-2.81,32.02-1.16,5.59,6.54,5.59,6.54l-4.64-.49-5.02,1.05-3.6-1.05-11.63,3.64-8.03-1.77-12.75-2.06h-7.81l1.54-2.44Z"/>
      <path class="cls-2" d="M738.17,1236.84l-9.37-36.66-14.39-44.74-3.08-15.47c.39.55.63.85.67.86.51.06,3.43-3.1,3.43-3.1,0,0,2.78-4.71,6.53-13.87,3.75-9.15,4.16-15.55,4.16-15.55l-5.33-18.79-9.45-16.35-9.76-15.58-1.28,9.64-18.71,22.34-2.93.72-.41.02s.02.03.05.07l-30.53,7.5-36.81-9.04-38.78-2.59-20.92,6.93s-36.78-9.09-41.87-20.55c-16.28-36.68-9.79-52.49-9.79-52.49h-.62l-7.91,28.64,15.58,78.92,3.06,38.25,18.1,32.22-2.09,31.26-2.54,11.66s6.07-13.62,8.12-22.9c2.05-9.29,4.49-43.42,3.34-55.19-1.14-11.77-20.43-35.7-12.01-39.23,8.43-3.53,52.25-20.73,62.41-17.26,10.16,3.47,74.72,26.68,86.44,20.01,5.95-3.39,9.67-11.36,11.89-18.38,4.24,4.27,11.24,11.61,14.32,16.46,4.58,7.19,10.46,11.64,11.38,16.22.92,4.58-.65,15.43-.65,15.43,0,0,4.4,4.45,5.54,11.25,1.13,6.8,7.8,18.05,10.42,31.13,2.62,13.08,12.64,83.43,12.64,83.43l10.72-7.66-9.55-37.53Z"/>
      <path class="cls-2" d="M713.17,1076.34s-3.18-15.37-5.38-27.64c-2.2-12.27-1.34-33.46-1.34-33.46l-7.53,1.45,1.59,4.16,2.16,28.82-1.2,8.44,11.7,18.24Z"/>
      <path class="cls-2" d="M551.73,1176.98c8.89-11.51,23.21-21.45,41.55-18.57,18.34,2.88,39.53,14.39,39.53,14.39,0,0-32.43-3.4-46.82.26-14.39,3.66-33.74,13.34-36.62,11.77-2.88-1.57,2.35-7.85,2.35-7.85Z"/>
      <path class="cls-2" d="M516.9,1265.12s8.04,21.2,21.96,36.11c13.91,14.91,43.25,30.17,43.25,30.17l-9.39,2.24-44.6,5.95-7.22-2.08-7.02-38.3v-24.28l3.02-9.82Z"/>
      <path class="cls-2" d="M610.91,1256.16s5.49,30.81,10.33,42.32,26.03,10.85,39.1,6.54c13.08-4.32,49.24-16.61,52.41-23.54,3.17-6.93,0-15.78,0-15.78l-1.14,5.77-10.69,11.48-63.59,19.73-11.05-4.23-6.18-9.61-9.19-32.67Z"/>
      <path class="cls-2" d="M726.88,1295.91l-14.63,11.37-38.05,10.8-101.6,25.74-43.02,3.74-1.06,26.02s4.99-8.24,16.56-15.69c11.57-7.45,59.64-14.52,77.49-16.67,12.93-1.56,32.76-5.39,51.73-10.44v.51s-4.05,16.46-4.05,16.46l-4.17,30.41-6.11,46.33-17.52,41.86-20.29,62.38-2.27,8.6,3.92,103.21,20.79,2.09s-9.53-18.13-12.08-32.65c-2.55-14.52-5.49-50.02-4.32-66.7,1.18-16.67,25.11-79.45,34.13-104.36,9.02-24.91,14.12-72.58,19.03-87.88,4.9-15.3,22.82-29.73,22.82-29.73h0c16.48-6.33,21.49-10.67,21.49-10.67l1.22-14.71Z"/>
      <path class="cls-2" d="M535.11,1396.3s11.84,10.99,12.89,15.96c1.05,4.97-13.9,0-13.9,0l2.91-10.4-1.9-5.56Z"/>
      <path class="cls-2" d="M517.71,1573.49s-1.1,67.44,4.2,80.78c5.3,13.34,15.99,27.32,15.99,27.32l-11.39,5.37-14.58-.52,5.79-112.94Z"/>
      <path class="cls-2" d="M635.78,1649.27s19.88.88,31.75-4.71c11.87-5.59,23.5-9.63,30.8-16.23,7.3-6.6,9.23-10.93,9.23-10.93l-5.69-3.42-19.98,14.5-10.22,2.71-27.08,11.43-8.81-.89v7.54Z"/>
      <path class="cls-2" d="M518.16,1691.86s19.6-3.5,36.67-8.99c17.07-5.49,41.35-9.27,41.35-9.27l-4.62-3.73-15.44-.97-28.77,5.89-1.61,2.97-19.72,9.19-7.44-.27-.43,5.17Z"/>
      <path class="cls-2" d="M515.35,1706.44s-11.49.04-12.47,4.16,3.53,18.44,46.3,26.29c42.77,7.85,94.64,7.65,103.12.59,10.1-8.41,3.83-10.13,1.18-12.83-2.02-2.06-6.16-2.71-6.16-2.71l-7.77,5.93-24.98,1.05-31.26-1.31-32.3-4.58-35.65-12.08v-4.5Z"/>
      <path class="cls-2" d="M633.64,1656.46s-7.37,1.02-8.68,4.24c-1.31,3.22-.13,7.96,27.73,11.93,27.86,3.97,87.49,6.06,99.26,3.84,11.77-2.22,24.19-7.19,25.37-11.25s-10.94-6.93-10.94-6.93v3.58l-3.71,2.5-16.87,4.61-6.55-1.34-30.3.16-25.43-2.74-49.88-4.36v-4.24Z"/>
      <path class="cls-2" d="M522.86,895.86s-2.06,3.74,0,4.14,16.87-.59,25.6-6.57c8.73-5.98,11.82-12.03,11.82-12.03l-16.45,9.34-8.56,1.11-.21-.55-12.2,4.57Z"/>
    </g>
    <g id="Outline-Details">
      <path class="cls-5" d="M528.29,1199.07c-5.74-9.9-13.53-23.2-19.08-32.96,0,.14-3.07-37.66-3.05-37.3-4.17-22.91-11.4-57.71-15.82-80.25,0,0,8.66-28.6,8.66-28.6l.07-.21.18-.12c-.24.17,26.88-18.18,25.91-17.35,0,0,2.81-5.75,2.81-5.75-.09.28,7.33-21.21,7.27-20.9,0,0-.7-4.73-.7-4.73l.1-.02.76,4.72s-7.01,21.12-7,21.12c-.02.03-2.73,5.8-2.77,5.82,0,0-25.99,17.67-25.99,17.67.11-.25-8.51,28.67-8.49,28.6,2.45,11.5,5.95,28.31,8.29,39.83,0,0,7.47,40.04,7.47,40.04,0,0,2.86,37.27,2.86,37.28-.13-.12,18.88,33.21,18.53,33.12h0Z"/>
      <path class="cls-5" d="M528.38,1192.38s-2.6,37.16-2.61,37.19c0,.01-3.94,19.9-3.95,19.91.03-.12-7.59,26.71-7.45,26.07,0-.1.06,24.05.04,23.57,0,0,8.99,48.5,8.99,48.5l-.62-.52h4.71c-.3-.05,45.51-4.02,44.94-4,29.28-7.66,85.2-21.68,113.79-28.96,2.63-.5,6.1-1.7,8.69-2.45,0,0,17.26-5.28,17.26-5.28l-.25.13,13.62-10.44-.21.24,6.17-11.24.08-.15.14-.1,15.58-11.09-.27.75s-9.48-37.55-9.48-37.58c0,.06-5.09-34.35-5.02-33.96-1.97-6.27-6.66-21.3-8.53-27.42-1.5-6.42-9.37-39.51-10.99-46.57-8.08-11.22-22.53-28.22-31.63-39.48,0,0,.08-.06.08-.06,5.55,6.63,18.94,22.94,24.26,29.31,2.62,3.32,5.1,6.75,7.66,10.12,0,0,8.94,37.21,8.95,37.21,2.21,10.62,7.62,26.18,10.82,36.68,0,0,5.1,34,5.11,34.01.01.02,9.55,37.54,9.57,37.58.03,0-15.71,11.21-15.58,11.12,0,0-6.14,11.25-6.14,11.25,0,.06-13.62,10.46-13.64,10.5,0,.01-17.28,5.31-17.29,5.32-11.46,3.5-40.49,10.38-52.48,13.56-.01,0-70.06,17.74-70.08,17.74,0,0-45.12,3.92-45.13,3.92,0,0-4.71,0-4.71,0-.18.06-8.89-48.52-8.96-48.6,0,0,0-23.67,0-23.67,0-.01,7.6-26.17,7.59-26.17,0,0,4.06-19.88,4.06-19.88.1.04,2.64-37.35,2.92-37.13h0Z"/>
      <path class="cls-5" d="M519.22,1083.06l32.14,9.75h-.24c5.23-1.8,15.64-5.31,20.88-7.06.17,0,39.33,2.41,39.56,2.47-.62.01,38.08,9.07,36.01,8.88,0,0,33.62-8.45,33.62-8.45l-.46.29,18.74-21.78-.18.4,2.68-17.65c.11.82-2.2-29.72-2.13-29.53,0,0,.06.23.06.23l-2.6-5.24.35.3c-.13-.03-20.25-6.73-20.36-6.79.25.11-15.67-9.39-14.5-8.88,0,0-9.94-.1-9.94-.1l.15-.03c.06.01-16.82,7.14-16.49,6.98,0,0-9.39,10.24-9.39,10.24l-.07-.07s9.28-10.34,9.3-10.35c.02,0,16.48-7.21,16.5-7.2.02,0,9.94,0,9.96,0,.01-.01,14.83,8.93,14.78,8.89.04.04,20.31,6.63,20.32,6.7,0,0,2.62,5.23,2.62,5.23.03.04,2.23,29.69,2.24,29.73,0,.03-2.61,17.66-2.61,17.68,0,.02-18.67,21.84-18.68,21.87-.03.1-33.66,8.32-33.72,8.38-.02,0-36.35-9.03-36.38-9.02.11-.01-39.35-2.61-39.19-2.63-.02,0-20.93,6.93-20.95,6.93.02-.1-32.29-9.96-32.03-10.18h0Z"/>
      <path class="cls-5" d="M527.47,997.53l10.75,3.29h-.25c2.18-.64,4.36-1.23,6.55-1.84l6.55-1.81c5.01-.39,12.23-.67,17.31-.98.24-.02.22-.02.43.09,3.03,1.5,6.05,3.01,9.05,4.57,8.41,4.29,18.65,9.61,26.98,14.08-.41-.15,12.14,3.68,12.09,3.65,0,0-.03.1-.03.1l-12.3-3.26s-36.36-18.33-36.18-18.28c.01.02-17.24.79-17.16.8,0,0-13.17,3.36-13.17,3.36-.03.02-10.61-3.68-10.65-3.68,0,0,.03-.09.03-.09h0Z"/>
      <path class="cls-5" d="M684.78,1021.03c-3.03.41-6.23.6-9.29.73-2.63-.97-6.27-2.29-8.8-3.4,0,0,.57.01.57.01-1.71.56-4.16,1.3-5.89,1.75-1.98.55-3.97,1.04-5.99,1.44,0,0-.03-.09-.03-.09.08,0,11.61-4.01,11.68-3.96-.01,0,8.73,3.43,8.6,3.4,0,0,9.15.03,9.15.03v.1h0Z"/>
      <path class="cls-5" d="M609.61,1016.64c8.32-.38,17.41-.18,25.74.06,4.53.78,11.2,1.86,15.65,2.79,3.1,1.08,6.17,2.29,9.21,3.54,0,0-.03.1-.03.1l-9.29-2.99c.05.01-15.7-2.45-15.69-2.45.07-.08-25.82-.78-25.59-1.04h0Z"/>
      <path class="cls-5" d="M698.64,1016.64s6.43-1.63,6.44-1.63c.02,0,6.46-.62,6.48-.63,0,0,.1,0,.1,0l.1.06,4.57,2.78.23.14c-.55,3.95-1.18,10.29-1.76,13.12,0,0,4.04,10.45,4.04,10.45,1.66,5.74,3.24,11.5,4.86,17.25l4.82,17.2-.08-.2,6.15,11.1.07.13.02.14c1.32,8.14,3.34,19.63,4.6,27.68,0,0-.06.17-.06.17l-6.48,17.68-.03.08-.04.06c-2.41,3.18-4.89,6.32-7.34,9.48l-.08.11h-.12s-5.4.39-5.4.39h-.09s-.05-.05-.05-.05l-4.21-4.39.07-.07,4.3,4.3c-.27,0,5.58-.56,5.31-.49,0,0,7.15-9.62,7.15-9.62-.05.08,6.31-17.88,6.25-17.7,0,0-4.75-27.56-4.71-27.43,0-.02-6.19-11.08-6.19-11.1,0,0-9.5-34.46-9.49-34.43,0,0-3.92-10.5-3.92-10.5.01.06,1.83-13.38,1.9-13.08.03,0-4.64-2.94-4.47-2.87,0,0-6.5.49-6.47.49,0,0-6.46,1.49-6.46,1.49l-.02-.1h0Z"/>
      <path class="cls-5" d="M701.62,1057.56c5.06,7.01,10,14.39,14.54,21.75,1.77,3.04,5.73,10.61,7.47,13.8.61,2.81,1.69,9.29,2.13,12.07.22,1.32.42,2.65.59,3.97l-.1.02s-3.38-15.76-3.35-15.67c-1.68-3.04-5.96-10.78-7.58-13.72-1.68-3.09-12.04-18.96-13.7-22.23h0Z"/>
      <path class="cls-5" d="M529.63,1347.56c.28,9.74.2,22.68-.28,31.09,2.37,6.35,5.19,14.13,7.34,20.56.46,1.75,2.06,5.7,2.12,6.98,0,0-10.38-27.2-10.38-27.2.09-.01.93-31.61,1.2-31.42h0Z"/>
      <path class="cls-5" d="M536.96,1401.04s-5.06,20.66-5.02,20.4c0,0,1.95,11.37,1.95,11.37-.15-.33,7.44,12,7.42,11.93,0,0,.06.1.06.1l-.03.11-12.22,44.39c.07-.27-8.99,50.36-8.92,49.99-2.41,41.15-5.36,105.53-7.49,147.14,0,0-.75-.82-.75-.82l14.58.5-.37.08,19.15-9.05s-.38.36-.38.36c.22-.39,1.73-3.2,1.88-3.48,0,0,.39-.08.39-.08l28.76-5.93c.05-.02.16-.02.21-.02l17.26.65-.91,1.02-2.2-14.52c-.05-.15,13.3-71.71,13.35-71.9.03-.01,37.96-116.49,37.99-116.51,0,0,17.85-42.48,17.85-42.48-.01.46,10.15-75.19,10.21-75.18,0,.02,4.49-17.93,4.47-17.82,0,0,.41-13.31.41-13.31h.1s-.35,13.32-.35,13.33c0,0-4.39,17.86-4.39,17.86,0-.03-9.93,75.33-9.93,75.32.01,0-17.79,42.52-17.78,42.52,0-.02-37.78,116.53-37.78,116.53,0-.09-13.21,71.67-13.2,71.5,0,0,2.23,14.52,2.23,14.52l.02.12h-.12s-17.26-.66-17.26-.66c.18-.07-29.05,6.01-28.68,5.83-.01,0-1.7,3.16-1.72,3.17-.05.02-19.16,9.02-19.21,9.04-.1-.04-14.6-.5-14.69-.53-.05.03,3.8-73.65,3.77-73.66.93-18.36,2.88-55.22,3.97-73.56,0-.01,9.03-50.09,9.03-50.1,0,0,12.43-44.33,12.43-44.34.04.15-7.37-12-7.39-12,0,0-1.89-11.38-1.9-11.39.09.02,4.97-20.68,5.21-20.43h0Z"/>
      <path class="cls-5" d="M727.01,1294.99s-5.3,68.85-5.3,68.86c0,0-11.99,78.64-11.99,78.64-.07,0-15.59,61.28-15.43,59.76,0,0,3.83,18.04,3.83,18.04.01.03.01.1.02.13,1.41,26.12,3.23,67.09,4.49,93.51,0,0,.02.41.02.41l-.33.24c-.12.02-20.04,14.52-20.15,14.55,0,0-.12.03-.12.03l-9.03,2.46.08-.03-28.27,11.58-.14.06-.15-.02-20.79-2.14-.49-.05v-.49c-.83-25.39-1.37-53.16-2.45-78.38,0,0-1.08-26.12-1.08-26.12h.1c.8,15.37,1.84,37.05,2.36,52.23-.05-.08,1.8,52.58,1.62,52.19,0,0,20.79,2.09,20.79,2.09-.16.04,28.25-11.65,28.22-11.64,0,0,9.02-2.49,9.02-2.49-.17.08,20.22-14.71,19.94-14.43,0,0-4.59-93.56-4.58-93.49,0-.02-3.79-18.05-3.79-18.07,0-.03,15.58-60.04,15.58-60.04,0,0,12.18-78.61,12.18-78.59.1.02,5.57-69.02,5.84-68.8h0Z"/>
      <path class="cls-5" d="M518.64,1686.67l-.34,16.48-.03-.14,1.41,2.73c8.33,2.31,23.57,7.66,32.87,10.58,10.86,1.08,23.31,2.6,34.7,3.84,10.99.28,34.37,1.05,45.64,1.47,0,0-.36.07-.36.07l12.28-5.36-.48.73.02-5.79c.16.84-1.95-9.37-1.9-9.17,0,0,.26.43.26.43.07.04-11.97-9.62-11.23-9.12,0,0-7.24-2.71-7.24-2.71l.43-.02-6.89,3.18c.7-.58-7.25,7.06-7.07,6.92,0,0,.1-.23.1-.23-.18,3.04-.51,7.3-.59,10.31,0,0-.15,10.32-.15,10.32h-.1c-.07-6.16.03-14.59.43-20.67.05-.04,7.09-7.11,7.14-7.14,0,0,6.88-3.25,6.89-3.25.02,0,7.26,2.64,7.29,2.65.02,0,11.48,9.12,11.5,9.13.06.02,1.96,9.32,1.99,9.36,0,.02,0,5.79,0,5.8,0,0,0,.05,0,.05l-.05.02-12.26,5.4s-45.71-1.47-45.75-1.46c-.02,0-34.81-4.04-34.83-4.04-.03-.04-32.99-11.07-32.99-11.13,0-.03-1.39-2.75-1.38-2.77.1,0,.41-16.67.7-16.46h0Z"/>
      <path class="cls-5" d="M591.6,1669.45c5.34,3.89,12.38,9.78,16.52,13.68,2.38,1.2,5.75,2.83,8.05,4.12,2.21.69,5.69,1.87,8.26,2.89,0,0-.03.1-.03.1,0,0-8.54-2.33-8.55-2.33,0,0-8.15-3.91-8.16-3.91.04-.07-16.42-14.46-16.11-14.55h0Z"/>
      <path class="cls-5" d="M571.43,1669.84c5.09,4.58,10.44,9.85,15.24,14.77,0,0-.21-.16-.21-.16l3.06,1.58c2.06,1.04,7.01,3.76,9.1,4.91,0,0-.32-.09-.32-.09,3.05.24,7.4.7,10.48,1.05,0,0-.23.03-.23.03,2.08-.7,4.19-1.31,6.29-1.96l-.15.18c.18-.87.4-1.73.61-2.59l.1.02-.42,2.62v.03s-.04.01-.04.01l-6.18,2.27c-.07,0-10.49-.75-10.56-.77-.01,0-12.16-6.47-12.18-6.48.08-.06-14.93-15.37-14.58-15.42h0Z"/>
      <path class="cls-5" d="M518.03,1701.11l-2.6,2.41.04-.09.16,7.52-.19-.27c4.52,1.42,13.5,4.36,17.98,5.85,5.72,1.93,12.65,4.11,17.8,5.93,0,0,16.49,2.19,16.49,2.19,5.35.73,11.38,1.47,16.4,2.22,0,0,16.51.72,16.51.72,5.4.25,11.29.46,16.44.75,6.62-.26,16.16-.61,22.7-.83,0,0-.25.1-.25.1l7.65-5.86-.09.18.11-5.17.03.08-2.13-2.86.08-.06,2.19,2.81s0,5.17.01,5.2c0,0,0,.03,0,.03l-.02.02s-7.51,6.04-7.55,6.03c0,0-22.69,1.13-22.69,1.13,0,0-33.03-1.29-33.03-1.29-.02-.02-32.96-4.51-32.98-4.53-.03-.06-35.85-12.26-35.8-12.37,0-.02,0-7.52,0-7.54,0-.02,2.66-2.35,2.67-2.37,0,0,.07.07.07.07h0Z"/>
      <path class="cls-5" d="M537.04,1711.82c1.59-4.91,3.81-11.94,5.52-16.74,2.53-.95,7.09-2.6,9.64-3.48,7.92,2.02,19.61,5.3,27.57,7.56,0,0,.21.06.21.06l.13.14,3.64,3.81.15.15.03.18c.47,2.82,1,5.63,1.43,8.46l1.3,8.48c-.18.28-3.39-16.83-3.44-16.8.17.19-3.87-3.82-3.68-3.67,0,0-27.5-7.47-27.29-7.45,0,0-9.16,3.13-9.16,3.13.08-.29-5.92,16.51-6.06,16.17h0Z"/>
      <path class="cls-5" d="M635.83,1641.73l.21,13.31-.23-.26c12.72,1.37,31.42,3.05,44.41,3.78,0-.02,44.67,3.33,44.38,3.3,0,0,13.54.02,13.54.02-.59.08,21.85-2.96,21.73-2.94,0,0-.38.16-.38.16l4.98-3.84-.31.62.04-9.55.1.37-3.73-6.64.33.29-15.77-6.61.05.02-2.35-.74.57-.19-4.92,6.81c.27-.93-1.86,10.49-1.79,10.27.03-.16-.63,12.62-.61,12.59,0,0-.1,0-.1,0,0,0,.41-12.63.42-12.63,0-.01,1.7-10.46,1.7-10.48,0-.01,4.84-6.87,4.84-6.88,0,0,.03-.04.03-.04h.05s2.36.73,2.36.73c.03.04,15.85,6.44,15.86,6.5,0,0,3.8,6.6,3.8,6.6.06.08-.01,9.54.01,9.63-.03.02-4.97,3.86-5,3.89,0,0-.02.01-.02.01h-.02s-21.85,3.02-21.85,3.02c0,0-13.54,0-13.54,0,0,0-44.44-3.47-44.45-3.47,0,0-22.22-1.74-22.22-1.74l-22.15-2.55c-.15.04,0-13.31-.04-13.37,0,0,.1,0,.1,0h0Z"/>
      <path class="cls-5" d="M701.9,1613.93c7.82,3.85,17.47,9.34,24.01,13.56,4,1.02,8.92,2.4,12.84,3.63,1.41.45,2.83.89,4.24,1.38l-.02.1-17.27-4.21c0-.09-24.07-14.3-23.79-14.45h0Z"/>
      <path class="cls-5" d="M691.51,1621.47c9.58,4.27,19.18,9.18,28.41,14.17,3.11,1.66,6.38,2.97,9.51,4.59l-.52-.02,3.37-1.07-.27.2c2.13-2.67,4.32-5.3,6.57-7.88,0,0,.08.06.08.06-.01.02-6.13,8.21-6.14,8.23,0,.01-3.34,1.18-3.35,1.19-2.26-.96-6.28-2.83-8.5-3.81-6.58-3.59-22.7-11.86-29.16-15.64h0Z"/>
      <path class="cls-5" d="M635.81,1652.89l-2.11,1.55.05-.09.14,6.34-.22-.25c4.79.29,14.3.95,19.07,1.32,12.29.91,25.8,1.87,38.1,3.21,4.75.47,14.27,1.51,19.01,2.05,7.94-.07,20.63-.19,28.87-.16,0,0,7.48,1.07,7.48,1.07h-.23c4.23-1.04,12.82-3.1,17.07-4.09,0,0-.1.05-.1.05l3.32-2.22-.1.19.14-6.34.03.07-1.41-1.47.07-.07,1.44,1.44.02.02v.02s0,6.34,0,6.37c.01.02-3.29,2.29-3.29,2.31,0,.02-17.01,4.39-17.02,4.4,0,.02-7.51-.98-7.52-.97.04,0-28.87.35-28.87.35,0,0-19-2.05-19-2.05-4.72-.55-14.28-1.48-19.02-1.85-.03-.06-38.2-3.24-38.13-3.38,0-.03,0-6.34,0-6.37,0-.02,2.16-1.5,2.16-1.52,0,0,.06.08.06.08h0Z"/>
      <path class="cls-5" d="M654.52,1657.18c1.1-4.45,2.5-10.58,3.71-14.92,1.92-1.43,3.83-2.89,5.77-4.31l.24-.17.31.04c4.88.58,11.69,1.3,16.49,1.9,4.84.66,11.69,1.49,16.46,2.18,0,0,.28.04.28.04l.17.19,4.58,5.15.17.19c-.22,2.29-.47,4.57-.76,6.86l-.81,6.62h-.1s1.01-13.48,1.03-13.24c0,0-4.71-5.03-4.71-5.03.28.08-32.98-4.04-32.91-4.01.23-.13-5.67,4.05-5.63,4.02.03-.24-4.12,14.83-4.28,14.51h0Z"/>
      <path class="cls-5" d="M532.24,964.51c.55,1.93,1.04,3.96,1.44,5.94,0,0-.45-.48-.45-.48,1.15.2,2.3.38,3.44.6l-.67.16c2.13-1.86,5.21-4.62,7.41-6.33,0,0-.2.25-.2.25.94-1.74,2.31-4.19,3.34-5.84,1.15-1.93,2.35-3.84,3.64-5.69l.09.05s-6.23,11.93-6.26,11.95c0,0-7.46,6.27-7.46,6.27l-.03.03h-.04s-3.4-.8-3.4-.8h-.05s0-.06,0-.06l-.9-6.02.1-.02h0Z"/>
      <path class="cls-5" d="M581.22,936.21c.27,2.33.44,4.66.55,7l-.07-.27c1.48,2.47,3.47,6.32,4.83,8.89,0,0-.23-.29-.23-.29,1.1.87,2.62,2.2,3.72,3.12,0,0-.52-.19-.52-.19,1.61.01,3.88.06,5.46.16,0,0-.61.39-.61.39,1.26-2.43,2.6-4.93,4.03-7.26l.09.04-3.44,7.53-.02.04h-.05s-5.46.02-5.46.02h-.03s-.02-.02-.02-.02c-.02-.01-3.76-3.07-3.78-3.08-.02-.06-4.57-9.02-4.57-9.09,0,0,.02-7,.02-7h.1Z"/>
      <path class="cls-5" d="M589.81,936.25c-.84.34-1.69.6-2.54.89l.31-.25c-.26.88-.55,1.75-.85,2.62-.3.87-.61,1.72-.94,2.58l.04-.54c.41,1.27.75,2.56,1.12,3.84.33,1.29.67,2.58.96,3.88l-.69-.59c1.43.19,2.86.51,4.28.76l-.55.41c.33-1.1.68-2.2,1.08-3.28,0,0,.1.02.1.02l-.63,3.36v.06s-.07,0-.07,0l-4.32-.44c-.06,0-.05.01-.07-.06-.7-2.58-1.46-5.18-2.09-7.77.03-.02,2.17-5.04,2.19-5.06,0,0,.03,0,.03,0l2.62-.51.02.1h0Z"/>
      <path class="cls-5" d="M619.99,931.34c.01.91-.02,1.82-.06,2.72-1.51.99-3.1,1.85-4.66,2.75l.37-.7c.37,1.87.73,4.63,1.03,6.55,0,0-.15-.39-.15-.39,1.38,1.83,3.19,4.61,4.51,6.52,0,0-.09-.1-.09-.1.67.68,1.28,1.42,1.93,2.12l.14.15.03.13.52,2.39.03.15c-.44,1.51-.92,3-1.44,4.48,0,0-.1-.02-.1-.02,0,0,.98-4.59.96-4.46,0,0-.71-2.47-.64-2.32,0,0-2.03-2.02-2.04-2.03,0,0-4.59-6.47-4.59-6.47,0,0-.01-.02-.01-.02v-.02s-.83-6.57-.83-6.57v-.05s.04-.02.04-.02l4.65-2.31-.03.04.33-2.55h.1Z"/>
      <path class="cls-5" d="M612.79,942.62c-3.48-.97-6.72-2.83-9.82-4.66,2.64-.51,5.43-1.11,8.11-1.29.66-.01,1.31-.07,1.98-.04l.02.1-7.57,1.75.03-.18,7.3,4.23-.05.09h0Z"/>
      <path class="cls-5" d="M580.73,976.13c3.19-5.68,7.29-13.43,10.51-19.02,10.13-.07,24.59.08,34.87.18,0,0,.35,0,.35,0l.26.25,3.79,3.76.12.12.07.15,2.18,4.96.54,1.23h-1.33c-4.38-.03-15.42-.09-19.64-.11l-6.55-.1.27-.06-11.95,5.06s-12.05,4.94-12.08,4.95c0,0-.05-.04-.05-.04l-1.35-1.34h0ZM580.82,976.12l1.36,1.24h-.06s23.73-10.52,23.73-10.52c.03-.01,26.19-.02,26.22-.03,0,0-.09.13-.09.13l-2.21-4.95c.17.17-4-3.95-3.69-3.72.01-.01-34.74-.47-34.47-.55,0,0-10.8,18.4-10.8,18.4h0Z"/>
      <path class="cls-5" d="M580.88,1003.57c-.57-2.1-1.04-4.23-1.44-6.37,1.77-.38,4.8-.97,6.59-1.24,2.12-.36,4.79-.8,6.9-1.04.49,3.75.98,7.81,1.21,11.58.05,1.2.14,2.4.15,3.61h-.1s-2.1-14.2-2.1-14.2l.11.08s-12.36,1.89-12.01,1.66c0,0,.79,5.91.79,5.91h-.1Z"/>
      <path class="cls-5" d="M598.16,1004.88c-.97-4.16-1.99-9.95-2.75-14.2,4.11-.78,9.47-1.52,13.64-2.22,1.07,6.87,2.11,14.41,2.9,21.35.21,2.29.48,4.57.64,6.87l-.1.02c.08.01-4.51-27.58-4.17-27.11,0,0-12.07,1.74-12.07,1.74.13-.48,1.97,13.64,2.01,13.54,0,0-.1.01-.1.01h0Z"/>
      <path class="cls-5" d="M599.5,1013.21c-1.32-1.11-1.58-3-.64-4.44,0,0,.1-.01.1-.01.21,1.1.53,3.33.64,4.44,0,0-.1.01-.1.01h0Z"/>
      <path class="cls-5" d="M608.3,989.44c4.59-.83,9.42-1.33,14.08-1.67,0,0-.77.65-.77.65.34-1.63.69-3.26,1.12-4.87.57-2.43,1.88-7.28,2.6-9.66.49-1.6,1-3.19,1.58-4.77l.1.02c-.02.07-4.48,19.49-4.49,19.56-.05.02-14.14.82-14.2.84,0,0,0-.1,0-.1h0Z"/>
      <path class="cls-5" d="M603.47,1004.16c-2.25,1.28-4.78,1.7-7.32,1.73-.84,0-1.69-.07-2.57-.3v-.1c2.44-.4,7.4-1.12,9.87-1.43,0,0,.01.1.01.1h0Z"/>
      <path class="cls-5" d="M604.39,1008.02c-2.48,1.32-5.24,1.76-8.01,1.83-.92,0-1.84-.05-2.8-.26v-.1c2.67-.44,8.09-1.22,10.79-1.56,0,0,.01.1.01.1h0Z"/>
      <path class="cls-5" d="M582.14,977.35c4.64-1.74,9.42-2.6,14.3-3.06,1.44-.11,3.48-.25,4.91-.17,0,0,.02.1.02.1-4.78.85-14.42,2.47-19.21,3.23,0,0-.02-.1-.02-.1h0Z"/>
      <path class="cls-5" d="M606.37,989.77c-1.98-7.17-2.77-14.63-2.44-22.03,0,0,.1-.01.1-.01.65,5.49,1.88,16.54,2.44,22.03,0,0-.1.01-.1.01h0Z"/>
      <path class="cls-5" d="M616.35,988.89c-1.98-7.15-2.76-14.59-2.43-21.98,0,0,.1-.01.1-.01.65,5.47,1.87,16.5,2.43,21.98,0,0-.1.01-.1.01h0Z"/>
      <path class="cls-5" d="M622.22,971.34c-.6,4.27-2.03,8.22-3.87,12.06-.57,1.13-1.37,2.7-2.1,3.71,0,0-.09-.04-.09-.04,1.44-3.95,4.44-11.86,5.97-15.78,0,0,.09.04.09.04h0Z"/>
      <path class="cls-5" d="M632.02,1011.54c-.92-4.74-1.64-9.72-2.27-14.5,0,0,.62-.2.62-.2l8.84-2.86,8.91-2.64.23-.07.22.07c3.26,1.05,6.51,2.14,9.73,3.31,0,0,.04.19.04.19l.52,2.69v.04c-.03.66-.1,1.32-.15,1.98h-.1s0-1.96,0-1.96c.02.07-.7-2.65-.69-2.63.26.15-9.64-2.82-9.58-2.78.24-.04-17.76,5.5-17.71,5.49,0,0,.06-.08.06-.08-.04,0,1.6,14.14,1.34,13.97h0Z"/>
      <path class="cls-5" d="M628.47,1015.49c-1.5-4.48-2.56-9.55-3.26-14.21,1.11-2.74,2.3-5.54,3.67-8.16,0,0,.1-.19.1-.19l.12-.03c.8-.18,1.6-.39,2.42-.53l.03.09-2.3.85c.14-.21-3.11,8.17-3.07,8.12-.09-.27,2.59,14.32,2.29,14.06h0Z"/>
      <path class="cls-5" d="M657.92,994.94c-.64-1.36-1.25-2.74-1.85-4.11,1.89-.78,4.47-1.79,6.41-2.52,0,0-.41.57-.41.57l-.13-3.77.37.64c-1.06-.54-2.08-1.14-3.12-1.71l.39.1-8.97.1.29-.05-9.3,3.1c-3.09,1.05-6.24,1.95-9.36,2.93l.34-.42c-.41,2.59-.84,5.18-1.33,7.76,0,0-.1-.01-.1-.01l.87-7.81v-.04s.04-.01.04-.01c.03,0,18.53-6.46,18.56-6.45,0,0,8.97.02,8.97.02h.04s3.09,1.78,3.09,1.78l.04.02v.04s0,3.77,0,3.77v.05s-.05.02-.05.02l-6.18,2.11.04-.07,1.46,3.93-.09.04h0Z"/>
      <path class="cls-5" d="M622.15,935.91c-.29.1-1.93.8-1.32.45-.5,1.1-1.03,2.18-1.6,3.24l.06-.57c.57,1.31,1.09,2.63,1.6,3.95l-.4-.47,1.8.96-.64-.09c.96-.24,1.93-.44,2.9-.66l-.59.49c.32-.68.67-1.35,1-2.03l-.07.41c-.08-1.18-.09-2.37-.14-3.56l.15.32c-.51-.57-.97-1.19-1.44-1.8l.11.07c-.46-.21-.94-.45-1.44-.71h0ZM622.15,935.81s1.54.49,1.55.49c.02,0,1.62,1.62,1.63,1.62,0,0,.02.02.02.02v.02s.41,3.53.41,3.53v.02s0,.02,0,.02l-.92,2.06-.02.04h-.04c-.07.02-2.86.7-2.93.71,0,0-.03-.02-.03-.02l-1.78-.99-.03-.02v-.03s-1.4-4.03-1.4-4.03v-.03s0-.03,0-.03c.03-.02,1.92-3.03,1.94-3.05,0,0,.02,0,.02,0l1.58-.34h0Z"/>
      <path class="cls-5" d="M623.67,936.3c2.89-.23,5.78-.26,8.68-.29,0,0,.14.55.14.55.98,3.95,1.87,8.24,2.6,12.24-3.06-.05-6.61-.08-9.67-.29-1.1-.06-2.21-.1-3.32-.23,0,0,.03-.36.03-.36.11-1.23.19-2.45.36-3.68h.1v3.68s-.05-.06-.05-.06l11.51-.03-.09.11-2.2-11.23c.41.16-8.17-.35-8.09-.31,0,0,0-.1,0-.1h0Z"/>
      <path class="cls-5" d="M627.17,936.49c1.37,2.63,1.86,5.55,1.98,8.47.02.97-.01,1.95-.21,2.96l-.1.02c-.49-2.84-1.37-8.57-1.76-11.43,0,0,.1-.02.1-.02h0Z"/>
      <path class="cls-5" d="M645.12,958.13c-.45-1.26-.85-2.54-1.19-3.83,0,0,.52.44.52.44-7.01.53-14.08.54-21.06-.48,0,0,0-.1,0-.1l10.53-.04c.06,0,10.53.02,10.58.03,0,0,0,.05,0,.05l.7,3.92-.1.02h0Z"/>
      <path class="cls-5" d="M628.25,958.53c-1.36-1.02-1.71-2.86-.83-4.32,0,0,.1-.02.1-.02.25,1.07.67,3.23.83,4.32,0,0-.1.02-.1.02h0Z"/>
      <path class="cls-5" d="M625.73,947.93c.91,1.38,1.01,3,.66,4.55-.13.51-.31,1.01-.66,1.52h-.1c-.05-1.51-.05-4.55,0-6.06,0,0,.1,0,.1,0h0Z"/>
      <path class="cls-5" d="M630.55,947.93c.91,1.44,1.01,3.1.66,4.71-.13.52-.31,1.05-.66,1.57h-.1c-.05-1.56-.05-4.71,0-6.28,0,0,.1,0,.1,0h0Z"/>
      <path class="cls-5" d="M634.28,947.88c.84-.42,1.72-.61,2.62-.74.58,1.14,1.03,2.34,1.28,3.59.2,1.04.3,2.1.12,3.26l-.1.03c-.61-2.02-1.25-4.02-1.79-6.06l.07.05-2.21-.03v-.1h0Z"/>
      <path class="cls-5" d="M626.76,958.47c10.05-.46,24.3-1.15,34.21-1.45,0,0,.19.39.19.39l3.15,6.39.04.08.02.1,1.35,6.79-.81-.64,29.03-1.53,29.04-1.3.44-.02c1.43,2.21,2.97,4.39,4.31,6.65,0,0,1.12,4.72,1.12,4.72l.02.09v.07s-.11,9.12-.11,9.12v.09s-.02.07-.02.07c-.06.29-.56,1.65-.62,1.9-3.98.34-7.97.59-11.96.87,0,0-11.62.81-11.62.81-.28-.2,23.44-2.25,23.13-2.19,0,.02.51-1.64.49-1.55,0,0,0-9.12,0-9.12.02.08-1.18-4.71-1.18-4.69.07.11-4.03-6.02-4.01-6,0,0,.07.04.07.04-.08-.07-58.2,2.98-58.16,2.77,0,0-1.3-6.8-1.3-6.8.02.09-3.06-6.43-3.06-6.41.33.02-33.99,1-33.74.75h0Z"/>
      <path class="cls-5" d="M660.94,958.83l79.22-3.89.49-.02.28.42,1.68,2.55.15.22c0,.13-.03,3.72-.04,3.91,0,0-.03.1-.03.1l-.62,2.34-.16.62-.62.02-76.94,2.2c-.23-.27,76.92-3.04,76.9-3.13,0,0-.09.07-.09.07l.59-2.35c.02.12-.02-3.54,0-3.51.13.25-1.67-2.57-1.63-2.52.45.03-79.45,3.22-79.17,2.97h0Z"/>
      <path class="cls-5" d="M737.01,955.77c1.06-.91,2.14-1.81,3.22-2.69,1.98-.18,3.96-.41,5.94-.55,3.46-.25,8.3-.71,11.71-.88.18-.02,6.47-.38,6.42-.39,0,0,.25.52.25.52l1.84,3.81.03.05c.3.97.59,1.95.86,2.93l-.03.18-.9,5.55-.11.67-.66.04c-7.22.47-15.1.86-22.32,1.03-1.4-.46-2.77-1.1-4.15-1.65,0,0,.03-.09.03-.09,0,0,4.19,1.43,4.09,1.4-.02.03,22.62-1.74,22.2-1.54,0,0,.84-5.55.84-5.55.05.22-.81-2.71-.77-2.6,0,0-1.8-3.83-1.8-3.83.51.12-23.6,1.21-23.34,1.22,0,0-3.31,2.46-3.31,2.46l-.06-.08h0Z"/>
      <path class="cls-5" d="M745.25,933.57c2.38-.3,4.78-.56,7.18-.73,0,0,.18.14.18.14l2.54,1.98.21.16c.09.95.21,1.9.27,2.85.02.12.19,2.78.2,2.8-.27.4-1.68,2.48-1.95,2.87-2.41.28-6.13.74-8.51.84,0,0-3.13-.71-3.13-.71l-.23-.05c-.71-.71-1.39-1.45-2.07-2.2l-.02-.2-.39-3.52c-.01-.2-.07-.17.07-.36.65-1.02,1.33-2.03,2.03-3.02,1.21-.3,2.42-.61,3.61-.86h0ZM745.27,933.67s-3.55,1.2-3.37,1.09c0,0-1.76,3-1.76,3-.02-.27.61,3.68.54,3.41,0-.02,1.91,1.9,1.75,1.76,0,0,3.14.66,3.14.66-.14.01,7.85-.85,7.82-.84-.29.27,1.59-2.28,1.54-2.25,0,0-.02.05-.02.05l-.28-5.07c.18.22-2.46-2.09-2.42-2.05.24.03-7,.21-6.95.22h0Z"/>
      <path class="cls-5" d="M745.28,933.57c1.29.07,2.52.32,3.73.62l.2.26c.68.88,1.3,1.8,1.89,2.75v.28c.02.89,0,1.79-.07,2.67-.49.82-1.03,1.62-1.6,2.39-.77.39-1.56.75-2.41,1.03l-.06-.08s2.13-1.52,2.03-1.43c0,0,1.16-2.22,1.16-2.22v.04s-.02-2.4-.02-2.4c.1.24-1.6-2.66-1.59-2.61,0,0,.04.03.04.03l-3.33-1.23.03-.09h0Z"/>
      <path class="cls-5" d="M743.62,943.99c.2,1.34.47,2.55.63,3.81,0,0-.63-.61-.63-.61,2.08-.27,4.17-.4,6.26-.48,0,0-.87.96-.87.96-.07-1.17-.13-2.81-.14-3.96,0,0,.82.73.82.73-1.95-.05-4.11-.29-6.08-.45h0ZM743.54,943.92l6.11-.34h.08s0,.07,0,.07l.27,3.95c0,.11.04.11-.1.11,0,0-6.27.17-6.27.17h-.07s0-.07,0-.07l-.02-3.89h0Z"/>
      <path class="cls-5" d="M749.66,943.61c2.49-.66,5.07-.88,7.63-.99.03,1.84.06,3.71-.05,5.54-1.73-.01-3.73-.04-5.45-.26-.52-.07-1.04-.12-1.57-.24v-.1s6.21-.35,6.21-.35l-.08.09c0-1.26-.02-2.51,0-3.77l.09.09-6.77.09v-.1h0Z"/>
      <path class="cls-5" d="M748.11,947.82c.97,1.11,1.2,2.51.94,3.9-.09.45-.25.9-.57,1.36h-.1c-.14-1.3-.32-3.94-.37-5.25,0,0,.1,0,.1,0h0Z"/>
      <path class="cls-5" d="M752.51,947.51c.97,1.11,1.2,2.51.94,3.9-.09.45-.25.9-.57,1.36h-.1c-.14-1.3-.32-3.94-.37-5.25,0,0,.1,0,.1,0h0Z"/>
      <path class="cls-5" d="M658.47,997.03c.05-1.26.43-2.38.95-3.49,0,0-.07.19-.07.19.38-1.62.94-3.14,2.07-4.44,0,0,.1.03.1.03-.37,1.39-.84,3.33-1.24,4.69,0,0-1.71,3.07-1.71,3.07l-.09-.05h0Z"/>
      <path class="cls-5" d="M660.02,994.22c7.26-1.9,14.78-2.6,22.25-2.19,0,0,0,.1,0,.1-5.54.59-16.7,1.69-22.25,2.19,0,0,0-.1,0-.1h0Z"/>
      <path class="cls-5" d="M671.15,1004.81l.88-2.38v-.04s.06-.03.06-.03c5.9-4.64,11.97-9.53,18.3-13.54,0,0-.35.84-.35.84l-.61-2.78-.05-.23.09-.23,1.92-5.12.18-.47c.26-.04,3.17-.48,3.52-.53,0,0,.18-.03.18-.03,1.23.35,2.44.75,3.65,1.12l.29.09.17.24,5.44,7.74.1.14c1.01,4.42,2.17,10.71,3.07,15.2.14,2.97.21,7.16.33,10.16,0,0-.1,0-.1,0l-.78-10.13c0,.05-3.38-15.02-3.34-14.87,0,.05-5.65-7.87-5.46-7.65.03.02-3.62-1.09-3.42-1.04,0,0-3.01.42-3.01.42l.08-.06-1.97,5.1c-.02-.25.59,2.8.59,2.74.02.07.01.05-.04.09-5.53,3.39-13.31,9.17-18.65,12.98.05-.11-.97,2.33-.97,2.31,0,0-.09-.04-.09-.04h0Z"/>
      <path class="cls-5" d="M691.03,984.66c-.92.21-1.84.37-2.77.49-1.06.56-3.65,1.28-5.27,1.73,0,0,.67-.82.67-.82-.03.77-.1,1.53-.15,2.3-.11,1.34-.41,3.24-.64,4.59-.18.76-.31,1.52-.55,2.28h-.1s.45-9.22.45-9.22c0-.08-.02-.07.07-.09,0,0,5.5-1.37,5.5-1.37.01,0,2.77.02,2.78.01,0,0,0,.1,0,.1h0Z"/>
      <path class="cls-5" d="M683.15,985.9c-.41-4.05-.4-8.3-.29-12.38,0,0,.01-.59.01-.59l.6-.19c1.05-.35,2.41-.76,3.47-1.04,0,0,.29.15.29.15.28.14,1.63.83,1.88.96,0,0,.08.38.08.38l.62,3.06.02.1c.02.08-.18,4.09-.17,4.16-.08,1.37-.19,2.74-.35,4.11,0,0-.1,0-.1,0l-.22-8.21c.02.08-.7-3.04-.7-3.02,0,0,.05.06.05.06l-1.52-.73c.34-.04-3.14.94-3.07.94.19-.48-.55,12.36-.49,12.26,0,0-.1,0-.1,0h0Z"/>
      <path class="cls-5" d="M696.68,981.64c-.73-1.55-1.13-3.18-1.46-4.84,0,0,.36.59.36.59-.99-.65-1.96-1.32-2.87-2.07,0,0,.74.11.74.11-1.51.34-2.72.77-4.36,1.01,0,0-.04-.09-.04-.09l2.59-1.25s1.52-.53,1.52-.54c.04-.02.04-.02.08.01.97.7,2.03,1.35,2.93,2.1,0,0,.62,4.95.62,4.95h-.1Z"/>
      <path class="cls-5" d="M661.75,999.52c.08-.5.18-.99.3-1.47l.21-.06c6.14-1.62,12.54-2.34,18.88-1.99,0,0,.01.1.01.1-4.69.6-14.15,1.72-18.85,2.24,0,0,.05-.04.05-.04l-.5,1.26-.09-.04h0Z"/>
      <path class="cls-5" d="M604.4,914.56l8.6-6.59.07-.05.07.05,10.76,7.78c-.2-.13,17.81,6.83,17.78,6.79,0,0,.39.15.39.15l-.24.34-2.79,3.94-.07.09-.11.04c-.07.02-13.77,4.65-13.84,4.68.01,0-33.48-.49-33.5-.5,0,0,.32-.08.32-.08l-30.83,16.75-30.2,17.86-.68.4-.32-.72-6.05-13.68-.24-.55.54-.25,80.32-36.46h0ZM604.46,914.65l-80.08,37c-.04-.55,6.19,13.66,6.18,13.53,0,0-.13-.04-.13-.04,8.99-5.36,21.26-12.82,30.12-18.04.01,0,30.98-16.59,31-16.57-.02,0,33.51.71,33.39.72,0,0,13.8-4.56,13.8-4.56-.1.14,2.78-3.92,2.78-3.9.38.34-17.86-6.92-17.75-6.84,0,0-10.71-7.85-10.72-7.86.31-.11-8.67,6.56-8.59,6.54h0Z"/>
      <path class="cls-5" d="M612.07,908.8l-.77-3.06.02.04-1.84-2.9.27.1c-7.61,3.09-15.29,6-23.02,8.77-10.54,3.81-21.33,7.62-31.92,11.33-12.45,3.7-25.97,7.7-38.43,11.19,0,0,.38-.51.38-.51l-.03,2.1c1.88,3.31,5.83,11.24,8.06,15.51-.16.32-8.53-15.53-8.62-15.48,0,0,0-.01,0-.01v-.02s0-2.1,0-2.1c7.81-2.5,27.78-8.38,35.4-10.73,3.3-.94,8.38-2.81,11.66-3.93,13.41-4.68,33.28-11.46,46.43-16.39,0,0,.04-.02.04-.02l.02.04s1.77,2.94,1.77,2.96c0,0,.69,3.08.69,3.08l-.1.02h0Z"/>
      <path class="cls-5" d="M608.26,903.27c-.18-2.36-.26-4.71-.38-7.07-1.62-2.06-4.26-6.51-6.18-9.4,0,0,.44.34.44.34l-7.5-2.21c-7.21-2.12-15.24-4.67-22.36-7.09-2.62.38-8.04.6-11.59.81,0,0-.01-.1-.01-.1.03,0,11.77-1.35,11.8-1.34.05.04,29.95,9.08,29.96,9.15,0,.03,5.96,9.82,5.95,9.85,0,0-.01,7.07-.01,7.07h-.1Z"/>
      <path class="cls-5" d="M534.67,890.04l.76,1.73-.19-.12,4.34-.78c1.44-.27,2.89-.49,4.34-.73l-.21.07c4.61-2.88,11.36-6.83,16.12-9.6,0,0-.44.68-.44.68.11-1.24.26-2.49.4-3.73l1.3.86-5.22,2.83c-5.18,2.9-10.75,5.05-16.2,7.4-.04.03-4.96,1.37-5,1.38h0ZM534.58,890s4.95-1.71,4.92-1.7c3.74-1.83,12.49-5.75,15.94-7.84,0,0,5.17-2.88,5.17-2.88l.16-.09-.02.18-.39,3.73v.05s-16.33,9.3-16.35,9.32c-.07.02-8.73,1.12-8.8,1.13,0,0-.01-.04-.01-.04l-.63-1.85h0Z"/>
      <path class="cls-5" d="M534.85,890.73c-5.21-1.12-12.63-2.51-17.75-3.67,0,0-.12-.03-.12-.03l-.11-.09-2.04-1.76-.12-.1-.05-.16-1.6-5.05-.03-.11c.2-3.49.6-10.1.87-13.58.09-.14,4.63-5.73,4.68-5.8,6.26-.44,18.17-1.18,24.43-1.5,0,0,.22.14.22.14l5.33,3.36-.31-.11,2.4.36-.47.08c1.36-.7,2.71-1.42,4.08-2.1,0,0,.24.05.24.05l13.2,2.62.3.06.1.27,1.3,3.7.06.16-.05.14-1.76,4.81-.03.09-.06.05-6.86,5.45-.06-.08s6.78-5.74,6.68-5.62c0,.04,1.64-5.01,1.61-4.82,0,0-1.38-3.68-1.38-3.68.33.13-13.29-2.38-13.19-2.35,0,0,.05,0,.05,0l-3.82,2.01s-.03.01-.05,0c-.02,0-2.4-.34-2.42-.34,0-.02-5.36-3.32-5.36-3.34.34,0-24.07,1.55-23.67,1.45.03-.04-4.43,5.46-4.3,5.25,0-.03-1,13.29-1,13.17,0,0,1.52,5.08,1.52,5.08-.16-.14,2.04,1.79,1.99,1.76-.16.01,17.87,4.05,17.59,4.24h0Z"/>
      <path class="cls-5" d="M520.6,932.47c-1.64-1.69-3.25-3.42-4.82-5.17,0,0-1.24-2.3-1.24-2.3l-.06-.1v-.15c-.06-2.42-.25-4.86-.2-7.28.78-3.74,1.87-9.43,2.75-13.1,1.74-2.95,3.4-5.94,5.21-8.85l.15-.24.21-.07c3.63-1.19,8.79-2.98,12.44-3.98,0,0,.04.09.04.09.02,0-12.36,4.68-12.17,4.57,0,0-5.03,8.92-4.98,8.81,0,0-2.82,13-2.8,12.93,0,0-.01,7.11-.01,7.11-.06-.15,1.19,2.38,1.14,2.3,0,0,4.41,5.36,4.41,5.36l-.08.06h0Z"/>
      <path class="cls-5" d="M724.14,969.73c2.05-.52,4.92-.9,7.03-1.21.83,1.05,1.73,2.54,2.5,3.66.11.14.1.17.12.34.3,1.65.54,3.98.71,5.67-.24,1.45-.68,3.45-1.04,4.9,0,0-.11.48-.11.48-1.74.02-3.48-.03-5.21-.18,0,0,0-.1,0-.1l4.76-.36-.06.06s.78-4.92.77-4.81c0,.03-.75-5.66-.71-5.48,0,0-2.08-3.34-2.08-3.34.36.07-6.72.47-6.65.5,0,0,0-.1,0-.1h0Z"/>
      <path class="cls-5" d="M600.89,969.13c1.86,6.89,2.51,14.05,2.06,21.14,0,0-.1,0-.1,0-.56-5.26-1.59-15.87-2.06-21.14,0,0,.1,0,.1,0h0Z"/>
      <path class="cls-5" d="M519.79,1006.38l11.84,3.71.1.03c3.56,3.76,8.92,8.95,12.25,12.7,6.86,18.9,13.92,38.53,20.5,57.47,0,0-.06-.11-.06-.11l3.58,4.66-.1-.06,4.29,1.43-.03.1-4.33-1.28s-3.74-4.56-3.76-4.55c-6.2-16.22-15.05-40.77-20.89-57.35.12.14-11.85-12.64-11.72-12.53,0,0-11.7-4.11-11.7-4.11l.03-.09h0Z"/>
      <path class="cls-5" d="M638.3,1018.12c-3.59.55-10.42,1.94-13.08,2.19,0,0-8.6,6.18-8.6,6.18l.23-.25c-2.03,3.82-5.06,9.34-7.15,13.2-.19,3.35-1.63,12.42-2.21,17-.57,4.31-1.84,12.99-2.52,17.28.35,1.62.86,5.38,1.21,7.7,0,0-.06-.15-.06-.15l4.88,7.52-.08.06s-5.16-7.33-5.17-7.33c0,0-1.42-7.85-1.43-7.86,0-.05,4.52-34.63,4.54-34.68,0,0,7.28-13.14,7.28-13.14.02-.04,8.73-5.99,8.77-6.03.01,0,13.37-1.8,13.38-1.8,0,0,.01.1.01.1h0Z"/>
      <path class="cls-5" d="M653.24,1020.79c1.58,1.52,2.76,3.29,3.85,5.15,0,0-1.57.03-1.57.03.79-1.58,1.71-3.11,2.79-4.52.38-.47.75-.94,1.19-1.37l.09.05-3.18,6.3-.08.16-.09-.16-3.07-5.59.09-.05h0Z"/>
      <path class="cls-5" d="M662.44,1019.1c1.25,1.36,2.41,2.78,3.61,4.18l-.42-.19c3.12-.39,9.4-1,12.53-1.23,1.64-.56,6.23-1.64,8.55-2.22,0,0,.44-.11.44-.11,1.12,1.07,2.29,2.07,3.39,3.17,0,0-1.14.25-1.14.25l2.23-4.52.06-.12c1.62-1.24,3.27-2.46,4.94-3.64,0,0,.07.08.07.08,0-.02-4.63,4.01-4.55,3.91,0,0-2.02,4.61-2.02,4.61l-.04.1-.08-.07-3.15-2.81.08.02-8.69,2.3s-12.55.82-12.57.82c0,0-.03,0-.03,0l-.02-.03-3.25-4.44.08-.06h0Z"/>
      <path class="cls-5" d="M644.6,1019.09c1.85-1.54,3.75-3.01,5.63-4.52,2.3-.72,5.69-1.63,8.04-2.33,2.72-.77,5.46-1.56,8.21-2.2,3.42.09,8.21.14,11.58.31,0,0,.08,0,.08,0h.06s6.07,1.21,6.07,1.21l.23.05.16.15c.37.35,2.75,2.56,3.08,2.87,0,0-.5.56-.5.56-1.25,1.38-2.54,2.73-3.8,4.1-2.43-.45-5.77-.89-7.76-1.36-2,.25-4,.52-6.01.73l-.02-.1s5.96-1.06,5.97-1.06c-.07.03,7.87,1,7.54,1.06,0,0,3.44-3.93,3.44-3.93v.11s-2.54-2.32-2.54-2.32c.25.08-6.16-1.14-6.03-1.11,0,0-11.57-.37-11.57-.37.11-.03-16.02,4.06-16,4.05.07-.06-5.79,4.17-5.79,4.16,0,0-.06-.08-.06-.08h0Z"/>
      <path class="cls-5" d="M695.9,1072.55c2.16,1.07,5.2,2.68,6.89,3.59,2.28.39,5.57,1.14,7.88,1.58,0,0,.26.05.26.05l.16.25c2.94,4.53,6.9,11.19,9.78,15.84,0,0,.03.13.03.13l3.23,12.78.17.68-.64.25c-4.64,1.75-10.25,3.92-14.57,5.04-1.73,1.34-3.45,2.7-5.21,4.01l-.06-.08s5-4.26,5.01-4.27c2.16-.79,5.22-1.76,7.3-2.66,0,0,7.21-2.86,7.21-2.86-.05.52-3.38-12.77-3.4-12.65.1.17-9.64-16.04-9.43-15.81-.02,0-7.83-1.81-7.84-1.82,0,0-6.82-3.98-6.82-3.98l.05-.09h0Z"/>
      <path class="cls-5" d="M718.56,1086.18c-1.15-3.36-1.94-6.83-2.58-10.31,1.33-2.26,2.78-4.44,4.26-6.6,1.77.95,3.56,1.87,5.27,2.94.51.31,1.02.63,1.52.97l-.04.09-6.53-2.92.1-.03-3.59,5.76c0-.32,1.67,10.15,1.68,10.08,0,0-.1.02-.1.02h0Z"/>
      <path class="cls-5" d="M706.95,1120.43c2.16-1.06,4.47-1.71,6.81-2.2,0,0-.61,1.29-.61,1.29-.64-1.18-1.23-2.38-1.74-3.62-.44-1.12-1.05-2.69-1.29-3.86,0,0,.09-.05.09-.05l3.81,7.07c.06.13.11.11-.07.14,0,0-6.98,1.33-6.98,1.33l-.02-.1h0Z"/>
      <path class="cls-5" d="M498.99,1086.65c2.42.57,5.06,1.36,7.44,2.12.82.26,1.64.49,2.45.79l-.35-.05c3.67-.44,8.15-.89,11.84-1.12,1.16-.09,3.1-.22,3.86-.19,1.2-.24,2.38-.52,3.59-.72,1.21-.2,2.41-.43,3.63-.58l.03.1-7.06,1.9c-5.27.51-10.54,1.02-15.82,1.48-.02,0-9.61-3.63-9.63-3.63,0,0,.03-.09.03-.09h0Z"/>
      <path class="cls-5" d="M608.76,1088.87c-16.08,7.22-34.45,15.23-50.71,22.09-9.83,2.18-29.51,6.28-39.38,8.28,0,0-.52.11-.52.11l-.31-.42-3.27-4.53c-1.24-2.86-2.37-5.78-3.53-8.67,0,0-3.4-8.53-3.4-8.53l-.08-.21.07-.2,1.12-3.42.11-.35c5.5-.71,13.76-1.63,19.19-2.24,0,0,7.28-2.32,7.28-2.32l.03.09s-7.22,2.49-7.23,2.49c.09.02-19.11,2.62-18.78,2.52,0,0-1.08,3.43-1.08,3.43-.08-.26,7.07,17.04,7.01,16.9,0,0,3.3,4.51,3.3,4.51l-.09-.03,39.23-8.24c-.07.1,51.15-21.58,51.04-21.24h0Z"/>
      <path class="cls-5" d="M630.02,1017.37c1.89-2.73,4.95-6.49,7.06-9.12.08-.12.13-.13.25-.19,4.23-2.11,10.48-5.11,14.77-6.97,1.82-.28,4.89-.07,6.92-.15,2.21-.03,4.42.1,6.63.25,0,0,0,.1,0,.1-2.2.07-4.41.11-6.61.25l-6.6.35c.16-.06-14.79,6.95-14.75,6.93.1-.1-7.6,8.63-7.59,8.61,0,0-.08-.07-.08-.07h0Z"/>
      <path class="cls-5" d="M700.56,1021.46c2.3-.81,4.72-1.25,7.14-1.51.93.26,1.83.61,2.74.93.84.32,1.91.77,2.7,1.16.7,1,1.37,2.01,1.91,3.11,0,0-.08.07-.08.07l-2.32-2.62c.21.09-5.26-1.71-5.04-1.65,0,0-7.06.62-7.06.62v-.1h0Z"/>
      <path class="cls-5" d="M520.91,1337.47s7.13,2.06,6.93,2.02c0,0,44.81-6.3,44.81-6.3-.22.05,97.17-23.48,97.12-23.48-.33.12,51.48-17.81,51.41-17.77,0,0-.54.53-.54.53l4.9-13.73.1-.28.25-.16,13.89-9.05-.37.79-.32-3.01c.12.46-5.39-24.88-5.35-24.77.03-.05-5.55-41.74-5.52-41.8.23.41-14.42-44.33-14.33-44.34,0,0-3.88-24.99-3.88-24.99l.13.25-8.16-8.28s-12.9-16.11-12.93-16.14c.06,0-10.62-16.85-10.29-16.81,0,0,10.49,16.65,10.49,16.65-.02-.03,13.04,16.02,13.02,16,0,0,8.22,8.22,8.22,8.22.04-.01,3.97,25.04,3.99,25,0,0,14.46,44.34,14.46,44.35,0,0,5.64,41.74,5.63,41.71.3,1.69,6.09,26.75,5.76,27.86,0,0,0,.06,0,.06l-.05.03-13.86,9.09c.16-.2-4.92,13.72-4.88,13.73-.05.02-51.53,17.64-51.58,17.66,0,0-97.24,23.19-97.25,23.19,0,0-44.86,5.94-44.86,5.94-.02,0-6.96-2.08-6.98-2.08,0,0,.03-.1.03-.1h0Z"/>
      <path class="cls-5" d="M596.8,1087.93c-7.02,3.41-21.08,10.08-28.16,13.33-11.18,2.87-23.73,6.03-34.96,8.73,0,0-11.65,2.79-11.65,2.79l-.35.08c-.18-.09-2.11-1.41-2.35-1.54,0,0-.22-.14-.22-.14l-.09-.24c-.94-2.45-2.83-7.38-3.73-9.84,0,0-.1-.28-.1-.28l.11-.25,1.62-3.64.14-.31.32-.06c4.79-.94,14.89-2.84,19.53-3.64,0,0,6.06-2.39,6.06-2.39l.04.09s-5.99,2.56-6,2.56c.05,0-19.72,4.15-19.43,4.03,0,0-1.57,3.66-1.57,3.66-.09-.32,3.94,9.99,3.8,9.71,0,0,2.06,1.34,2.06,1.34h-.07s46.6-11.42,46.55-11.41c0,.09,28.52-12.94,28.43-12.59h0Z"/>
      <path class="cls-5" d="M605.49,1236.89c4.59,15.41,10.92,37.32,15.35,52.51-.4-.69,6.32,9.2,6.24,9.05,0,0-.26-.2-.26-.2l10.7,3.89h-.37c-.22-.14,65.37-20.44,63.64-19.81,0,0,10.56-11.51,10.56-11.51l-.21.45.77-5.69.02.32c-5.55-22.61-13.75-56.74-19.25-79.69,0,0,.87.49.87.49l-21.11,6.41.43-.59-.05,16.09v.18s-.11.15-.11.15l-5.02,6.95c-.07.11-.09.12-.19.16-.08.05-14.06,7.12-14.13,7.15-13.38,3.82-34.34,9.82-47.86,13.68h0ZM605.4,1236.84s47.83-14.18,47.78-14.16c-.02.02,14.13-7.23,14-7.14,0,0,5-6.97,5-6.97-.03.16,0-16.05-.02-16.04-.06-.14,21.09-6.48,21.14-6.55,0,0,.08-.03.08-.03l.02.08s19.44,79.67,19.44,79.68c0,0-.79,5.69-.79,5.69v.03s-.02.02-.02.02c-.04.03-10.59,11.5-10.64,11.5-.02.02-64.08,19.81-64.1,19.79-.02,0-10.69-3.93-10.71-3.93-.01-.01-6.27-9.22-6.29-9.24-.02,0-14.88-52.72-14.9-52.73h0Z"/>
      <path class="cls-5" d="M508.55,1151.39c1-.84,2.02-1.66,3.05-2.47l-.13.22c.15-2.76.46-5.81.7-8.58.13-.95.12-2.36.35-3.11.3-.61,4.14-8.44,4.3-8.77.41.42,1.26,1.22,1.67,1.63,0,0,.4.39.4.39l-.19.55c-.91,2.52-2.35,6.15-3.32,8.7,0,0,.05-.22.05-.22-.13,1.83-.29,3.66-.49,5.48l-.56,5.48-.02.21c-1.81,1.47-3.58,2.99-5.43,4.43l-.07-.07,5-4.65c-.06.24.71-11,.69-10.94,0-.04,3.22-8.73,3.23-8.76,0,0,.02.1.02.1l-.78-.79.15-.02s-3.92,7.73-3.87,7.62c0,.03-1.45,11.38-1.45,11.4-.02.01-3.2,2.25-3.22,2.26,0,0-.06-.08-.06-.08h0Z"/>
      <path class="cls-5" d="M527.48,1202.98c.87-2.17,1.93-4.36,2.98-6.45,1.68-2.19,3.94-4.68,5.72-6.8-.02,1.42.07,3.33.04,4.73,0,0-.01.31-.01.31l-.16.21-3.69,4.9c-1.25,1.83-3.55,5.26-5.1,7.16,0,0-.09-.05-.09-.05l4.5-7.6s3.69-5.19,3.56-4.93c0,0,0-2.42,0-2.42l.16.06s-4.36,4.86-4.32,4.81c0,0-3.52,6.12-3.52,6.12l-.09-.05h0Z"/>
      <path class="cls-5" d="M657.14,1431.15l-2.69-3.84.1.05-6.28.09c-7.24-3.44-14.48-6.93-21.69-10.47-19.93-9.68-44.47-22.12-64.38-32.11,0,0-.49-.24-.49-.24v-.55c-.03-.87.02-9.01,0-9.7,25.25,13.04,62.21,32.03,86.73,45.17,0,0,6.54,1.54,6.54,1.54.02.01,4.97,3.31,4.99,3.33,0,0-.05.08-.05.08l-5.02-3.24c.09.03-6.54-1.44-6.52-1.43.05-.11-86.33-43.87-85.68-44,0,0,0,8.24,0,8.24,24.86,12.43,60.72,30.8,85.59,43.11-.09,0,6.26-.01,6.25,0,0,0,.03,0,.03,0l.02.02,2.63,3.88-.08.06h0Z"/>
      <path class="cls-5" d="M573.35,1450.88c-.16-.07-10.26,48.22-10.38,46.44,0,0,8.14,9.91,8.14,9.91l.46.56-.69.24-11.76,4.09.35-.38-11.76,45.55-.12-.59,4.73,6.26-.23-.2c-.21-.14,19.42,10.36,18.21,9.8,0,0,33.62,4.74,33.62,4.74l-.91.48,3.51-7.2-.06.16,12.58-46.52.05.52-3.78-7.86-.27-.55.5-.36,8.52-6.12-.25.33c-.2.18,16.28-44.37,15.92-43.44,0,0,.02-7.58.02-7.58l.4.52c-7.78-2.21-19.13-5.26-26.92-6.98-3.13-.75-8.77-2.08-11.84-2.82-.31-.06-14.14-4.18-15.03-4.41.54-.23-13.13,5.51-13.01,5.41h0ZM573.28,1450.81s13.12-5.59,13.15-5.57c2.6.66,14.39,4.22,16.75,4.67,7.51,1.8,16.26,3.56,23.71,5.52.05.07,13.53,3.59,13.47,3.72,0,0,0,7.59,0,7.59-.02.06-15.79,43.71-15.85,43.75,0,0-8.5,6.15-8.5,6.15l.03-.11,3.81,7.85c.05.08-12.43,46.56-12.43,46.64,0,0-3.53,7.19-3.53,7.19-.04.21-33.62-4.85-33.74-4.8-.03-.02-18.45-9.93-18.46-9.97,0,0-4.71-6.28-4.71-6.28-.11-.02,11.94-45.53,11.9-45.58-.06-.09,11.81-4.05,11.82-4.1,0,0-.03.1-.03.1l-8.11-9.94c-.06-.04,10.73-46.78,10.71-46.84h0Z"/>
      <path class="cls-5" d="M518.14,1565.41c4.18-2.67,8.76-5.08,13.2-7.3,1.53-.55,3.74-1.16,5.33-1.6l.36-.1.3.18,3.16,1.87c1.05.62,2.07,1.31,3.1,1.96l-.26-.08c2.32.26,4.63.58,6.93,1v.1s-6.98-.41-7-.43c0,0-6.39-3.61-6.39-3.61h.07s-5.2,1.58-5.2,1.58c.05-.1-13.7,6.77-13.6,6.44h0Z"/>
      <path class="cls-5" d="M517.69,1573.45l9.41-5.71c2.68-1.29,5.4-2.48,8.1-3.73l.22-.1.25.1,8.69,3.38-.11-.04,15.32,3.63s.09.03.12.04c12.92,5.01,27.01,10.92,39.69,16.55,0,0,.22.1.22.1l.05.21,1.13,4.55v.04s.01.02.01.02l.38,8.59h-.1s-.67-8.56-.67-8.56c.01.05-1.28-4.51-1.28-4.5-9.61-3.97-29.94-12.29-39.78-16.11-.01,0-15.3-3.74-15.31-3.75,0,0-8.63-3.54-8.63-3.54.22-.07-8.14,3.55-8.09,3.52,0,0-9.6,5.38-9.6,5.38l-.05-.09h0Z"/>
      <path class="cls-5" d="M577.77,1574.38c2.05,1.28,4.9,3.37,6.87,4.85,0,0-.39-.16-.39-.16,2.03.06,4.97.34,7.03.47,2.03.14,4.95.52,7,.73,0,0,.25.03.25.03l.18.15c1.39,1.17,2.67,2.46,4.02,3.67.25,1.84.42,3.69.55,5.54,0,0-.1.02-.1.02,0,.02-1.06-5.43-1-5.24.01,0-4.17-3.41-3.99-3.3-4.69-.41-9.39-.82-14.07-1.3,0,0-6.43-5.37-6.43-5.37l.06-.08h0Z"/>
      <path class="cls-5" d="M717.72,1386.77l-6,6.2c-.04.08-14.66,4.36-14.74,4.41,1.02-.82-10.26,10.11-9.97,9.87,0,0,.17-.29.17-.29l-5.02,20.9-5.13,20.88-.35-.91c.77.51,8.54,5.65,9.04,5.99-.21.13-10.15,5.85-10.77,6.21l.4-.5-7.34,22.54c-1.81,5.61-5.53,16.93-7.39,22.52,0,0-.02-.47-.02-.47l2.7,6.83-.71-.37c6.25-1.55,14.95-3.42,21.12-4.85-.84.64,8.51-7.87,8.19-7.6,0,0,4.12-5.53,4.12-5.53l.08.06-4.02,5.6s-8.23,7.85-8.24,7.86c-.1-.01-21.13,5.25-21.16,5.08,0,0-2.77-6.8-2.77-6.8-.06,0,14.53-45.15,14.51-45.18-.04-.08,9.58-5.49,9.59-5.55,0,0,0,.16,0,.16l-7.84-5.24c-.19-.11,10.44-41.68,10.38-41.83.05,0,10.26-9.9,10.31-9.9-.02.01,14.82-4.14,14.7-4.09,0,0,6.1-6.1,6.1-6.1l.07.07h0Z"/>
      <path class="cls-5" d="M619.9,1538.24l7.78,1.39c4.46-1.51,12.51-3.74,17.06-4.99,0,0,5.62-2.99,5.62-2.99l.21-.11.25.02c10.95.75,24.5,2.02,35.47,3.18,3.87.51,8.13.78,11.79,1.51.01-.01-47.5-3.75-47.28-3.77,0,0-5.64,2.94-5.64,2.94-.03.01-17.5,4.64-17.53,4.64-.03.01-7.71-1.72-7.74-1.72,0,0,.02-.1.02-.1h0Z"/>
      <path class="cls-5" d="M697.69,1528.53c-11.47-.26-24.23-.96-35.75-1.75-3.97-.22-7.93-.6-11.89-.9l.48-.11-5.37,3.1c-4.05,1.28-9.86,2.79-13.99,3.99,0,0-.1.03-.1.03h-.08s-9.76-1.27-9.76-1.27v-.1s9.88.83,9.78.84c0,0,13.78-4.26,13.71-4.23,0,0,5.34-3.15,5.34-3.15.04.05,47.79,3.31,47.63,3.56h0Z"/>
      <path class="cls-5" d="M512.33,1678.7l6.37,2.59h-.23c1.59-.56,3.16-1.14,4.75-1.66,4.39-1.42,10.38-3.51,14.18-4.63,0,0,7.86-4.42,7.86-4.42,2.73-1.47,5.38-3.16,8.17-4.49,7.4-1.12,20.9-3.07,28.21-3.98,0,0,4.05-.47,4.05-.47h.08s.05,0,.05,0l6.67,2.02-.03.1-6.74-1.75c.14-.01-32.29,5.07-32.11,5.03,0,0-15.8,8.72-15.81,8.72,0,0-19.23,5.86-19.24,5.86-.04.03-6.26-2.85-6.3-2.85,0,0,.04-.09.04-.09h0Z"/>
      <path class="cls-5" d="M623.5,1630.53l11.06,3.22c-.87-.04,13.63-.3,13.38-.31-1.58.51,17.15-7.48,16.76-7.37-.12.05,17.69-7.43,17.03-7.13,3.98-2.61,8.95-5.76,12.97-8.35,0,0,4.37-2.71,4.37-2.71l-.1.13,2.28-5.61.09.03-2.06,5.69s-17.08,11.51-17.08,11.52c0,0-34.24,14.61-34.25,14.62-.05.02-13.54,0-13.59-.01,0,0-10.92-3.64-10.92-3.64l.03-.09h0Z"/>
      <path class="cls-5" d="M575.03,1673.61c2.77-.42,5.58-.45,8.37-.32,0,0-.31.04-.31.04,3.29-1.06,6.82-1.95,10.27-2.28,0,0,.03.1.03.1-.03,0-10.01,3.13-10.04,3.12,0,0-8.32-.55-8.32-.55v-.1h0Z"/>
      <path class="cls-5" d="M578.95,1677.71c2.11-.72,5.97-1.44,7.36-1.5,3.13-1.2,6.52-2.22,9.85-2.66,0,0,.03.09.03.09-2.84,1.02-6.78,2.5-9.58,3.48,0,0-7.66.68-7.66.68v-.1h0Z"/>
      <path class="cls-5" d="M583.84,1682.82c2.06-1.33,5.59-2.78,7.29-3.29,1.73-1,3.92-2.04,5.77-2.79.69-.23,1.35-.5,2.06-.68l.05.09s-7.39,4.26-7.41,4.26c0,0-7.73,2.51-7.73,2.51l-.03-.09h0Z"/>
      <path class="cls-5" d="M587.55,1686.15c2.03-1.57,5.64-3.4,7.37-4.01,2.1-1.45,4.31-2.76,6.7-3.71,0,0,.06.08.06.08-.02.01-6.18,4.44-6.2,4.44,0,0-7.89,3.28-7.89,3.28l-.04-.09h0Z"/>
      <path class="cls-5" d="M596.16,1690.15c1.65-1.94,3.66-3.39,5.81-4.69,0,0-.31.35-.31.35.9-1.68,1.9-3.27,3.23-4.67,0,0,.09.04.09.04-.01.02-2.45,5.06-2.46,5.08-1.81,1.18-4.45,2.8-6.3,3.97,0,0-.05-.08-.05-.08h0Z"/>
      <path class="cls-5" d="M600.84,1691.82c.9-1.97,2.26-3.54,3.79-5,0,0-.22.37-.22.37.51-1.54,1.14-3.01,2.13-4.34,0,0,.1.03.1.03,0,.02-1.29,4.58-1.3,4.6-1.26,1.3-3.12,3.11-4.42,4.41,0,0-.07-.07-.07-.07h0Z"/>
      <path class="cls-5" d="M693.99,1622.8c2.53-1.68,5.4-2.68,8.31-3.45,0,0-.43.32-.43.32,1.04-1.32,2.14-2.57,3.47-3.63,0,0,.08.06.08.06l-2.8,4.1c-2.82.98-5.74,1.79-8.6,2.7,0,0-.03-.1-.03-.1h0Z"/>
      <path class="cls-5" d="M697.99,1624.93c2.15-1.61,4.57-2.61,7.08-3.44,0,0-.5.46-.5.46.82-1.63,1.72-3.19,2.94-4.58,0,0,.09.04.09.04l-2.15,4.93c-2.41.98-4.97,1.77-7.43,2.68,0,0-.03-.09-.03-.09h0Z"/>
      <path class="cls-5" d="M708.92,1630.68c1.38-2.06,3.22-3.58,5.2-4.98,0,0-.3.41-.3.41.59-1.41,1.24-2.78,2.21-4,0,0,.09.03.09.03l-1.4,4.28c-1.86,1.5-3.84,2.89-5.75,4.34,0,0-.06-.08-.06-.08h0Z"/>
      <path class="cls-5" d="M718.97,1624.05c-.03,1.99-.59,3.82-1.27,5.65-1.59,1.22-3.21,2.33-5.16,2.96,0,0-.06-.08-.06-.08,0,.02,4.54-3.65,4.37-3.47,0,0,2.02-5.09,2.02-5.09l.09.04h0Z"/>
      <path class="cls-5" d="M720.21,1636.28c1.03-1.74,2.45-3.05,4.02-4.25,0,0-.24.29-.24.29.78-1.42,1.7-2.79,2.93-3.88,0,0,.09.05.09.05l-2.15,4.28c-1.5,1.22-3.07,2.39-4.59,3.59,0,0-.06-.08-.06-.08h0Z"/>
      <path class="cls-5" d="M724.84,1638.57c.68-2,1.85-3.65,3.2-5.22,0,0-.16.29-.16.29.54-1.51,1.21-2.93,2.23-4.21,0,0,.1.03.1.03,0,.02-1.4,4.48-1.4,4.5-1.11,1.38-2.75,3.3-3.89,4.68,0,0-.08-.06-.08-.06h0Z"/>
      <path class="cls-5" d="M529.13,994.28c3.91.35,7.94,1.1,11.78,1.94,2.96-.08,8.76.34,12.35.71,1.39.17,2.78.34,4.16.59v.1s-16.72-.48-16.73-.48c.11-.06-11.93-2.67-11.57-2.86h0Z"/>
      <path class="cls-5" d="M632.09,966.95c-2.99,2.18-6.32,3.81-9.71,5.23-2.61.15-5.24.14-7.85-.19,0,0,0-.1,0-.1l7.64-.66c3.11-1.31,6.79-3.2,9.93-4.28h0Z"/>
      <path class="cls-5" d="M656,983.38c-.85-.78-1.65-1.6-2.47-2.41l.31.13c-3.6.59-7.21,1.03-10.83,1.38-3.14.37-7.68.66-10.88.86,0,0,.62-.41.62-.41-.41.76-.87,1.48-1.31,2.22l-1.34,2.21.06-.23c-.23,2.05-.54,4.09-.89,6.13,0,0-.1,0-.1,0l.38-6.16s2.46-4.55,2.45-4.57c.02-.04.02-.04.06-.04,7.25-.65,14.52-1.22,21.77-1.81.02.02,2.22,2.63,2.24,2.65,0,0-.08.06-.08.06h0Z"/>
    </g>
  </g>
</svg>