<svg xmlns="http://www.w3.org/2000/svg" xmlns:xlink="http://www.w3.org/1999/xlink"
     viewBox="0 0 390 819" width="390" height="819">
  <defs>
    <clipPath id="frame_clip_9">
      <rect width="390" height="819"/>
    </clipPath>
  </defs>
  <g clip-path="url(#frame_clip_9)">
    <svg x="124.494" y="59.856" width="153.792" height="593.754" viewBox="0 0 153.792 593.754" preserveAspectRatio="none" overflow="visible">
      <g id="f09_e00_Farbe">
      <path id="f09_e00_Vector" d="M150.698 142.58L132.819 125.063L128.778 118.667L122.116 114.843L113.437 111.741L112.963 110.799L114.102 103.378L107.989 99.4301L107.351 97.7176L112.161 93.7217L112.003 90.2141L104.442 90.4685L103.283 91.287L101.026 91.0394L100.785 90.2141L119.392 77.738L117.039 75.9842L120.572 73.6321V70.7022L118.274 68.3982L116.119 67.8548L103.07 74.1479L100.278 72.3803L116.36 65.5714L120.16 65.6815L125.725 62.1258V59.0927L125.114 57.7172V55.1518L123.557 52.8547H121.08V51.039L122.452 50.3168L122.987 48.5424L122.623 46.9468L121.553 45.8739L120.215 45.5025L118.685 45.8945L117.478 47.105L117.313 48.7281L117.8 50.0486L118.864 50.8946L119.618 51.3485V53.0129L115.433 54.4916L115.042 56.6718H114.123L113.999 60.9153L114.713 60.7915V62.1533L100.182 67.4834L100.271 66.6581L97.9245 67.3665V63.3294L100.271 62.6829L98.9673 60.2138L95.5781 60.9635L95.6467 57.731L97.1835 56.83L97.3139 57.614H99.2761V51.3554H97.1904V52.2976L95.1596 50.6607L96.3396 48.7487L105.567 50.0555L109.691 48.8588L110.583 47.5795L106.569 44.3058L99.4819 36.9742L95.5507 28.8723L94.9675 29.0305L93.3483 20.8461L85.0811 8.6452L72.9992 1.99449L62.6873 0L54.1319 2.00826L40.7121 7.79923L37.6796 6.67817L27.1688 7.70981L15.9445 22.1185L13.1385 24.8627L10.1609 25.4748L8.80929 34.8284L10.5725 38.3291L8.82303 39.7803H6.40116L0.837021 45.3581L1.49565 47.4489L6.22277 49.4984L7.03234 55.5232L1.82498 59.9318L0 63.4187L2.07883 66.947L2.52478 70.4339L7.03921 71.2936L5.68076 76.8577L7.29306 79.1754L5.22794 89.5401L9.24153 91.2938L15.1007 89.6982L17.6529 88.2608L20.4384 88.2883L17.5088 95.0353L9.97564 115.359L10.5931 148.743L13.3786 159.554L23.2513 182.87V214.074L25.3027 266.756L33.9268 298.51L35.9919 299.638L40.8356 319.068L40.225 323.201L35.9919 334.983L39.237 360.939L38.9489 364.639L39.9369 374.02L41.6383 375.726L39.7516 393.174L33.1927 414.062L27.6697 558.423L27.4159 565.074L30.119 565.507L29.776 573.3L27.4227 575.686V580.184L32.1978 584.366L80.3128 593.74L107.365 593.266L117.087 589.318L121.903 584.228L123.248 573.974L120.154 572.014L116.133 566.34L106.96 562.44L81.7535 554.221L82.0005 553.499L71.1879 531.229L77.3626 515.266L79.366 513.409L81.9868 499.173L99.7426 498.609L112.051 495.541L115.55 490.115L115.015 487.357L113.478 485.906L112.723 481.284L109.807 478.361L100.099 476.304L95.482 476.201L86.8031 472.969L98.6792 408.367L95.7153 395.822L98.6792 383.951L97.9451 379.605L105.499 356.069L112.675 294.817L117.684 292.678L131.995 280.113L131.145 275.697L135.289 276.626L128.702 243.111L125.258 222.1L124.517 201.46L117.45 188.915L115.9 180.284L126.15 183.771L139.522 185.029L151.741 172.67L153.792 168.392L150.65 142.58H150.698ZM122.191 57.5796L123.769 56.6855L123.886 57.731L121.924 57.8479L122.191 57.5727V57.5796ZM119.392 48.6937V48.1917L120.003 47.5795L120.881 48.0472V48.7487L120.167 49.237L119.392 48.7006V48.6937ZM75.5925 91.0394L72.2993 92.3186L72.1484 98.9556L64.1555 95.0284L66.2412 89.6432L72.4571 91.0394L76.4021 89.0311L78.4672 82.1672L79.0984 81.9884L79.908 92.0848L75.5994 91.0463L75.5925 91.0394ZM87.2148 87.8688L86.8237 81.1081L88.7996 80.9223L87.2148 87.8688ZM94.892 107.683L91.688 103.804L89.5543 102.69L89.3279 95.9569L90.1443 96.7547L93.2934 97.5319L94.9743 105.194L94.8989 107.683H94.892Z" fill="var(--fill-0, #F2F2F2)"/>
      <path id="f09_e00_Vector_2" d="M77.3352 376.015L71.3183 411.434L75.2701 418.133L68.6289 419.392L61.425 451.758L70.1519 465.534L87.4824 470.231L98.7135 408.395L95.7497 395.85L98.7135 383.972L97.9794 379.625L100.134 373.181L94.2883 370.822H85.9456L77.3352 376.015Z" fill="var(--fill-0, #B4B8C0)"/>
      <path id="f09_e00_Vector_3" d="M29.5496 573.547L27.4502 575.7V580.191L32.4723 584.421L80.3402 593.754L107.392 593.279L116.95 589.228L121.718 584.449L123.275 573.988L120.181 572.234L116.161 566.353L106.995 562.447L103.276 565.851L99.8662 576.058L99.9142 587.887L83.0434 587.303L77.6714 586.216L75.819 573.884L73.1981 571.484L59.7578 567.784L52.2109 569.084H51.5248L47.0516 580.576L34.2767 578.217L29.8035 575.267L29.5496 573.547Z" fill="var(--fill-0, #B4B8C0)"/>
      <path id="f09_e00_Vector_4" d="M82.7759 495.087L96.6553 494.819L95.9349 487.034L97.2796 480.631L100.134 476.332L109.842 478.382L112.758 481.305L113.595 486.449L115.042 487.378L115.584 490.135L112.085 495.562L99.777 498.629L82.0212 499.193L82.7759 495.087Z" fill="var(--fill-0, #B4B8C0)"/>
      <path id="f09_e00_Vector_5" d="M92.676 304.418L102.796 309.618L109.478 322.403L110.391 314.198L106.082 307.554L98.5009 301.461L92.676 304.418Z" fill="var(--fill-0, #B4B8C0)"/>
      <path id="f09_e00_Vector_6" d="M23.4023 220.456L28.3558 217.808L44.6708 207.1L45.549 208.179L27.7178 221.13L23.6356 222.849L23.4023 220.456Z" fill="var(--fill-0, #B4B8C0)"/>
      <path id="f09_e00_Vector_7" d="M22.4075 180.806L27.3884 176.48L35.5803 168.578L36.0605 170.27L29.4878 176.955L22.9152 182.182L22.4075 180.806Z" fill="var(--fill-0, #B4B8C0)"/>
      <path id="f09_e00_Vector_8" d="M81.6644 169.128L52.4853 174.733L37.3641 175.799L35.5322 167.931L33.3231 153.667L28.7675 153.021L23.7865 149.513L12.4524 150.586L13.262 119.293L16.0955 113.467L24.7539 105.737L27.1072 100.022L35.1137 93.9693L43.2918 95.0353L41.0483 95.4617L44.9933 102.498L49.1853 106.693L60.3478 120.854L63.7165 133.557L63.2157 150.242L59.5657 160.284L63.6204 162.698L81.6644 169.128Z" fill="var(--fill-0, #B4B8C0)"/>
      <path id="f09_e00_Vector_9" d="M17.5363 95.0353L10.0031 115.359L10.2501 119.066L15.6976 111.156L21.1039 101.617L31.649 93.5566L25.0695 92.7863L17.5363 95.0353Z" fill="var(--fill-0, #B3B3B3)"/>
      <path id="f09_e00_Vector_10" d="M84.6214 170.18L102.089 176.391L126.205 183.778L139.57 185.036L151.789 172.677L153.751 168.578L151.171 146.446L147.007 152.127L138.369 153.557L135.837 158.832L134.061 158.777V151.129L110.892 140.249L105.568 141.955L97.0052 151.129L84.6214 170.18Z" fill="var(--fill-0, #B4B8C0)"/>
      <path id="f09_e00_Vector_11" d="M119.186 128.935L125.045 127.876L133.525 128.777L137.957 130.132L148.31 140.249L146.65 143.908L142.63 145.957L135.337 142.911L135.165 138.956L127.803 133.151L119.186 128.935Z" fill="var(--fill-0, #B4B8C0)"/>
      <path id="f09_e00_Vector_12" d="M103.825 118.667L100.285 114.767L101.986 111.349L105.581 107.752L108.367 107.573L112.161 109.753L113.643 111.913L104.799 116.095L103.825 118.667Z" fill="var(--fill-0, #B4B8C0)"/>
      <path id="f09_e00_Vector_13" d="M74.1381 72.0433L73.0609 74.2029V82.6555L91.0569 80.6335L97.3345 78.8109V68.5564L95.633 67.8617L84.2647 70.0419L74.1381 72.0433Z" fill="var(--fill-0, #B4B8C0)"/>
      <path id="f09_e00_Vector_14" d="M81.6987 98.9556L87.2148 94.43L87.0227 89.4988L88.7997 80.9223L91.0569 80.6335L92.8956 80.042L97.3345 78.8109V68.5564L96.2574 68.1162L100.285 66.665V72.3872L107.489 76.9402L116.119 75.3102L119.673 77.8068L100.559 90.214L101.231 91.4176L99.1595 95.3173L91.791 94.43V92.7863L92.1752 89.3475L89.1839 95.6268L89.52 105.572L88.1342 110.909L81.6644 104.293L81.6987 98.9556Z" fill="var(--fill-0, #B4B8C0)"/>
      <path id="f09_e00_Vector_15" d="M114.727 62.2977V60.4957L120.435 58.4118V63.1987L121.485 62.7998L121.69 57.9717L123.906 57.8547L123.934 61.6031L124.942 61.2661L125.121 58.1367L125.731 59.1065V62.0019L119.996 65.6884L116.366 65.5783L119.001 64.4779L119.138 62.8961L117.848 61.6031H116.27L114.727 62.2977Z" fill="var(--fill-0, #B4B8C0)"/>
      <path id="f09_e00_Vector_16" d="M115.049 56.5411L115.543 54.4159L119.625 53.0197V51.3554L121.196 51.2109L121.094 53.0197L123.563 52.8616L124.942 55.0005L120.167 56.8231L115.049 56.5411Z" fill="var(--fill-0, #B4B8C0)"/>
      <path id="f09_e00_Vector_17" d="M95.1802 50.6538L94.4598 51.7612L94.0413 51.8368L94.4598 54.299L90.1993 57.0638V59.4091L91.7224 61.7887L95.6879 60.9084L95.6605 57.7309L97.3345 56.7474V57.4765H99.2967V51.3554H97.4306L97.3345 52.5658L95.1802 50.6538Z" fill="var(--fill-0, #B4B8C0)"/>
      <path id="f09_e00_Vector_18" d="M103.53 91.0875L104.442 90.4685L112.003 90.2141L112.161 93.7217L107.344 97.7176L103.53 91.0875Z" fill="var(--fill-0, #B4B8C0)"/>
      <path id="f09_e00_Vector_19" d="M27.704 558.437L27.4502 565.081L52.2109 569.084L70.6047 565.411L81.0126 556.47L82.0349 553.513L80.3197 549.998L73.1707 558.437L56.0461 564.297L35.5185 562.447L27.704 558.437Z" fill="var(--fill-0, #A5CCED)"/>
      <path id="f09_e00_Vector_20" d="M79.3317 561.594L82.6524 558.437L84.3676 555.157L86.2817 555.776L85.136 559.049L81.7879 562.66L79.3317 561.594Z" fill="var(--fill-0, #A5CCED)"/>
      <path id="f09_e00_Vector_21" d="M86.2817 564.297L88.4429 559.84V556.47L90.9334 557.509V560.954L88.3194 565.04L86.2817 564.297Z" fill="var(--fill-0, #A5CCED)"/>
      <path id="f09_e00_Vector_22" d="M91.9213 566.12L94.5422 563.348V558.437L96.9572 559.214V564.125L94.5422 567.309L91.9213 566.12Z" fill="var(--fill-0, #A5CCED)"/>
      <path id="f09_e00_Vector_23" d="M31.2237 466.566L38.009 462.432L45.3569 461.896L69.4865 473.113L82.0898 475.857L85.5614 479.915L84.793 484.097L80.45 480.073L70.4332 477.838L45.9058 467.831H39.5115L30.9423 473.877L31.2237 466.566Z" fill="var(--fill-0, #A5CCED)"/>
      <path id="f09_e00_Vector_24" d="M85.7877 478.416L89.0192 473.877L90.5011 474.406L89.52 477.481L88.0313 480.183L85.5614 479.069L85.7877 478.416Z" fill="var(--fill-0, #A5CCED)"/>
      <path id="f09_e00_Vector_25" d="M33.2201 294.941L33.9542 298.51L55.0376 310.457L77.294 311.172L117.245 292.829L132.037 280.133L131.186 275.718L135.337 276.646L128.75 243.132L125.306 222.114L124.565 201.474L117.498 188.929L115.955 180.291L112.627 179.231L116.572 195.648L117.293 201.226L120.744 211.206L124.332 240.167L130.911 274.287L115.269 290.003L79.0641 306.599L60.4507 307.857L33.2201 294.941Z" fill="var(--fill-0, #A5CCED)"/>
      <path id="f09_e00_Vector_26" d="M96.5592 223.015L96.1064 234.596L90.4531 238.737L55.7099 243.895L61.0271 279.845L68.7455 286.138L103.468 282.63L110.013 278.311L111.9 270.305L107.955 221.378L96.5592 223.015Z" fill="var(--fill-0, #A5CCED)"/>
      <path id="f09_e00_Vector_27" d="M51.7855 155.607L41.1238 157.422L38.1256 160.958L39.9163 171.343L72.0112 165.682L63.6204 162.698L51.7855 155.607Z" fill="var(--fill-0, #A5CCED)"/>
      <path id="f09_e00_Vector_28" d="M104.936 121.686L103.866 118.557L104.799 116.095L113.643 111.913L116.696 112.945L114.02 113.722L107.9 116.452L105.931 118.261L106.013 122.154L104.936 121.686Z" fill="var(--fill-0, #A5CCED)"/>
      <path id="f09_e00_Vector_29" d="M31.649 93.5566L21.1039 101.617L10.2501 119.066L10.6137 148.743L12.2603 154.781L13.2414 119.465L16.0955 113.467L24.7539 105.737L27.1072 100.022L35.1137 93.9693L44.1083 95.1178L49.295 94.4163L44.8012 92.7863L39.3812 93.2884L36.9044 91.9541L35.9782 90.1384L33.8651 89.5401L32.3625 89.3475L29.9269 91.5483L24.2736 90.4341L23.6493 88.2814L21.3029 87.8894L20.1022 88.5566L17.5363 95.0353L25.0695 92.7863L31.649 93.5566Z" fill="var(--fill-0, #A5CCED)"/>
      <path id="f09_e00_Vector_30" d="M54.4201 34.0443V36.5065L58.907 43.4598L59.3873 46.4034L88.5732 47.6208L105.588 50.0486L109.711 48.8519L110.768 47.6208L106.466 44.182L99.5986 37.0292L95.7085 28.8655L80.3334 33.8793L64.183 35.3992L54.4201 34.0443Z" fill="var(--fill-0, #A5CCED)"/>
      </g>
    </svg>
    <svg x="177.965" y="73.564" width="7.850" height="21.376" viewBox="0 0 7.84982 21.3757" preserveAspectRatio="none" overflow="visible" style="mix-blend-mode: multiply">
      <g id="f09_e01_Vector" style="mix-blend-mode:multiply">
      <path d="M0 0C0 0 5.15935 0.873432 6.66187 6.71943C8.16439 12.5654 7.81449 21.3757 7.81449 21.3757L0.953664 20.406V17.8819L2.79923 17.2766L4.18508 6.01105L0.00686752 0H0Z" fill="var(--fill-0, #E6E6E6)"/>
      </g>
    </svg>
    <svg x="169.615" y="114.067" width="27.649" height="40.413" viewBox="0 0 27.6491 40.413" preserveAspectRatio="none" overflow="visible" style="mix-blend-mode: multiply">
      <g id="f09_e02_Vector" style="mix-blend-mode:multiply">
      <path d="M17.893 0.839052V0.832168L17.4951 0.818441L15.1418 1.0798L14.4146 0.371378L11.437 3.45255L11.8349 4.62176L11.7114 4.6974L12.3152 7.26279L11.6085 10.5572L9.52282 13.4939L10.5656 16.4651L14.4009 18.6934L16.857 22.7306L16.1229 28.274L14.0647 28.1364L11.3821 27.3386L12.7268 30.2616L12.075 34.8215L8.34274 39.0788L1.75637 38.5698L0 38.7142L3.76658 40.413L11.4095 39.8009C11.4095 39.8009 14.6684 36.0732 16.1572 31.8366C17.646 27.5931 17.2961 22.9919 16.8502 20.2271C16.4042 17.4623 14.3322 13.8172 16.1915 11.1968C17.2549 9.69746 17.6598 6.52689 17.8038 4.08532C19.2378 3.82397 20.5824 3.597 21.3234 3.51447C23.4777 3.2875 26.8876 2.60661 26.8876 2.60661L27.6491 0L17.8862 0.839052H17.893Z" fill="var(--fill-0, #E6E6E6)"/>
      </g>
    </svg>
    <svg x="198.637" y="112.712" width="6.285" height="9.828" viewBox="0 0 6.28454 9.82814" preserveAspectRatio="none" overflow="visible" style="mix-blend-mode: multiply">
      <g id="f09_e03_Vector" style="mix-blend-mode:multiply">
      <path d="M6.28454 0.928465L3.86265 0L1.63975 1.8432L0 6.80889L0.933062 9.63559L3.5882 9.82814L4.19882 7.17338L2.53851 4.42921L6.28454 0.928465Z" fill="var(--fill-0, #E6E6E6)"/>
      </g>
    </svg>
    <svg x="183.886" y="106.262" width="39.909" height="16.098" viewBox="0 0 39.9094 16.098" preserveAspectRatio="none" overflow="visible" style="mix-blend-mode: multiply">
      <g id="f09_e04_Vector" style="mix-blend-mode:multiply">
      <path d="M37.9472 4.95191V6.2518L35.9576 3.98218L36.973 2.33842L28.9115 1.17609L0 0L0.15096 0.928507L1.90046 2.6823C1.90046 2.6823 16.3425 2.28341 22.5584 2.73733C27.9578 3.12936 33.4808 4.74558 34.8393 5.16512L34.853 5.32329L31.6627 5.89415L22.5584 6.16927V8.28071C22.5584 8.28071 24.3491 8.48017 26.2564 8.63148C28.1637 8.78279 33.8581 8.63148 33.8581 8.63148L30.8188 10.6672L30.6884 12.8268L32.1635 15.2065C32.1635 15.2065 33.1789 15.9905 34.3521 16.0937C35.5253 16.1969 36.28 14.3949 36.28 14.3949L36.4035 11.3757L37.9472 10.6672L38.1187 11.0799H39.9094V4.95191H37.9472Z" fill="var(--fill-0, #E6E6E6)"/>
      </g>
    </svg>
    <svg x="190.193" y="127.443" width="25.714" height="23.557" viewBox="0 0 25.7145 23.5567" preserveAspectRatio="none" overflow="visible" style="mix-blend-mode: multiply">
      <g id="f09_e05_Vector" style="mix-blend-mode:multiply">
      <path d="M16.6993 0.303387C13.4336 0.970519 1.11843 6.70647 1.11843 6.70647C1.11843 6.70647 0.295131 7.8138 0.0412808 8.7973C-0.116518 9.42317 0.19907 10.5649 0.631301 11.6309C0.631301 11.6309 0.638182 11.6515 0.651904 11.679V11.6928C0.830285 12.1261 1.91428 14.8634 1.87998 16.2252C1.83881 17.7038 1.83881 18.0064 1.83881 18.0064L1.9966 17.9171L0.308863 21.8992L6.9021 23.5567L10.9706 21.2527L12.8847 14.4301L7.3549 15.0491V6.42451L8.43205 4.19616L18.984 2.38045L25.344 1.1081L25.7145 0.296503C25.7145 0.296503 19.9514 -0.370629 16.6856 0.296503L16.6993 0.303387Z" fill="var(--fill-0, #E6E6E6)"/>
      </g>
    </svg>
    <svg x="199.341" y="133.606" width="12.178" height="13.464" viewBox="0 0 12.178 13.4641" preserveAspectRatio="none" overflow="visible" style="mix-blend-mode: multiply">
      <g id="f09_e06_Vector" style="mix-blend-mode:multiply">
      <path d="M11.8212 7.37286L10.0374 7.57229L9.85213 6.07297L11.6154 5.26142L9.10428 0L0 1.50621L2.53164 6.60941L5.50922 8.08123L4.38403 8.20503L4.72707 12.2903C4.72707 12.2903 5.4269 13.3289 7.1078 13.4596C8.79556 13.5971 12.178 10.5366 12.178 10.5366L11.8212 7.36597V7.37286Z" fill="var(--fill-0, #E6E6E6)"/>
      </g>
    </svg>
    <svg x="211.521" y="139.891" width="6.058" height="13.879" viewBox="0 0 6.05807 13.8791" preserveAspectRatio="none" overflow="visible" style="mix-blend-mode: multiply">
      <g id="f09_e07_Vector" style="mix-blend-mode:multiply">
      <path d="M0 9.20229L1.77693 0.880317L4.03417 0.591467L6.05808 0L2.13371 12.6205L0.192081 13.8791L0 9.20229Z" fill="var(--fill-0, #E6E6E6)"/>
      </g>
    </svg>
    <svg x="210.554" y="155.347" width="3.451" height="15.413" viewBox="0 0 3.45101 15.4128" preserveAspectRatio="none" overflow="visible" style="mix-blend-mode: multiply">
      <g id="f09_e08_Vector" style="mix-blend-mode:multiply">
      <path d="M0.00686752 13.3495C0.00686752 13.3495 2.09942 10.1308 2.36699 9.388C2.63456 8.64522 3.25202 0 3.25202 0L3.45101 10.0758L2.06511 15.4128L0 13.3426L0.00686752 13.3495Z" fill="var(--fill-0, #E6E6E6)"/>
      </g>
    </svg>
    <svg x="214.013" y="136.352" width="30.153" height="18.838" viewBox="0 0 30.1533 18.8379" preserveAspectRatio="none" overflow="visible" style="mix-blend-mode: multiply">
      <g id="f09_e09_Vector" style="mix-blend-mode:multiply">
      <path d="M30.1533 1.30677L28.2941 0L1.90733 15.0414L0 18.8379L1.25554 17.8475L1.90733 17.93L1.94849 17.7237L9.63949 18.5353L11.8418 14.7938L11.0734 13.6934L30.1533 1.30677Z" fill="var(--fill-0, #E6E6E6)"/>
      </g>
    </svg>
    <svg x="228.011" y="150.323" width="8.178" height="4.127" viewBox="0 0 8.17809 4.12659" preserveAspectRatio="none" overflow="visible" style="mix-blend-mode: multiply">
      <g id="f09_e10_Vector" style="mix-blend-mode:multiply">
      <path d="M0 0.687765L0.926194 0H8.17809L2.05138 4.12659L0.54199 1.0798L0 0.687765Z" fill="var(--fill-0, #E6E6E6)"/>
      </g>
    </svg>
    <svg x="231.169" y="152.289" width="5.482" height="5.571" viewBox="0 0 5.48179 5.57092" preserveAspectRatio="none" overflow="visible" style="mix-blend-mode: multiply">
      <g id="f09_e11_Vector" style="mix-blend-mode:multiply">
      <path d="M0 4.32607L5.48179 0V1.58189L0.638051 5.57092L0 4.32607Z" fill="var(--fill-0, #E6E6E6)"/>
      </g>
    </svg>
    <svg x="234.209" y="130.559" width="10.861" height="5.791" viewBox="0 0 10.8607 5.79096" preserveAspectRatio="none" overflow="visible" style="mix-blend-mode: multiply">
      <g id="f09_e12_Vector" style="mix-blend-mode:multiply">
      <path d="M0 5.79096L10.8607 0V2.923L6.98435 5.08259L6.04442 4.60115L0 5.79096Z" fill="var(--fill-0, #E6E6E6)"/>
      </g>
    </svg>
    <svg x="224.631" y="122.749" width="18.998" height="9.491" viewBox="0 0 18.9976 9.49114" preserveAspectRatio="none" overflow="visible" style="mix-blend-mode: multiply">
      <g id="f09_e13_Vector" style="mix-blend-mode:multiply">
      <path d="M0.14405 9.49114L18.8398 1.57497L18.9976 0L0 7.81299L0.14405 9.49114Z" fill="var(--fill-0, #E6E6E6)"/>
      </g>
    </svg>
    <svg x="239.548" y="118.220" width="5.324" height="2.490" viewBox="0 0 5.324 2.4897" preserveAspectRatio="none" overflow="visible" style="mix-blend-mode: multiply">
      <g id="f09_e14_Vector" style="mix-blend-mode:multiply">
      <path d="M0 2.13205L5.324 0V2.4897L4.34291 1.85009L0 2.13205Z" fill="var(--fill-0, #E6E6E6)"/>
      </g>
    </svg>
    <svg x="246.183" y="117.585" width="2.215" height="2.765" viewBox="0 0 2.21522 2.76478" preserveAspectRatio="none" overflow="visible" style="mix-blend-mode: multiply">
      <g id="f09_e15_Vector" style="mix-blend-mode:multiply">
      <path d="M0 2.76478L2.21522 1.11418V0L0 0.240701V2.76478Z" fill="var(--fill-0, #E6E6E6)"/>
      </g>
    </svg>
    <svg x="227.260" y="170.275" width="10.559" height="8.095" viewBox="0 0 10.5588 8.09492" preserveAspectRatio="none" overflow="visible" style="mix-blend-mode: multiply">
      <g id="f09_e16_Vector" style="mix-blend-mode:multiply">
      <path d="M0.00686752 7.09081C0.00686752 7.09081 0.295039 5.33705 1.825 4.20912C3.36183 3.08806 9.79727 0 9.79727 0L10.5588 1.63L2.14744 5.50892L1.13205 8.09492L0 7.08392L0.00686752 7.09081Z" fill="var(--fill-0, #E6E6E6)"/>
      </g>
    </svg>
    <svg x="144.235" y="144.289" width="31.189" height="10.601" viewBox="0 0 31.1893 10.6013" preserveAspectRatio="none" overflow="visible" style="mix-blend-mode: multiply">
      <g id="f09_e17_Vector" style="mix-blend-mode:multiply">
      <path d="M0 5.37383C0 5.37383 2.05824 7.21702 4.58302 7.89102C7.11467 8.56503 14.2705 7.14823 14.2705 7.14823C14.2705 7.14823 16.4934 8.9708 18.3115 10.195C20.1297 11.4192 31.1893 9.48664 31.1893 9.48664L28.0058 8.38619L19.2995 8.85391L16.9737 7.41647L16.6375 5.82773L15.8279 3.16609L16.4728 0.793291C16.4728 0.793291 15.7936 -0.554741 14.6272 0.263699C13.4609 1.08214 13.6942 1.85932 13.6942 1.85932V3.84697L10.1814 7.14134L4.52813 5.99967L3.41668 2.18259L0.548857 3.84697L0 5.36694V5.37383Z" fill="var(--fill-0, #E6E6E6)"/>
      </g>
    </svg>
    <svg x="136.667" y="153.778" width="24.226" height="66.362" viewBox="0 0 24.2256 66.3624" preserveAspectRatio="none" overflow="visible" style="mix-blend-mode: multiply">
      <g id="f09_e18_Vector" style="mix-blend-mode:multiply">
      <path d="M24.2187 0.192552C24.2187 0.192552 19.6151 5.28201 17.2344 6.72631C14.8537 8.16374 15.3477 10.3233 13.8726 12.93C12.3975 15.5366 6.4629 19.1818 5.36517 21.1144C4.26744 23.047 3.10111 39.5533 2.56596 44.8147C2.03082 50.0761 1.55055 66.3624 1.55055 66.3624L0 61.3555L0.466552 49.9867L1.1046 25.3854L3.93813 19.5394L12.5347 11.8502L15.0252 5.91476L23.1827 0L24.2256 0.192552H24.2187Z" fill="var(--fill-0, #E6E6E6)"/>
      </g>
    </svg>
    <svg x="146.144" y="238.864" width="23.911" height="72.236" viewBox="0 0 23.9111 72.2358" preserveAspectRatio="none" overflow="visible" style="mix-blend-mode: multiply">
      <g id="f09_e19_Vector" style="mix-blend-mode:multiply">
      <path d="M0 0C0 0 12.4044 19.7388 17.1795 24.2643C21.9615 28.7898 23.4229 30.7431 23.9031 35.2617C24.3834 39.7803 3.08737 72.2358 3.08737 72.2358L1.63288 42.3732V4.216L0 0.00688436V0Z" fill="var(--fill-0, #E6E6E6)"/>
      </g>
    </svg>
    <svg x="178.523" y="303.746" width="56.713" height="45.844" viewBox="0 0 56.7129 45.8442" preserveAspectRatio="none" overflow="visible" style="mix-blend-mode: multiply">
      <g id="f09_e20_Vector" style="mix-blend-mode:multiply">
      <path d="M1.68223 0C1.68223 0 -0.403483 4.73181 0.0699136 8.84464C0.54331 12.9575 4.30991 37.717 5.05088 39.2713C5.79185 40.8257 9.81916 45.0073 16.0831 45.7501C22.347 46.4929 49.8726 42.6482 52.6993 40.8944C55.5259 39.1406 56.7129 31.362 56.7129 31.362L55.6975 34.6702L49.2689 38.7486L14.7178 42.2494L6.9719 35.8876L1.6891 0.0137687L1.68223 0Z" fill="var(--fill-0, #E6E6E6)"/>
      </g>
    </svg>
    <svg x="144.921" y="197.269" width="114.918" height="148.531" viewBox="0 0 114.918 148.531" preserveAspectRatio="none" overflow="visible" style="mix-blend-mode: multiply">
      <g id="f09_e21_Vector" style="mix-blend-mode:multiply">
      <path d="M114.911 139.232L109.107 109.919L104.887 84.6991L104.146 64.0593L97.2994 51.8997L95.5361 42.6974L81.1696 38.7839L42.8587 25.0218L2.49652 0.736847C2.49652 0.736847 -3.35574 -2.54383 2.86016 4.7396C2.86016 4.7396 26.4271 24.4372 42.6049 34.5543C58.7827 44.6713 79.1799 54.9258 86.5416 54.9258C89.3408 54.9258 91.5568 54.4856 93.2446 53.9423C93.5739 57.2848 94.6511 67.5325 96.0987 75.4968C97.8482 85.1462 106.664 127.237 106.863 130.814C107.062 134.39 106.459 141.742 105.923 144.438C105.388 147.134 105.224 148.531 105.224 148.531L111.618 142.705L110.904 137.96L114.918 139.218L114.911 139.232Z" fill="var(--fill-0, #E6E6E6)"/>
      </g>
    </svg>
    <svg x="228.781" y="179.497" width="41.938" height="30.443" viewBox="0 0 41.9383 30.4432" preserveAspectRatio="none" overflow="visible" style="mix-blend-mode: multiply">
      <g id="f09_e22_Vector" style="mix-blend-mode:multiply">
      <path d="M0 0.152551C0 0.152551 5.19365 -0.493914 11.2037 0.874737C17.2138 2.25027 31.4363 9.96008 31.4363 9.96008C31.4363 9.96008 41.7618 22.7732 41.9333 25.3386C42.0157 26.5697 41.0689 29.527 39.4223 30.2629C37.4258 31.157 34.455 28.5298 33.2681 26.6934L31.3677 23.7429L31.0589 19.5338L23.4571 13.4609L11.4301 7.4085L9.11119 9.29985L8.53486 6.87202L2.39442 2.66979L0.686082 1.85139L0 0.138866V0.152551Z" fill="var(--fill-0, #E6E6E6)"/>
      </g>
    </svg>
    <svg x="217.869" y="157.414" width="7.863" height="16.406" viewBox="0 0 7.86252 16.4058" preserveAspectRatio="none" overflow="visible" style="mix-blend-mode: multiply">
      <g id="f09_e23_Vector" style="mix-blend-mode:multiply">
      <path d="M0 0.00955729C0 0.00955729 1.58485 -0.3687 2.662 3.63409C3.73915 7.63688 2.71003 8.3109 3.64996 10.608C4.58989 12.8983 7.86252 15.5049 7.86252 15.5049L7.2725 16.4058L4.89177 13.9781L1.51626 11.6397V7.64373L0 0.00955729Z" fill="var(--fill-0, #E6E6E6)"/>
      </g>
    </svg>
    <svg x="160.515" y="354.694" width="76.690" height="23.326" viewBox="0 0 76.6903 23.3258" preserveAspectRatio="none" overflow="visible" style="mix-blend-mode: multiply">
      <g id="f09_e24_Vector" style="mix-blend-mode:multiply">
      <path d="M1.3653 10.2821C1.3653 10.2821 8.91906 17.1391 17.4402 20.5573C25.9613 23.9755 39.2439 24.5119 51.1749 20.5573C63.1059 16.6026 76.0728 5.24765 76.0728 5.24765L76.6903 0L40.9728 16.3344L18.7643 15.6261L0 4.79378L1.3653 10.2752V10.2821Z" fill="var(--fill-0, #E6E6E6)"/>
      </g>
    </svg>
    <svg x="163.121" y="433.698" width="18.798" height="40.172" viewBox="0 0 18.7981 40.1719" preserveAspectRatio="none" overflow="visible" style="mix-blend-mode: multiply">
      <g id="f09_e25_Vector" style="mix-blend-mode:multiply">
      <path d="M1.15948 0C1.15948 0 11.3341 6.10742 12.6788 9.52561C14.0235 12.9438 20.3972 35.3374 18.4213 37.8615C16.4454 40.3787 7.02548 41.4585 4.06846 37.8615C1.10459 34.2645 0 23.0127 0 23.0127L1.28984 18.8654L3.04621 1.89824L1.15948 0.00688436V0Z" fill="var(--fill-0, #E6E6E6)"/>
      </g>
    </svg>
    <svg x="189.419" y="570.317" width="15.022" height="40.303" viewBox="0 0 15.0215 40.3033" preserveAspectRatio="none" overflow="visible" style="mix-blend-mode: multiply">
      <g id="f09_e26_Vector" style="mix-blend-mode:multiply">
      <path d="M15.0215 0.0137687C15.0215 0.0137687 6.52785 8.72772 3.83841 17.2698C1.14896 25.8118 -1.54737 39.9385 1.05974 40.2962C3.65999 40.6538 9.50541 27.4143 9.50541 27.4143L6.37688 21.1556L12.7231 4.91753L14.4795 2.95742L15.0215 0V0.0137687Z" fill="var(--fill-0, #E6E6E6)"/>
      </g>
    </svg>
    <svg x="154.297" y="614.066" width="54.566" height="20.114" viewBox="0 0 54.5655 20.1141" preserveAspectRatio="none" overflow="visible" style="mix-blend-mode: multiply">
      <g id="f09_e27_Vector" style="mix-blend-mode:multiply">
      <path d="M0 16.5408C0 16.5408 12.2877 20.6811 24.205 20.0483C36.1291 19.4156 49.8713 9.34679 52.2863 5.74978C54.7013 2.15278 54.5641 0.949118 54.5641 0.949118L52.0736 0L51.216 2.26277L40.7121 11.2794L22.181 14.8351L0.349909 11.3138L0.00686752 16.5408H0Z" fill="var(--fill-0, #E6E6E6)"/>
      </g>
    </svg>
    <svg x="206.313" y="532.950" width="11.794" height="26.300" viewBox="0 0 11.7938 26.3001" preserveAspectRatio="none" overflow="visible" style="mix-blend-mode: multiply">
      <g id="f09_e28_Vector" style="mix-blend-mode:multiply">
      <path d="M2.64827 26.0937C2.64827 26.0937 4.8369 12.8543 6.06498 10.2202C7.29307 7.58603 9.37874 3.87894 10.2501 3.47316C11.1214 3.06738 11.7938 2.40029 11.7938 2.40029L5.00152 0L0 26.3001L2.64827 26.0937Z" fill="var(--fill-0, #E6E6E6)"/>
      </g>
    </svg>
    <svg x="148.976" y="635.578" width="103.489" height="25.492" viewBox="0 0 103.489 25.492" preserveAspectRatio="none" overflow="visible" style="mix-blend-mode: multiply">
      <g id="f09_e29_Vector" style="mix-blend-mode:multiply">
      <path d="M2.97431 0.852821C2.97431 0.852821 0.0927533 3.77582 0.00356259 5.57776C-0.0856281 7.3797 1.43747 10.9768 11.667 14.3055C21.8964 17.6343 60.1181 24.9177 70.6151 25.4611C81.1122 25.9975 95.0191 19.4362 99.6844 15.3853C104.35 11.3344 103.451 5.48837 103.362 4.14036C103.273 2.79234 98.7925 0 98.7925 0L97.5301 8.45265L92.213 13.6452L82.5049 17.5655L55.4596 18.0332L7.6191 8.52141L2.77536 4.11282L2.96057 0.852821H2.97431Z" fill="var(--fill-0, #E6E6E6)"/>
      </g>
    </svg>
    <svg x="205.607" y="548.151" width="36.165" height="15.819" viewBox="0 0 36.1653 15.8186" preserveAspectRatio="none" overflow="visible" style="mix-blend-mode: multiply">
      <g id="f09_e30_Vector" style="mix-blend-mode:multiply">
      <path d="M0 15.8117C0 15.8117 16.1367 15.4816 24.548 13.9341C32.9594 12.3798 34.8461 9.07854 35.9233 5.97672C37.0004 2.8749 34.1326 0 34.1326 0L34.4756 1.60246L30.9492 7.26283L18.4282 10.344L0.706685 11.1074L0.00686752 15.8186L0 15.8117Z" fill="var(--fill-0, #E6E6E6)"/>
      </g>
    </svg>
    <svg x="124.398" y="59.284" width="154.005" height="594.386" viewBox="0 0 154.005 594.387" preserveAspectRatio="none" overflow="visible">
      <g id="f09_e31_Outline-Details">
      <path id="f09_e31_Vector" d="M30.2768 566.092L30.0778 576.182L29.9886 576.016L34.5374 578.582C45.9058 580.466 59.5999 582.949 71.3525 585.04C71.3388 584.999 83.9216 587.337 83.5579 587.255C89.3965 587.42 101.142 587.832 106.974 588.059L106.713 588.114L115.337 584.228L115.09 584.448L119.351 577.543L119.275 577.777L119.762 572.75L119.845 573.087L116.058 567.254L116.263 567.426L106.94 563.369L107.358 563.286L103.832 566.766L103.914 566.642L100.216 576.374C100.271 576.01 100.031 588.19 100.058 588.107H99.9896C99.9896 588.094 99.9758 576.298 99.9896 576.292L103.55 566.512C103.55 566.491 107.049 563.004 107.056 562.983L107.077 562.963L107.104 562.977C107.104 562.977 116.476 566.938 116.483 566.972C116.49 566.986 120.325 572.77 120.332 572.791C120.332 572.805 119.859 577.818 119.859 577.839C119.872 577.887 115.605 584.751 115.605 584.792C115.536 584.799 107.008 588.726 106.946 588.72L83.5305 587.908C83.5167 587.908 34.4139 578.843 34.4001 578.843C34.3864 578.843 29.8926 576.209 29.8788 576.202C29.8171 576.195 30.2288 566.12 30.2082 566.085H30.2768V566.092Z" fill="var(--fill-0, #4D4D4D)"/>
      <path id="f09_e31_Vector_2" d="M82.1995 554.957C90.6795 556.862 99.0977 559.586 107.097 562.983L107.077 563.052C100.923 561.03 88.1547 557.124 82.1995 554.957Z" fill="var(--fill-0, #4D4D4D)"/>
      <path id="f09_e31_Vector_3" d="M76.1414 561.099C82.2887 562.729 88.8682 565.067 94.8234 567.358H94.4598C95.3517 567.055 97.1561 566.498 98.0617 566.243L97.849 566.402C98.6723 565.397 99.4613 564.366 100.312 563.382C101.032 562.756 101.739 562.124 102.48 561.518L102.528 561.567C102.528 561.567 100.504 563.602 100.525 563.582C100.518 563.595 98.2401 566.69 98.2332 566.704C98.2332 566.718 94.6587 567.921 94.6519 567.928C94.6313 567.894 75.9836 561.23 76.1414 561.092V561.099Z" fill="var(--fill-0, #4D4D4D)"/>
      <path id="f09_e31_Vector_4" d="M29.9269 573.905L27.6148 576.175L27.6423 576.106L27.7315 580.762L27.6697 580.625L32.5272 584.717C31.5941 584.442 44.7394 586.938 44.4444 586.856C56.0323 588.981 68.9993 591.484 80.5666 593.719C87.4755 593.637 100.71 593.334 107.31 593.389L116.908 589.442L116.785 589.524C118.466 587.88 120.133 586.223 121.828 584.593L121.745 584.765L123.282 574.538L123.33 574.641L120.037 572.468L120.071 572.413C120.071 572.413 123.412 574.524 123.426 574.538C123.433 574.558 122.075 584.792 122.081 584.813C122.102 584.847 117.094 589.806 117.094 589.834C117.094 589.847 107.53 593.885 107.523 593.898C107.523 593.919 80.45 594.387 80.4363 594.387C80.4225 594.4 32.3145 584.978 32.3076 584.978C32.3076 584.951 27.4982 580.803 27.5188 580.762C27.5325 580.735 27.4982 576.099 27.5325 576.078L29.8857 573.857L29.9338 573.905H29.9269Z" fill="var(--fill-0, #4D4D4D)"/>
      <path id="f09_e31_Vector_5" d="M79.2768 562.261C80.0589 560.817 81.1429 559.655 82.3367 558.568L82.2201 558.726C82.8376 557.633 83.5236 556.601 84.443 555.714L84.5047 555.748C84.5047 555.755 82.817 559.042 82.8101 559.049C81.8153 560.012 80.3539 561.353 79.3317 562.316L79.2836 562.268L79.2768 562.261Z" fill="var(--fill-0, #4D4D4D)"/>
      <path id="f09_e31_Vector_6" d="M81.8564 563.203C82.5974 561.594 83.7157 560.294 84.9369 559.063L84.8066 559.283C85.2114 558.245 85.6711 557.241 86.3434 556.333L86.412 556.353L85.4378 559.483C84.292 560.762 83.0845 561.993 81.9113 563.245L81.8633 563.197L81.8564 563.203Z" fill="var(--fill-0, #4D4D4D)"/>
      <path id="f09_e31_Vector_7" d="M86.3434 564.854C86.5698 563.162 87.2213 561.642 87.9963 560.157L87.9346 560.418C87.9894 559.297 88.1197 558.169 88.4969 557.048H88.5655L88.5929 560.418C87.9002 561.924 87.1253 563.396 86.4051 564.889L86.3434 564.861V564.854Z" fill="var(--fill-0, #4D4D4D)"/>
      <path id="f09_e31_Vector_8" d="M88.5046 565.638C88.8406 563.884 89.6088 562.351 90.5072 560.844L90.4317 561.133C90.5003 560.019 90.6306 558.919 90.9873 557.846H91.0559L91.0833 561.133C90.2877 562.667 89.3962 564.159 88.5663 565.673L88.5046 565.638Z" fill="var(--fill-0, #4D4D4D)"/>
      <path id="f09_e31_Vector_9" d="M91.9899 566.904C92.5317 565.659 93.3204 564.552 94.1777 563.527L94.0268 563.926C93.9993 562.261 94.1022 560.624 94.596 559.015H94.6646L94.6921 563.926C94.6921 563.926 94.692 563.953 94.6783 563.967L92.0379 566.952L91.983 566.904H91.9899Z" fill="var(--fill-0, #4D4D4D)"/>
      <path id="f09_e31_Vector_10" d="M97.0875 559.785C97.5815 561.381 97.6981 563.059 97.6501 564.723C96.7787 565.9 95.8526 567.007 94.6656 567.901L94.6107 567.86L96.9983 564.469L96.9846 564.51L97.0189 559.792H97.0875V559.785Z" fill="var(--fill-0, #4D4D4D)"/>
      <path id="f09_e31_Vector_11" d="M78.721 512.728C78.7828 512.605 71.38 532.591 71.524 531.855C74.728 538.341 79.3728 547.619 82.4945 554.049L82.5631 554.187L82.5082 554.331L81.4379 557.165L81.4036 557.247L81.335 557.309L71.133 566.243L71.0575 566.312C70.982 566.36 52.4853 570.054 52.3892 570.095L52.3137 570.109L52.2314 570.095L27.457 566.161L27.0179 566.092L27.0316 565.638C28.4175 523.361 31.2716 457.081 33.0142 414.344C33.0142 414.378 39.7516 393.58 39.7104 393.738C39.779 393.738 41.6109 376.152 41.7961 376.31L39.9162 393.766L33.371 414.454C33.3367 414.385 27.6766 565.906 27.5531 565.597C27.5393 565.597 52.3892 569.613 52.3 569.607L70.8723 565.9C70.7693 565.968 81.1017 556.993 81.0812 557.007C81.0194 557.131 82.1858 554.042 82.1446 554.228C82.1446 554.228 71.3114 531.958 71.3114 531.951C71.38 531.958 78.5838 512.556 78.721 512.735V512.728Z" fill="var(--fill-0, #4D4D4D)"/>
      <path id="f09_e31_Vector_12" d="M77.1156 516.759L79.4277 513.939L79.4071 513.98C82.2406 496.875 85.4927 478.361 88.5869 461.373C91.64 444.653 95.1802 424.976 98.3636 409.068L95.5164 396.496L95.4958 396.414C95.5163 396.345 98.6312 384.584 98.6518 384.508C98.6723 384.784 97.4237 376.565 97.4305 376.592L97.4991 376.578L98.8507 384.536L95.8937 396.427C95.8868 396.324 98.8576 408.972 98.8576 408.952C98.8644 408.958 79.5306 514.008 79.5238 514.021L77.1637 516.8L77.1088 516.759H77.1156Z" fill="var(--fill-0, #4D4D4D)"/>
      <path id="f09_e31_Vector_13" d="M112.84 295.415C111.097 315.588 108.655 336.578 106.151 356.723C104.792 360.877 101.595 370.54 100.182 374.55L98.144 380.444C97.9176 380.533 105.636 356.654 105.574 356.647C105.629 356.695 112.662 295.25 112.84 295.415Z" fill="var(--fill-0, #4D4D4D)"/>
      <path id="f09_e31_Vector_14" d="M36.1497 300.202C38.0158 306.612 39.8065 313.043 41.4874 319.508L41.508 319.604L41.4943 319.707L41.0689 323.401C41.0689 323.401 41.0552 323.497 41.0414 323.524C39.7722 327.142 37.9884 332.225 36.6642 335.767L36.6917 335.498C37.762 344.212 38.7705 353.676 39.5046 362.424L39.436 362.431C39.436 362.418 36.033 335.567 36.0536 335.553C36.0536 335.553 40.4651 323.277 40.4514 323.332L40.9042 319.645C40.9728 319.735 35.9301 300.099 36.1497 300.216V300.202Z" fill="var(--fill-0, #4D4D4D)"/>
      <path id="f09_e31_Vector_15" d="M42.2489 339.879C41.6863 348.401 40.6915 357.294 39.6761 365.767C39.6555 365.1 40.4171 374.522 40.4102 374.371L40.2593 374.041C41.6383 375.458 43.5662 377.514 44.9452 378.965C46.5987 381.187 48.1972 383.456 49.7752 385.733L49.7204 385.774L44.6433 379.261C44.6433 379.261 39.8065 374.446 39.827 374.426L39.0106 365.705C39.0724 365.705 42.0774 339.735 42.2489 339.886V339.879Z" fill="var(--fill-0, #4D4D4D)"/>
      <path id="f09_e31_Vector_16" d="M86.9266 473.636C89.4033 474.447 93.76 475.74 95.7633 476.456L100.339 476.366H100.381L100.436 476.38L105.259 477.37L110.068 478.416L110.219 478.45L110.336 478.567L113.272 481.47L113.403 481.6L113.437 481.786L114.5 488.12L114.548 488.388L114.377 488.602L110.219 493.794L110.082 493.966C106.693 494.571 103.31 495.259 99.9073 495.809C95.7084 495.768 86.9403 495.913 82.8787 495.624C82.8787 495.624 99.9279 495.273 99.8867 495.273L109.753 493.375C109.574 493.567 113.979 487.955 113.821 488.23C113.821 488.258 112.764 481.752 112.812 481.923C112.819 481.944 109.814 478.918 109.931 479.014C109.931 479.021 100.298 476.834 100.346 476.848H95.7702C95.7565 476.848 86.9266 473.712 86.9129 473.712L86.9335 473.65L86.9266 473.636Z" fill="var(--fill-0, #4D4D4D)"/>
      <path id="f09_e31_Vector_17" d="M82.1103 499.73C87.7567 499.173 94.7136 498.781 99.921 498.622C103.77 497.598 108.188 496.559 112.051 495.644L111.742 495.871C112.819 494.235 114.342 491.917 115.426 490.321L115.392 490.534L114.98 487.99L115.029 488.072C114.535 487.563 114.061 487.047 113.581 486.525L113.629 486.477L115.166 487.928H115.173V487.948C115.173 487.962 115.715 490.465 115.721 490.479C115.728 490.479 112.216 496.153 112.222 496.167C112.229 496.222 100.099 499.228 100.079 499.262C100.079 499.193 81.9799 499.936 82.1103 499.737V499.73Z" fill="var(--fill-0, #4D4D4D)"/>
      <path id="f09_e31_Vector_18" d="M100.367 476.813C99.7152 478.209 98.59 480.142 97.801 481.483L97.8765 481.304C97.801 481.827 97.6775 482.343 97.5883 482.866C97.3139 484.317 96.9708 486.091 96.6003 487.522L96.6141 487.35L96.7513 489.344C96.7719 491.215 97.0257 493.664 96.7307 495.376C96.7307 495.355 95.976 487.398 95.9829 487.384C95.9966 487.357 97.3276 481.188 97.3482 481.16L100.326 476.765L100.381 476.806L100.367 476.813Z" fill="var(--fill-0, #4D4D4D)"/>
      <path id="f09_e31_Vector_19" d="M95.7908 476.813C95.2762 478.698 94.5078 480.5 93.6708 482.254C92.3878 482.267 91.1048 482.295 89.8287 482.212C89.4651 481.999 89.0878 481.813 88.731 481.58C87.7636 480.981 86.6933 480.328 85.8083 479.606L85.8357 479.544L90.014 481.6C90.8784 481.614 92.4976 481.518 93.2317 481.621L95.7222 476.779L95.7839 476.813H95.7908Z" fill="var(--fill-0, #4D4D4D)"/>
      <path id="f09_e31_Vector_20" d="M87.9488 480.63C88.1134 479.482 88.6347 478.443 89.2588 477.487L89.1902 477.646C89.5057 476.683 89.8966 475.768 90.5687 474.97L90.6373 474.991L89.8417 477.838C89.2451 478.787 88.621 479.729 88.0106 480.672L87.9557 480.637L87.9488 480.63Z" fill="var(--fill-0, #4D4D4D)"/>
      <path id="f09_e31_Vector_21" d="M86.0141 478.388C86.2336 477.075 86.9952 476.002 87.9626 475.142C88.285 474.867 88.6418 474.613 89.0878 474.434L89.1426 474.475C88.4017 475.479 86.858 477.467 86.069 478.43L86.0141 478.388Z" fill="var(--fill-0, #4D4D4D)"/>
      <path id="f09_e31_Vector_22" d="M23.4091 182.223C23.4434 189.458 23.5875 207.32 23.6355 214.273C24.006 221.027 25.5291 260.009 25.8653 267.65C25.6457 267.196 34.6403 298.827 34.5374 298.744L34.3041 298.442L55.4217 310.533L55.161 310.457L77.4175 311.124C75.9287 311.681 118.274 292.389 117.341 292.857L131.838 280.347L131.687 280.787C130.534 274.177 124.469 243.744 123.659 237.74C122.973 232.265 121.107 217.162 120.462 211.701C120.449 211.673 117.231 201.618 117.224 201.591L116.586 196.054C116.613 196.123 112.922 180.318 112.929 180.325L112.998 180.311L116.771 196.033L117.444 201.563L120.744 211.611C121.485 217.43 123.344 232.059 124.064 237.671C124.318 240.147 125.141 243.813 125.587 246.288C125.567 246.344 132.256 280.711 132.181 280.739L117.718 293.29C117.718 293.311 77.445 311.791 77.4312 311.805C77.3901 311.826 55.1816 311.083 55.1336 311.09C55.1198 311.09 34.0503 298.937 34.0365 298.937C33.9679 298.923 25.4331 267.719 25.3987 267.678C25.09 259.824 23.6287 221.288 23.3542 214.287C23.3954 207.409 23.2307 189.156 23.4228 182.23L23.4091 182.223Z" fill="var(--fill-0, #4D4D4D)"/>
      <path id="f09_e31_Vector_23" d="M31.7724 203.372C27.2992 193.324 21.9135 181.061 17.5637 170.965C17.5431 170.923 12.9052 160.125 12.8915 160.084C12.8709 160.084 10.353 149.176 10.3324 149.162C10.0785 139.417 9.8247 125.441 9.75609 115.558C11.6017 110.551 15.3545 100.448 17.2481 95.4617L17.3236 95.2623L17.5157 95.2072L25.0763 93.027L25.1449 93.0064H25.2066L44.2934 95.5649C44.4307 95.7368 25.1518 93.3571 25.1586 93.3915C25.241 93.3778 17.6254 95.6474 17.6392 95.6405C17.7627 95.4067 10.2706 115.909 10.3255 115.744C10.3255 115.744 10.9567 149.066 10.9567 149.011L13.4609 159.898C13.3855 159.857 31.9988 203.441 31.7656 203.372H31.7724Z" fill="var(--fill-0, #4D4D4D)"/>
      <path id="f09_e31_Vector_24" d="M116.085 180.855L117.821 189.452C119.783 192.608 122.987 198.31 125.052 201.818C125.361 205.291 125.402 208.84 125.574 212.34L125.985 222.657C126.706 226.811 127.522 231.811 128.222 236.254C130.328 249.954 133.278 263.503 135.549 277.183L135.584 277.382L135.398 277.334L131.275 276.309L131.289 276.241L135.433 277.169C135.33 277.417 130.026 249.975 129.985 250.016C128.373 242.176 126.712 230.69 125.34 222.684C125.34 222.671 124.613 202.045 124.613 202.031C124.647 202.093 117.553 189.5 117.56 189.486L116.016 180.848L116.085 180.834V180.855Z" fill="var(--fill-0, #4D4D4D)"/>
      <path id="f09_e31_Vector_25" d="M44.7874 93.4672C46.1665 93.2402 47.4906 93.6116 48.6913 94.2444C49.0823 94.4576 49.4665 94.7189 49.8096 95.0834L49.789 95.1522C48.5266 94.7808 46.0086 93.9693 44.7668 93.536L44.7874 93.4672Z" fill="var(--fill-0, #4D4D4D)"/>
      <path id="f09_e31_Vector_26" d="M32.4654 89.884C33.1652 89.5401 33.8787 89.4713 34.6128 89.5882C35.3332 89.8152 36.0262 90.1866 36.4996 90.8056L36.479 90.8743C36.479 90.8743 34.3659 90.2347 34.4208 90.2485L32.4654 89.9596V89.8908H32.4723L32.4654 89.884Z" fill="var(--fill-0, #4D4D4D)"/>
      <path id="f09_e31_Vector_27" d="M21.3303 88.4259C22.1121 87.7656 23.2163 87.9513 23.7444 88.8248L23.7307 88.8936C23.1203 88.8248 21.9132 88.6253 21.3166 88.4946L21.3303 88.4259Z" fill="var(--fill-0, #4D4D4D)"/>
      <path id="f09_e31_Vector_28" d="M17.598 95.5924C17.7078 93.6666 18.4281 91.8853 19.3749 90.2347C19.6974 89.6914 20.061 89.1687 20.5207 88.6872L20.5824 88.7147C19.8826 90.4479 18.4145 93.9142 17.6529 95.6268L17.5911 95.5993L17.598 95.5924Z" fill="var(--fill-0, #4D4D4D)"/>
      <path id="f09_e31_Vector_29" d="M27.0797 141.232C37.611 147.347 53.4389 156.755 63.7713 162.89C63.3391 162.753 102.315 176.474 102.027 176.391L114.356 179.747C114.198 179.692 127.021 183.949 126.349 183.757C129.676 184.032 136.393 184.692 139.721 185.009L139.24 185.181L151.391 173.076L151.288 173.227L153.456 168.736L153.408 169.025C153.552 169.541 150.032 141.872 150.485 143.461C150.43 143.399 132.846 126.136 132.819 126.067L128.537 119.307L128.654 119.417C128.695 119.444 121.958 115.483 122.184 115.606L113.691 112.649H113.828C113.876 112.621 104.833 116.776 105.087 116.604L104.079 119.114V119.073L104.854 121.81L104.785 121.831L103.983 119.1V119.086V119.073L104.971 116.555C104.998 116.494 113.725 112.456 113.766 112.443C113.773 112.443 122.294 115.317 122.301 115.324C122.308 115.324 128.853 119.1 128.86 119.107C128.86 119.121 133.196 125.875 133.169 125.854C133.182 125.861 150.849 143.124 150.863 143.131C150.835 143.186 154.046 168.942 154.005 168.998L151.851 173.495C151.782 173.523 139.762 185.703 139.673 185.676C139.659 185.676 126.301 184.417 126.287 184.41L114.191 180.339L101.89 176.941C101.89 176.941 63.5792 163.255 63.5724 163.255C63.6067 163.193 26.8738 141.343 27.0934 141.232H27.0797Z" fill="var(--fill-0, #4D4D4D)"/>
      <path id="f09_e31_Vector_30" d="M93.1562 116.425C89.5269 113.082 82.8101 106.796 79.7708 103.742C75.2838 101.597 68.3955 98.3366 63.9977 96.1357L64.1761 96.1907C64.3339 96.1907 55.3256 94.9803 55.9637 95.0216C52.7803 95.3035 45.1991 95.9225 42.0911 96.1082L37.4601 96.4108V96.3421C37.4601 96.3421 55.9088 94.43 55.9157 94.43L64.2585 95.5305C64.2928 95.5305 79.9972 103.199 80.0315 103.206C79.9697 103.254 93.3964 116.377 93.1562 116.418V116.425Z" fill="var(--fill-0, #4D4D4D)"/>
      <path id="f09_e31_Vector_31" d="M60.3546 110.29C67.9839 111.335 76.5119 112.587 84.0656 113.859L91.9487 115.173L92.031 115.187C94.2951 116.232 97.5403 117.814 99.8181 118.921L107.509 122.656C109.506 124.073 111.433 125.586 113.409 127.037L113.437 127.195L113.931 129.816L113.293 129.623L115.577 127.415L115.756 127.243L115.955 127.36L123.447 131.831L123.412 131.893C123.412 131.893 115.619 127.642 115.831 127.663L113.588 129.912L113.526 129.974L113.505 129.891L112.963 127.285L112.984 127.312L107.235 123.179C107.289 123.206 91.7909 115.813 91.8046 115.82C91.9075 115.785 60.1557 110.441 60.3478 110.283L60.3546 110.29Z" fill="var(--fill-0, #4D4D4D)"/>
      <path id="f09_e31_Vector_32" d="M64.2242 95.5924C64.6495 92.3874 65.6512 89.3819 66.9342 86.4451C67.3321 85.5854 67.8878 84.3818 68.3955 83.5909L68.4573 83.6115C67.4487 86.6102 65.3562 92.6281 64.2859 95.6062L64.2242 95.5855V95.5924Z" fill="var(--fill-0, #4D4D4D)"/>
      <path id="f09_e31_Vector_33" d="M78.721 82.6143C78.3849 85.0008 77.7948 87.4493 77.1431 89.7739L77.0813 90.0077L76.8481 90.1246C75.6268 90.7987 73.891 91.6171 72.6149 92.2017C72.0249 92.0504 71.428 91.9404 70.8448 91.7753C69.3011 91.342 67.5997 90.8812 66.104 90.3035L66.1177 90.2347L72.5669 91.5552C72.3817 91.6102 76.6079 89.5401 76.5668 89.5538C76.4501 89.767 78.6868 82.5524 78.6593 82.5937L78.7279 82.6143H78.721Z" fill="var(--fill-0, #4D4D4D)"/>
      <path id="f09_e31_Vector_34" d="M0.0274282 64.0722L1.84554 60.4407C1.84554 60.4407 6.97744 55.929 6.99116 55.9015L6.90883 56.1147L5.99635 50.1037L6.18845 50.365L1.31727 48.0748L1.15946 47.9991L1.10458 47.8271L0.548857 46.0321L0.473377 45.7983L0.651765 45.6194L6.15416 39.9866L6.29823 39.8422H6.51091L8.93278 39.8147L8.61719 39.9178L10.4079 38.563L10.2432 39.2163L8.43193 35.358L8.36332 35.2136L8.38392 35.0485L9.68748 25.9562L9.74235 25.5574L10.1403 25.4748L13.2002 24.8352L12.8983 24.9934C12.8297 25.0553 15.972 21.8847 15.7113 22.1598C18.8947 17.9851 23.5532 12.1253 26.8189 7.92994L26.9699 7.73735L27.21 7.71674L38.0295 6.71947L38.1736 6.7057C42.098 8.56267 49.9056 12.1941 53.8369 14.0235L53.9329 14.0717L53.9878 14.1542C55.3394 16.2313 56.6635 18.322 57.9877 20.4128L57.9739 20.5023L56.2382 31.8985H56.1695L57.6858 20.4679C57.7544 20.5917 53.631 14.3605 53.6516 14.3812C48.554 12.0909 43.2095 9.68371 38.057 7.29717C38.2354 7.29717 27.0591 8.38387 27.3129 8.32198L16.2396 22.5862L13.3649 25.4611L13.3512 25.4748H13.3306L10.2707 26.1076L10.3187 26.0525C10.3187 26.0525 8.96022 35.2479 8.97394 35.1035L10.7646 38.9688L10.7852 39.01L10.7509 39.0375L8.95336 40.3856L8.93965 40.3993H6.4972L6.53149 40.3856L0.967357 45.9564L0.981092 45.9083L1.51624 47.7102L1.48879 47.6827C1.48879 47.6827 6.33252 50.028 6.35311 50.0349C6.35311 50.0555 7.15582 56.0597 7.16268 56.0872V56.1078L7.14896 56.1216C7.14896 56.1216 1.90731 60.5645 1.94847 60.5164L0.0617449 64.1134L0 64.079L0.0274282 64.0722Z" fill="var(--fill-0, #4D4D4D)"/>
      <path id="f09_e31_Vector_35" d="M2.33267 63.3706C2.7649 65.0075 2.95014 67.7173 2.90211 68.9071C3.03933 69.6018 3.18342 70.2896 3.27947 70.9911L2.8335 70.5647C3.99298 70.8467 5.15247 71.1424 6.25706 71.61L6.24333 71.6788L2.73746 71.163C2.69629 71.163 2.69629 71.163 2.68943 71.1218C2.68943 71.1011 2.2229 69.0653 2.22976 69.0378L2.26406 63.3706H2.33267Z" fill="var(--fill-0, #4D4D4D)"/>
      <path id="f09_e31_Vector_36" d="M7.44398 70.8466C7.21071 72.9993 6.80594 75.2414 6.32568 77.3597L6.25707 76.9333L7.93111 79.5056L8.06832 79.7119C8.06832 79.7119 7.47143 82.291 7.45085 82.3873C7.14897 83.811 6.58638 85.8055 6.18159 87.2223C5.91402 88.0132 5.68761 88.8179 5.38573 89.6088L5.31714 89.5951C5.31714 89.5951 7.34794 79.6431 7.35481 79.8632L5.74935 77.2497C5.70133 77.1947 7.38909 70.881 7.38223 70.826L7.45085 70.8397L7.44398 70.8466Z" fill="var(--fill-0, #4D4D4D)"/>
      <path id="f09_e31_Vector_37" d="M17.6597 73.9966C16.8913 75.6404 15.6633 78.5771 15.0458 79.5606C15.0938 81.2662 15.2173 84.1755 15.2173 85.6129L15.8073 90.1934L14.9223 89.7533L17.3167 88.2883L17.4608 88.1989H17.6323L20.6922 88.2333L20.3766 88.3227L25.0763 85.4066L29.8377 82.5868L29.673 82.9238C29.5358 80.9361 29.4329 78.9485 29.3643 76.954L29.4329 76.9471L30.071 82.8825V82.91L30.0504 82.9238C30.0161 82.9306 20.7334 88.9004 20.6922 88.8867H17.6323H17.6666L15.2516 90.3103L15.1693 90.3585L15.1556 90.2622L14.6273 85.6748C14.6273 85.6748 14.641 79.5606 14.6341 79.5537C14.6204 79.5193 17.598 73.9897 17.598 73.9622L17.6597 73.9966Z" fill="var(--fill-0, #4D4D4D)"/>
      <path id="f09_e31_Vector_38" d="M54.5504 31.9811C54.7082 33.6248 54.8248 35.2754 54.8934 36.9261L54.8317 36.7266C56.2725 38.7349 58.2072 41.706 59.5656 43.8106C59.792 44.9798 60.0184 46.6167 60.1968 47.8065L60.0322 47.4901L61.7542 49.2715L61.912 49.4365V49.6566C61.912 51.0596 61.816 52.4627 61.768 53.8657C60.8075 55.4751 59.8058 57.0638 58.7561 58.6182L58.6943 58.5838L61.3289 53.7213C61.3151 53.852 61.3151 49.6153 61.3151 49.6497C61.4386 49.8354 59.5519 47.8959 59.5794 47.9372L59.5656 47.9234V47.9028C59.5656 47.9028 58.907 43.9413 58.9413 44.0582C58.9345 44.0582 54.4612 36.9261 54.4612 36.9192L54.4749 31.9742H54.5435L54.5504 31.9811Z" fill="var(--fill-0, #4D4D4D)"/>
      <path id="f09_e31_Vector_39" d="M47.5249 93.3228C49.3224 93.2334 51.9296 93.2952 53.7545 93.3503L53.3223 93.5291C53.8094 92.8963 54.5572 91.9954 55.0718 91.3627C55.6618 90.6474 56.2313 89.9115 56.8419 89.2099L56.7047 89.5194L57.4457 84.9733L57.5005 85.2897C56.7047 83.5771 55.5932 81.1425 54.9483 79.3955L55.01 79.3612L58.0082 85.0214V85.0352V85.0558C58.0014 85.0833 57.377 89.6157 57.3702 89.6364C57.3702 89.6501 53.7614 93.8799 53.7545 93.9005L53.7339 93.9211H53.7065L47.518 93.3915V93.3228H47.5249Z" fill="var(--fill-0, #4D4D4D)"/>
      <path id="f09_e31_Vector_40" d="M23.2925 87.181C23.8551 88.3915 24.3353 89.6295 24.7813 90.8812L24.452 90.5786C25.7281 90.7161 27.457 91.0325 28.7194 91.2526C29.1928 91.342 29.6662 91.4039 30.1396 91.5071L29.6113 91.6515C30.7296 90.6955 32.2596 89.3131 33.4122 88.4328L33.2613 88.7698C33.3093 87.7931 33.4259 86.4795 33.5357 85.5098C33.9679 85.3997 34.407 85.3034 34.8529 85.2278L34.8735 85.2897L33.7209 85.6955L33.7484 85.6611L33.7621 88.7629V88.7835L33.7484 88.7973C33.7209 88.8179 30.0641 92.1536 30.0435 92.1742C30.0161 92.1742 24.3902 91.0394 24.3628 91.0325H24.3353V91.005L23.2308 87.1879L23.2993 87.1673L23.2925 87.181Z" fill="var(--fill-0, #4D4D4D)"/>
      <path id="f09_e31_Vector_41" d="M36.5476 85.0765C36.383 86.1425 36.1566 87.1948 35.9576 88.2471V88.0889C36.3624 89.2925 36.9112 91.0531 37.3023 92.2842L37.0553 91.9679C37.8374 92.353 38.9558 92.9514 39.7379 93.3572L39.4292 93.2884C40.5338 93.199 42.0843 93.0614 43.1751 92.9858L46.928 92.7863L46.4889 93.0476C47.0241 92.2155 47.5318 91.3764 48.1013 90.5648L48.06 90.9912C47.5798 89.4782 47.0447 87.9857 46.6124 86.452L46.5781 86.3213L46.6399 86.2388C47.127 85.6061 47.6072 84.9733 48.1149 84.3612L48.1698 84.4025L46.8594 86.397V86.3626L48.554 90.8124V90.8331V90.8537L47.0104 93.3778L46.9966 93.4053H46.9692C46.9692 93.4053 39.4634 93.9142 39.4497 93.9142C39.4291 93.9142 36.8015 92.4631 36.7809 92.4631L36.7603 92.4493V92.4287C36.7603 92.4287 35.6008 88.1783 35.6214 88.1508L36.4722 85.049L36.5407 85.0696L36.5476 85.0765Z" fill="var(--fill-0, #4D4D4D)"/>
      <path id="f09_e31_Vector_42" d="M59.7783 55.0487C58.8315 56.2041 57.8436 57.3114 56.8762 58.4394L56.9517 58.1643C57.2741 59.3335 57.6858 61.046 57.9945 62.2427C57.6858 63.3569 57.4868 64.5192 57.1095 65.6059L55.2227 68.5976L55.2845 68.0956L56.3617 71.053L56.0941 70.7297C57.4251 71.4863 58.7286 72.2909 60.0528 73.0681C60.78 74.3748 61.816 76.1768 62.5295 77.4767L62.6187 77.6486L62.5913 77.8068L61.6788 82.9788L61.6239 83.2814C60.828 83.2608 60.0322 83.2057 59.2432 83.1645C58.2072 82.7931 57.1712 82.4286 56.149 82.0297L56.1695 81.9609C56.1695 81.9609 59.3461 82.8963 59.2912 82.8894H61.3426L61.3015 82.9238C61.3015 82.9238 62.0356 77.6142 62.0356 77.7655C62.0424 77.7655 59.5039 73.4395 59.5931 73.5427L55.7579 71.3212L55.7373 71.3074V71.2868C55.7236 71.2524 54.6876 68.3294 54.6807 68.2881L54.6945 68.2606C54.6945 68.2813 56.6429 65.2345 56.6086 65.3101C56.6086 65.3445 57.5006 62.1464 57.4868 62.2633L56.6224 58.2468V58.2262L56.6361 58.2124L59.7372 55.0143L59.7852 55.0624L59.7783 55.0487Z" fill="var(--fill-0, #4D4D4D)"/>
      <path id="f09_e31_Vector_43" d="M40.8082 8.46638C44.8698 6.54064 50.379 3.8171 54.42 2.02891C56.5194 1.51309 60.7251 0.502053 62.8314 0.0274955L62.9411 0L63.0578 0.0206531L73.3627 1.98077L73.4519 2.00142C76.9852 3.94091 81.9799 6.79513 85.5544 8.78965L85.671 8.85153L85.7397 8.96159C88.4154 13.0056 91.1666 17.2835 93.7805 21.3688C93.7874 21.4101 95.0018 29.3813 95.0155 29.4294L94.9469 29.4432L93.4581 21.4858C93.513 21.5752 85.1702 9.20228 85.2594 9.3192C85.2594 9.3192 73.1432 2.62037 73.2255 2.65476L62.9343 0.619005C63.0304 0.591494 54.5092 2.51034 54.5229 2.49659C54.5778 2.43469 40.719 8.68646 40.8013 8.46638H40.8082Z" fill="var(--fill-0, #4D4D4D)"/>
      <path id="f09_e31_Vector_44" d="M54.7493 34.6633L64.6632 35.7569C68.9718 35.1791 76.0179 34.4501 80.6078 33.9206C83.7981 32.7857 91.9075 30.0966 95.4889 28.9068L95.9417 28.7554L96.1613 29.1887L100.23 37.3387L100.127 37.1943C100.01 37.1599 107.283 44.5396 106.946 44.2714C107.18 44.464 111.626 48.0335 111.756 48.1435C111.392 48.5012 110.445 49.4503 110.068 49.8217L109.938 49.8629L105.862 51.1628C100.154 50.4888 94.0413 49.4778 88.5046 48.6662C81.2733 48.3017 66.7078 47.4764 59.4833 47.0087C59.3392 46.8162 88.5389 48.2054 88.5321 48.1435L105.691 50.5645C105.533 50.6057 109.869 49.1958 109.711 49.2646L110.823 48.1504V48.2467L106.521 44.8079C106.507 44.7941 99.6603 37.6551 99.6465 37.6413C99.7152 37.6688 95.4134 29.2713 95.681 29.4982C95.6742 29.4982 80.6695 34.4226 80.6627 34.4157C80.6558 34.4157 64.6427 36.0251 64.6358 36.0251L54.7425 34.739V34.6702H54.7493V34.6633Z" fill="var(--fill-0, #4D4D4D)"/>
      <path id="f09_e31_Vector_45" d="M82.0074 55.255C81.8839 54.0102 81.829 52.7653 81.7398 51.5205L81.9319 51.8024C81.1224 51.5548 80.3196 51.2729 79.5169 51.0046L79.8531 50.984C78.0007 52.0913 75.2632 53.6044 73.3422 54.6498L73.6303 54.2921C73.3765 55.1931 73.1432 56.1009 72.8688 56.995L72.0455 59.6842L72.0661 59.4641C72.2513 61.2936 72.5257 64.98 72.6149 66.8163L72.4983 66.5756C73.2461 67.3046 73.9665 68.0681 74.6869 68.8246L74.5497 68.7696C75.2907 68.8108 76.0316 68.8658 76.7726 68.9346V69.0034C76.7726 69.0034 74.5497 69.0034 74.536 69.0034C74.5222 69.0034 72.2307 66.8782 72.217 66.8782L72.2033 66.8645V66.8438C72.2033 66.8438 71.428 59.5123 71.4417 59.4916L73.0129 54.0927C73.006 54.0033 79.6198 50.6195 79.6473 50.5576L79.6678 50.5507H79.6884L82.0623 51.4654L82.0897 51.4792V51.5067L82.0829 55.2412H82.0143L82.0074 55.255Z" fill="var(--fill-0, #4D4D4D)"/>
      <path id="f09_e31_Vector_46" d="M78.1036 53.625C77.4655 54.1959 76.8618 54.7185 76.2649 55.2275L76.3541 55.1106C75.9424 56.6305 75.2083 58.8933 74.7349 60.427V60.0625L75.9013 63.0611L75.3593 62.6829L77.8291 62.6416L77.2254 63.1368L77.8223 60.4476L77.8909 60.8603C77.74 60.6058 76.1757 57.896 76.0865 57.7378C77.445 56.6787 79.1945 55.2344 80.5186 54.1683L80.6215 54.6154C79.8119 54.3059 78.9749 53.9895 78.0967 53.6319L78.1036 53.625ZM78.0899 53.5562L80.7107 54.3128L80.7793 54.3334C79.6541 55.3994 77.9938 56.8712 76.8069 57.9029L76.8206 57.8341C76.8412 57.8685 78.4398 60.5233 78.4535 60.5508C78.4535 60.5852 77.8978 63.2399 77.8909 63.2743L77.8772 63.3294H75.3524H75.3112L75.2975 63.2881L74.186 60.2688V60.2482V60.2275C74.186 60.2138 76.0865 55.0143 76.0865 55.0005C76.0934 54.9868 78.0761 53.5631 78.0899 53.5562Z" fill="var(--fill-0, #4D4D4D)"/>
      <path id="f09_e31_Vector_47" d="M60.2312 55.8258C63.3323 54.9042 66.4813 54.6016 69.6785 54.5741C70.6253 54.5879 71.9494 54.6085 72.8756 54.7529V54.8217C69.7265 55.1243 63.3803 55.6608 60.2312 55.9015V55.8327V55.8258Z" fill="var(--fill-0, #4D4D4D)"/>
      <path id="f09_e31_Vector_48" d="M82.0417 53.1023C85.1359 52.4352 88.9162 52.1807 91.7635 52.1463C92.5868 52.0294 93.7531 51.8712 94.5696 51.8093L94.2745 52.0088C94.9469 51.0734 95.6467 50.1587 96.422 49.2921L96.4768 49.3265L94.6793 52.2563L94.6656 52.277H94.645C94.645 52.277 91.8664 52.7859 91.8595 52.7859C88.6281 52.8685 85.1359 53.178 82.028 53.0954L82.0417 53.1023Z" fill="var(--fill-0, #4D4D4D)"/>
      <path id="f09_e31_Vector_49" d="M91.0774 69.2235C91.3861 68.412 92.0105 66.837 92.2369 66.4243L92.5799 63.9896L92.6485 64.3748C91.6606 62.9374 90.6177 61.4449 89.6847 59.9662V59.8011L89.7258 57.6415V57.3252C91.2421 56.3348 92.8063 55.4201 94.3774 54.526L94.2471 54.8423C94.1922 54.0101 94.103 53.1848 94.0893 52.3458L94.1579 52.332L94.597 54.7805V54.808C94.597 54.808 90.3433 57.6828 90.3296 57.6897L90.357 57.6415V59.8011V59.7668L93.1288 64.0653L93.1425 64.0859V64.1065C93.1425 64.1065 92.6417 66.5206 92.6348 66.5206L91.146 69.2579L91.0843 69.2235H91.0774Z" fill="var(--fill-0, #4D4D4D)"/>
      <path id="f09_e31_Vector_50" d="M74.2547 72.6417L73.2599 74.8219C73.3765 77.3597 73.4725 80.4891 73.5206 83.2264L73.1158 82.8687L82.0897 81.6927C82.0143 81.672 91.4479 80.5922 90.9814 80.6473C92.8201 80.0971 95.434 79.3199 97.2521 78.7972L96.8131 79.3886L96.8748 68.9828L97.259 69.5055L95.5575 68.9484L95.8251 68.9622C88.6555 70.2964 81.4997 71.4725 74.2547 72.6417ZM74.2135 72.5866C74.2135 72.5866 95.729 68.3638 95.7427 68.3775L97.4511 68.9209L97.4923 68.9346C97.4923 68.9346 97.4854 79.3542 97.4991 79.3818V79.4299L97.4511 79.4437L91.1666 81.2594C91.1666 81.2594 73.1707 83.2608 73.1638 83.2676H73.1158V83.2195C73.1158 83.2195 73.1158 74.76 73.1295 74.7462L74.2203 72.5798L74.2135 72.5866Z" fill="var(--fill-0, #4D4D4D)"/>
      <path id="f09_e31_Vector_51" d="M84.8203 70.5371C86.9677 72.8549 88.5869 75.489 89.9728 78.2882C90.3639 79.1273 90.9127 80.3034 91.1803 81.1769L91.1185 81.2112C89.5062 78.5771 86.316 73.2332 84.7586 70.5647L84.8203 70.5302V70.5371Z" fill="var(--fill-0, #4D4D4D)"/>
      <path id="f09_e31_Vector_52" d="M72.2101 99.492C71.922 97.3668 71.8122 94.5332 71.6887 92.3805L72.3473 92.4974C74.7761 92.9101 78.1104 93.4878 80.4843 94.038C80.4843 95.3448 80.4431 97.5663 80.3608 98.8799C80.3059 100.345 80.1961 101.81 80.0383 103.268H79.9697L79.8531 94.4989C80.1618 94.6914 72.1827 93.0133 72.2376 93.0683L72.2993 93.0133L72.2788 99.4989H72.2101V99.492Z" fill="var(--fill-0, #4D4D4D)"/>
      <path id="f09_e31_Vector_53" d="M81.7604 105.049C81.2802 101.115 81.1772 96.961 81.1978 93.0064L81.6849 93.5979C80.5392 93.3503 77.9252 92.8069 76.8343 92.5043L75.2289 92.0917L75.421 92.0779C74.289 92.4149 73.1432 92.7107 71.9906 92.9789L71.97 92.917L75.2838 91.6997C75.2838 91.6997 81.8016 92.9651 81.8153 92.9514H81.8702C81.8839 92.9995 81.829 105.015 81.8359 105.056H81.7672L81.7604 105.049Z" fill="var(--fill-0, #4D4D4D)"/>
      <path id="f09_e31_Vector_54" d="M79.3522 82.5317C80.1752 84.9389 80.3672 87.463 80.3192 89.9871C80.2918 90.8262 80.2232 91.6653 80.0381 92.5112H79.9695C79.7637 90.0284 79.4208 85.0283 79.2836 82.5386H79.3522V82.5317Z" fill="var(--fill-0, #4D4D4D)"/>
      <path id="f09_e31_Vector_55" d="M84.8272 82.126C85.7805 86.8716 85.8971 91.7547 85.2592 96.5346H85.1907C85.0535 92.9445 84.834 85.723 84.7586 82.126H84.8272Z" fill="var(--fill-0, #4D4D4D)"/>
      <path id="f09_e31_Vector_56" d="M86.954 81.4932C87.7016 84.7188 87.8387 87.9582 87.6947 91.232C87.633 92.1948 87.5438 93.5566 87.3449 94.492H87.2764C87.1461 91.2526 86.9472 84.7326 86.8854 81.4932H86.954Z" fill="var(--fill-0, #4D4D4D)"/>
      <path id="f09_e31_Vector_57" d="M88.9293 81.5001C89.135 83.7628 88.7098 85.9912 88.0446 88.137C87.8114 88.8454 87.5439 89.5469 87.1599 90.2278L87.0912 90.2141C87.5027 88.0338 88.3875 83.6528 88.8676 81.4863L88.9361 81.5001H88.9293Z" fill="var(--fill-0, #4D4D4D)"/>
      <path id="f09_e31_Vector_58" d="M93.2111 80.6266C92.5594 84.1755 91.3724 88.1921 90.3296 91.6515L89.8081 93.1921L89.7532 93.3572L89.6366 93.4535C88.5183 94.3888 86.9609 95.7368 85.8083 96.6034C84.5047 97.6282 83.1943 98.6323 81.8153 99.5608L81.7672 99.5058L89.2044 92.9651C89.1769 93.1371 93.1014 80.4065 93.2111 80.6266Z" fill="var(--fill-0, #4D4D4D)"/>
      <path id="f09_e31_Vector_59" d="M88.1958 111.473C88.3811 109.891 88.8339 107.608 89.1564 106.019C88.8957 103.412 88.8751 99.1825 88.8819 96.0738V95.9363L88.93 95.8331C90.014 93.7148 91.1391 91.6103 92.4015 89.5951L92.4633 89.6226C92.4633 89.6226 89.4445 96.1632 89.472 96.0601C89.5543 99.4232 89.616 102.786 89.6641 106.15L88.2645 111.487L88.1958 111.466V111.473Z" fill="var(--fill-0, #4D4D4D)"/>
      <path id="f09_e31_Vector_60" d="M100.717 114.554C100.717 114.554 98.1715 112.147 98.2744 112.229L94.8165 110.015L94.693 109.939C94.645 108.749 94.6176 106.982 94.6038 106.067L93.7668 102.154C93.4924 100.847 93.2042 99.5471 92.9435 98.2403L93.3414 98.6598L90.1512 97.9377L89.9385 97.8895L89.815 97.7038L88.9368 96.3764L88.6555 95.95L89.0603 95.6268C89.1701 95.5236 90.6109 94.4026 90.6795 94.3338L90.9059 94.3544C93.7051 94.5745 96.5043 94.7533 99.2967 95.0078L98.7203 95.3104L101.032 91.3351L101.231 90.9981L101.609 91.0532C101.773 91.0807 104.271 91.4314 104.367 91.4452L104.497 91.6997C105.691 94.0862 107.399 97.4218 108.524 99.8015L108.374 99.6364L111.365 101.741C112.408 102.484 113.471 103.206 114.5 103.976L114.466 104.148L113.135 111.438H113.066L114.137 104.1L114.157 104.141C114.157 104.141 108.085 100.063 108.079 100.035C108.065 100.077 103.845 91.8234 103.989 92.0229L101.52 91.6859L101.581 91.6584L99.2967 95.6543C99.2692 95.7024 99.2761 95.6887 99.2349 95.6887C99.2829 95.7093 90.6658 94.994 90.8922 94.9871L89.4377 96.1289L89.4514 96.0463L90.3227 97.3806L90.2884 97.3531L93.4718 98.0959H93.5061C93.5061 98.0959 95.0292 105.964 95.0155 105.991C95.0155 105.998 95.0155 109.767 95.0155 109.781L94.9949 109.747C94.9949 109.747 98.3704 112.085 98.3773 112.092L100.751 114.52L100.703 114.568L100.717 114.554Z" fill="var(--fill-0, #4D4D4D)"/>
      <path id="f09_e31_Vector_61" d="M104.079 119.465C102.617 118.206 101.204 116.803 99.8387 115.441C100.319 114.293 101.032 112.8 101.574 111.665C101.595 111.604 101.636 111.562 101.684 111.514C102.782 110.359 104.284 108.832 105.43 107.752L105.636 107.738L108.243 107.601H108.415C109.753 108.419 111.09 109.245 112.401 110.111C112.861 110.888 113.341 111.652 113.773 112.45L113.718 112.491L112.154 110.338C112.236 110.386 108.236 108.172 108.257 108.178C108.415 108.185 105.65 108.371 105.684 108.371C105.876 108.234 102.041 112.037 102.144 111.934L100.429 115.345C100.312 115.104 104.154 119.451 104.134 119.403L104.086 119.451L104.079 119.465Z" fill="var(--fill-0, #4D4D4D)"/>
      <path id="f09_e31_Vector_62" d="M100.367 67.8824C105.554 65.6678 111.029 63.4463 116.366 61.5962C116.483 61.5962 118.342 61.5756 118.39 61.5756L118.569 61.7544C118.699 61.885 119.749 62.9167 119.852 63.0199C119.804 63.7145 119.749 64.4092 119.673 65.0969L119.639 65.4683L119.31 65.6059C114.946 67.4216 109.595 69.5949 105.17 71.2593C103.578 71.837 101.993 72.4422 100.388 72.9856L100.36 72.9237C100.36 72.9237 119.22 64.8424 119.008 65.035L119.159 63.2468L119.179 63.3018L118.102 62.2221C118.349 62.2702 116.305 62.222 116.36 62.2358C116.442 62.1533 100.271 68.1093 100.36 67.8824H100.367Z" fill="var(--fill-0, #4D4D4D)"/>
      <path id="f09_e31_Vector_63" d="M91.8527 95.0009C91.6949 94.3613 91.64 93.7148 91.5096 93.0752C93.6914 92.7657 95.8868 92.6969 98.0892 92.7588L97.6707 92.9307C98.3087 92.3324 99.0497 91.6997 99.7357 91.1495C100.065 90.8743 100.429 90.5855 100.792 90.3516C100.978 90.895 101.197 91.4177 101.355 91.9679L101.293 92.0023L100.614 90.8056H100.683L98.1303 93.3984C98.1166 93.419 98.1098 93.4191 98.0892 93.4191C96.1064 93.3916 93.7188 93.4878 91.9281 93.3572L91.9213 95.0009H91.8527Z" fill="var(--fill-0, #4D4D4D)"/>
      <path id="f09_e31_Vector_64" d="M95.7428 83.9623C99.0428 81.9059 104.051 78.9141 107.489 77.009C109.931 76.4932 113.622 75.7917 116.106 75.2896L116.346 75.2415L116.559 75.3859C117.992 76.3625 119.433 77.3804 120.84 78.4052L120.099 78.8797C117.361 80.606 113.204 83.3089 110.459 84.9596L105.595 87.9307C103.955 88.8936 102.329 89.8771 100.669 90.8124L100.635 90.7574L119.735 78.3226V78.4327L116.181 75.9292L116.229 75.9429L107.598 77.5661C107.653 77.4904 95.6879 84.1893 95.7428 83.9623Z" fill="var(--fill-0, #4D4D4D)"/>
      <path id="f09_e31_Vector_65" d="M103.152 74.6912C107.29 72.1671 111.797 69.8631 116.167 67.7929C116.387 67.8548 118.445 68.405 118.672 68.4669C119.509 69.3404 120.366 70.1932 121.176 71.0942V71.2799L121.032 74.2098L121.018 74.4367C119.673 75.1383 118.301 75.7779 116.915 76.3969L116.881 76.335C116.86 76.3556 120.764 74.0585 120.62 74.2029C120.634 74.2235 120.586 71.1355 120.627 71.3143C120.627 71.3349 118.239 68.9346 118.356 69.0309L116.202 68.4945C116.394 68.3844 103.063 74.9251 103.159 74.6912H103.152Z" fill="var(--fill-0, #4D4D4D)"/>
      <path id="f09_e31_Vector_66" d="M107.571 77.5455C104.998 76.4175 102.466 74.932 100.065 73.467L99.7975 73.3088C99.7357 72.2428 99.7975 71.1699 99.8181 70.0969C99.8386 69.2579 99.8524 68.0681 99.9347 67.2359L100.538 67.6692C99.9347 67.8342 99.0908 68.0749 98.4871 68.2194C97.7941 68.3707 97.108 68.5495 96.4014 68.6733L96.3808 68.6114L100.374 67.1946L100.442 67.174V67.2428L100.456 72.9581C100.25 72.7311 107.653 77.5454 107.612 77.4904L107.578 77.5455H107.571Z" fill="var(--fill-0, #4D4D4D)"/>
      <path id="f09_e31_Vector_67" d="M107.296 98.3641C108.703 96.7822 110.301 95.2485 111.9 93.8592L111.701 94.2925C111.68 93.2609 111.619 91.8028 111.667 90.7849L112.586 91.2801C111.591 91.906 110.226 92.8001 109.211 93.3434C108.058 94.0037 106.898 94.6433 105.691 95.1935L105.65 95.1385L112.222 90.7299L112.325 90.6611V90.7849C112.319 90.8262 112.325 94.2856 112.325 94.32C112.319 94.3338 107.365 98.3985 107.351 98.4191L107.31 98.3641H107.296Z" fill="var(--fill-0, #4D4D4D)"/>
      <path id="f09_e31_Vector_68" d="M112.257 90.8193C109.766 91.6171 107.139 91.7065 104.552 91.4108L104.751 91.342C104.319 91.5483 103.873 91.7409 103.399 91.8922L103.358 91.8372L104.511 91.005C104.511 91.005 104.525 90.9981 104.538 90.9981C106.775 90.895 109.986 90.8056 112.257 90.7505V90.8193Z" fill="var(--fill-0, #4D4D4D)"/>
      <path id="f09_e31_Vector_69" d="M114.788 62.731C114.665 62.1052 114.61 61.4724 114.521 60.8466L114.809 60.7915C116.449 60.4889 118.102 60.3032 119.762 60.1725L119.941 60.2963C120.112 60.4201 120.984 61.0254 121.135 61.1354C121.19 61.8369 121.19 62.5453 121.203 63.2468C121.224 63.8865 121.203 64.533 121.203 65.1726C121.011 65.6678 120.757 66.1492 120.545 66.6306C119.193 66.5275 117.8 66.4243 116.462 66.1767V66.1079L120.263 66.0942L120.215 66.1286C120.215 66.1286 120.641 64.9731 120.613 65.0694L120.476 61.4724L120.503 61.5274C120.503 61.5274 119.419 60.764 119.598 60.8466L114.83 61.1079L114.871 61.0666V62.731H114.795H114.788Z" fill="var(--fill-0, #4D4D4D)"/>
      <path id="f09_e31_Vector_70" d="M115.152 58.3912C117.176 57.9786 119.248 57.9992 121.299 58.0748C121.265 59.134 121.272 60.4477 121.142 61.4931C121.045 62.3321 120.908 63.5013 120.682 64.3129H120.613V58.6732L120.668 58.742L115.152 58.46V58.3912Z" fill="var(--fill-0, #4D4D4D)"/>
      <path id="f09_e31_Vector_71" d="M114.191 62.0226C114.047 60.3169 113.993 58.6044 113.883 56.8987H114.24C116.092 56.8987 118.658 56.8575 120.483 56.8713L120.27 56.9056L125.004 54.9524L125.834 54.6085C125.793 55.9565 125.8 57.3389 125.745 58.687C125.745 58.9002 125.608 62.1877 125.608 62.2633C125.368 62.339 124.476 62.6278 124.215 62.7104L123.474 62.9511V62.1808C123.474 60.6884 123.488 58.6044 123.543 57.1395L124.208 57.559L121.985 58.5288L122.205 58.1918C122.129 59.7255 121.937 61.9263 121.814 63.4738V63.5495L121.759 63.577L120.702 64.079L120.668 64.0171L121.677 63.4325L121.656 63.46L121.78 58.1711V58.1436L121.807 58.1299L123.989 57.0776L124.057 57.0432V57.1257L124.099 62.167L124.023 62.112L125.032 61.775L124.99 61.8301L125.162 55.4888L125.251 55.5508C125.251 55.5508 120.497 57.449 120.476 57.449L114.24 57.2564L114.281 57.2151V62.0157H114.205L114.191 62.0226Z" fill="var(--fill-0, #4D4D4D)"/>
      <path id="f09_e31_Vector_72" d="M115.118 57.1051C115.063 56.2798 115.056 55.4613 115.09 54.6429L115.461 54.6085C116.888 54.4641 118.308 54.4366 119.735 54.4503L119.488 54.4985C120.895 53.907 122.39 53.3774 123.858 52.9579L123.996 53.2123C124.4 53.9482 124.757 54.7048 125.066 55.482L125.011 55.5232L123.618 53.4668L123.673 53.4875C123.673 53.4875 119.742 55.1381 119.728 55.145C119.714 55.145 115.461 55.0418 115.44 55.0418L115.488 55.0006L115.173 57.1257H115.104L115.118 57.1051Z" fill="var(--fill-0, #4D4D4D)"/>
      <path id="f09_e31_Vector_73" d="M120.229 57.4077C119.323 56.9607 119.083 55.8809 119.687 55.0762L119.755 55.0624C119.92 55.6333 120.194 56.8025 120.297 57.394L120.229 57.4077Z" fill="var(--fill-0, #4D4D4D)"/>
      <path id="f09_e31_Vector_74" d="M123.138 48.9276C123.056 53.061 116.963 53.2192 116.799 48.9276C116.963 44.6359 123.056 44.7941 123.138 48.9276ZM123.069 48.9276C122.946 45.2343 117.594 45.2274 117.485 48.9276C117.594 52.6277 122.946 52.6209 123.069 48.9276Z" fill="var(--fill-0, #4D4D4D)"/>
      <path id="f09_e31_Vector_75" d="M121.072 48.9276C121.072 50.4132 118.919 50.4544 118.864 48.9276C118.919 47.4076 121.065 47.442 121.072 48.9276ZM121.003 48.9276C120.976 47.9716 119.556 47.9716 119.55 48.9276C119.55 49.8836 120.976 49.8836 121.003 48.9276Z" fill="var(--fill-0, #4D4D4D)"/>
      <path id="f09_e31_Vector_76" d="M115.44 54.9524C116.648 53.9276 118.054 53.4049 119.55 53.0679L119.172 53.5906C119.255 52.8616 119.392 52.1601 119.687 51.4723H119.756L119.776 53.5906C118.452 54.1752 116.874 54.526 115.461 55.0212L115.44 54.9524Z" fill="var(--fill-0, #4D4D4D)"/>
      <path id="f09_e31_Vector_77" d="M121.224 51.6236C121.615 52.2426 121.759 52.896 121.793 53.5906L121.148 52.9854C121.354 52.951 121.56 52.951 121.766 52.951C122.431 52.9647 123.027 53.0542 123.658 53.398V53.4668C122.835 53.5287 122.012 53.6044 121.189 53.6525C121.107 53.6525 121.121 53.68 121.121 53.5906L121.148 51.6236H121.217H121.224Z" fill="var(--fill-0, #4D4D4D)"/>
      <path id="f09_e31_Vector_78" d="M114.809 61.0391C115.982 59.9249 117.478 59.3334 119.035 59.0102C119.55 58.9139 120.085 58.852 120.654 58.9002L120.675 58.962C119.227 59.526 116.298 60.5989 114.83 61.101L114.809 61.0391Z" fill="var(--fill-0, #4D4D4D)"/>
      <path id="f09_e31_Vector_79" d="M120.243 66.1217C121.773 64.4986 123.605 63.2193 125.505 62.0707L125.231 62.5728C125.272 61.5687 125.382 60.5095 125.526 59.5123L125.56 59.6567C125.43 59.2509 125.279 58.8589 125.183 58.4325L125.244 58.3981L125.862 59.4847C125.862 59.4847 125.875 62.5522 125.889 62.566C124.105 63.8246 122.129 64.9594 120.284 66.1698L120.25 66.1148L120.243 66.1217Z" fill="var(--fill-0, #4D4D4D)"/>
      <path id="f09_e31_Vector_80" d="M121.786 58.5081C122.287 57.669 123.33 57.559 124.002 58.2605V58.3293C123.46 58.4256 122.349 58.5425 121.793 58.5769V58.5081H121.786Z" fill="var(--fill-0, #4D4D4D)"/>
      <path id="f09_e31_Vector_81" d="M92.7034 56.0253C93.6159 56.6856 94.3088 57.5246 94.9812 58.4049L94.9195 58.6801C94.7617 59.5329 94.5627 60.3857 94.2677 61.2042C93.4238 61.5343 92.5731 61.8094 91.6537 61.9057L91.6262 61.8438L93.8148 60.7365C93.8629 60.2138 94.1442 59.2165 94.2882 58.5356C94.3706 58.7557 92.6348 56.0184 92.6485 56.0666L92.7034 56.0253Z" fill="var(--fill-0, #4D4D4D)"/>
      <path id="f09_e31_Vector_82" d="M91.8801 62.2565C94.302 61.3486 96.8954 60.6883 99.4202 60.1244C100.031 61.2248 100.689 62.5247 101.231 63.6595C99.8455 63.9965 98.1166 64.4779 96.717 64.7324C95.4272 65.0006 94.1373 65.2413 92.8269 65.3858L92.8063 65.317L100.36 63.2056L100.319 63.295L99.0634 60.8259C99.427 60.874 91.8115 62.3115 91.8938 62.3321L91.8801 62.2633V62.2565Z" fill="var(--fill-0, #4D4D4D)"/>
      <path id="f09_e31_Vector_83" d="M95.2968 51.2041C96.2024 51.6993 97.0601 52.2701 97.8834 52.8891C98.0412 54.3884 98.0686 55.8946 98.0274 57.4008L98.0205 57.7653L97.7187 57.9304C97.1492 58.2193 96.5798 58.4944 95.9966 58.7351L96.2505 58.3087C96.1613 59.2165 96.0241 60.4958 95.7976 61.3761H95.7291L95.7084 58.3087C95.7084 58.2743 95.7085 58.2812 95.7359 58.2605L97.4031 57.3458C97.2865 56.2454 97.4168 54.471 97.3825 53.1436C97.4991 53.3018 95.2351 51.2247 95.2557 51.2591L95.3037 51.211L95.2968 51.2041Z" fill="var(--fill-0, #4D4D4D)"/>
      <path id="f09_e31_Vector_84" d="M98.0685 63.9071C98.6926 64.8562 98.7613 65.9566 98.5212 67.0227C98.4321 67.3665 98.3086 67.7173 98.0685 68.0612H98C97.9657 67.0227 97.9657 64.9387 98 63.9071H98.0685Z" fill="var(--fill-0, #4D4D4D)"/>
      <path id="f09_e31_Vector_85" d="M95.0223 64.7462C95.6327 65.5646 95.7219 66.555 95.475 67.511C95.3859 67.8205 95.2624 68.1231 95.0223 68.4326H94.9538C94.9195 67.511 94.9195 65.6678 94.9538 64.7462H95.0223Z" fill="var(--fill-0, #4D4D4D)"/>
      <path id="f09_e31_Vector_86" d="M99.3645 51.9469C98.6238 52.0432 98.0134 52.1463 97.4305 52.2357L97.746 51.9193C97.9654 53.9276 98.0409 56.0253 98.0477 58.0473L97.4305 57.4283C98.082 57.4421 98.7335 57.4421 99.3919 57.4558L98.8021 58.0473C98.8707 56.0941 99.1451 53.9001 99.3645 51.9469ZM99.4125 51.8987L99.4468 58.0473V58.1092H99.3851H97.4236C97.3482 58.1092 97.3551 58.1436 97.3551 58.0473L97.3825 51.9193V51.8781H97.4236L99.4057 51.8987H99.4125Z" fill="var(--fill-0, #4D4D4D)"/>
      <path id="f09_e31_Vector_87" d="M71.5309 59.808C70.9134 62.7173 69.9186 65.6403 68.9307 68.4463C67.4282 69.4298 65.8502 70.3033 64.2928 71.2043C62.948 71.9127 61.0407 72.9374 59.6411 73.5083L59.6068 73.4464C59.6068 73.4601 68.5053 67.903 68.3681 68.0336C68.4092 68.0543 71.428 59.6086 71.5378 59.808H71.5309Z" fill="var(--fill-0, #4D4D4D)"/>
      <path id="f09_e31_Vector_88" d="M82.8375 53.2123C83.6334 53.9207 84.2509 54.7323 84.8135 55.5714L84.1342 55.31C84.985 54.9593 85.8563 54.6773 86.7482 54.4572L86.5012 54.6291C86.8168 54.299 87.153 53.9826 87.5097 53.68C87.8597 53.3774 88.2302 53.0886 88.6487 52.841L88.7036 52.8822L86.9746 55.0143C86.0964 55.3444 85.1908 55.6264 84.2989 55.9221L84.2783 55.8809L82.7895 53.2399L82.8513 53.2055L82.8375 53.2123Z" fill="var(--fill-0, #4D4D4D)"/>
      <path id="f09_e31_Vector_89" d="M59.6274 160.848C60.5605 157.842 62.0561 152.883 62.9137 150.345C62.9823 145.73 63.0715 137.938 63.2636 134.045C62.3717 130.634 60.3684 123.99 59.8881 121.473L54.3926 114.527C52.547 112.223 50.7701 109.864 48.9588 107.532C47.6484 106.17 45.9538 104.437 44.5542 102.924C44.5404 102.903 40.8219 96.0807 40.8082 96.0601L40.8699 96.0257C40.8699 96.0257 44.8354 102.773 44.808 102.731L49.3156 107.236C49.3293 107.264 60.4095 121.047 60.4164 121.081C60.4164 121.095 63.8811 133.88 63.8743 133.901C63.8743 133.915 63.3254 150.359 63.3185 150.373C63.2568 150.352 59.7715 161.047 59.6274 160.854V160.848Z" fill="var(--fill-0, #4D4D4D)"/>
      <path id="f09_e31_Vector_90" d="M32.4791 93.8867C29.0419 96.8304 25.3096 99.7258 21.6665 102.422L21.8311 102.236C20.3492 105.022 17.9616 109.073 16.3562 111.831C14.6273 114.052 12.1711 117.697 10.3187 119.609L15.8759 111.5C15.8622 111.521 21.2754 101.92 21.2685 101.92C21.3028 101.954 32.4654 93.6598 32.4723 93.8798L32.4791 93.8867Z" fill="var(--fill-0, #4D4D4D)"/>
      <path id="f09_e31_Vector_91" d="M12.3975 155.669C12.3083 144.08 12.3701 130.902 12.816 119.362L15.677 113.777L15.7319 113.674C18.1057 111.679 22.5378 107.566 24.3765 106.232L26.963 100.276L27.0042 100.18C29.5153 98.4604 33.0966 96.177 35.6557 94.4645C35.889 94.5195 27.2649 100.407 27.306 100.448C27.3609 100.352 24.843 106.473 24.8362 106.452C24.8362 106.452 16.1778 114.135 16.2464 114.066L13.4266 119.671C13.3855 119.527 12.5827 155.841 12.3975 155.669Z" fill="var(--fill-0, #4D4D4D)"/>
      <path id="f09_e31_Vector_92" d="M51.8884 156.212C48.8284 156.858 44.5404 157.759 41.5148 158.316L41.7412 158.193L38.5921 161.858L38.7156 161.439C39.0655 163.165 39.3468 164.898 39.6692 166.625L40.6023 171.81L39.9162 171.329C47.3877 169.995 56.6978 168.516 64.2516 167.409L72.4022 166.322C72.4983 166.446 39.9025 172.058 39.9574 171.927C39.978 171.879 38.1324 161.528 38.1873 161.494C38.201 161.48 41.4256 157.897 41.4325 157.89C41.4668 157.959 51.9776 156.006 51.8952 156.219L51.8884 156.212Z" fill="var(--fill-0, #4D4D4D)"/>
      <path id="f09_e31_Vector_93" d="M12.5484 151.123L24.0266 149.754L24.1432 149.74L24.253 149.816L29.1104 153.255L28.9252 153.179L33.4876 153.764L33.8307 153.805C34.6814 158.688 35.4773 163.949 36.2388 168.674L38.057 176.219L37.4121 175.744L52.7597 174.733C62.063 173.035 72.5875 171.308 82.1515 169.795C82.3298 169.967 52.7803 175.27 52.8009 175.332L37.4601 176.425H37.4052L37.3915 176.37L35.6145 168.812C35.6763 168.826 33.2544 154.052 33.4122 154.279C33.3985 154.279 28.8498 153.626 28.836 153.612L24.0266 150.098C24.1775 150.063 12.3838 151.288 12.5416 151.109L12.5484 151.123Z" fill="var(--fill-0, #4D4D4D)"/>
      <path id="f09_e31_Vector_94" d="M22.476 181.357C23.8688 179.692 25.632 178.021 27.2032 176.535C28.7194 174.967 30.4689 173.337 32.1086 171.921C33.124 171.068 34.5648 169.864 35.6488 169.128L35.6969 169.176C33.4122 171.343 28.2803 176.535 25.9339 178.482L22.5241 181.412L22.476 181.357Z" fill="var(--fill-0, #4D4D4D)"/>
      <path id="f09_e31_Vector_95" d="M22.9906 182.56C24.8019 180.552 27.5188 178.275 29.3986 176.742C30.8943 175.284 32.7398 173.53 34.3521 172.196C34.949 171.735 35.5185 171.247 36.136 170.813L36.1839 170.861L29.8788 177.23C29.8514 177.182 22.9906 182.794 22.9975 182.56H22.9906Z" fill="var(--fill-0, #4D4D4D)"/>
      <path id="f09_e31_Vector_96" d="M23.3542 221.061L27.6971 218.578C28.9458 217.65 30.4758 216.618 31.8273 215.676C34.702 213.64 41.8373 208.888 44.8423 206.886C45.3295 207.368 46.1116 208.138 46.5987 208.62L46.0086 209.046C40.8013 212.822 33.1858 218.386 27.903 221.907L23.7521 223.613L23.7247 223.551L27.7932 221.666C27.7726 221.763 45.7823 208.186 45.597 208.599L44.7257 207.719C45.1373 207.629 27.7314 218.847 27.8343 218.84L23.3954 221.13L23.3611 221.068L23.3542 221.061Z" fill="var(--fill-0, #4D4D4D)"/>
      <path id="f09_e31_Vector_97" d="M55.8333 244.487C56.7733 250.436 59.1883 265.69 60.1145 271.44L61.473 280.36L61.3426 280.133L69.0816 286.399C67.5516 286.289 103.852 282.706 103.502 282.671L103.269 282.754L109.801 278.414L109.567 278.751L111.42 270.738C111.049 267.637 110.727 262.485 110.404 258.689C109.807 250.903 108.195 230.03 107.578 221.983L108.106 222.409L96.7033 224.005L97.0669 223.599L96.5729 235.181V235.367L96.4151 235.477L90.7481 239.597L90.6726 239.652L90.5903 239.665L81.9594 240.903C76.4021 241.653 61.5553 243.702 55.8265 244.493L55.8333 244.487ZM55.7784 244.445C55.7784 244.445 90.6177 239.232 90.5217 239.266L96.175 235.126C96.1201 235.257 96.6209 223.544 96.6003 223.53C96.6415 223.523 107.996 221.893 108.037 221.887L108.092 221.88V221.942C108.092 221.942 112.058 270.883 112.051 270.89C112.01 270.917 110.205 278.93 110.137 278.93L103.585 283.242C103.571 283.27 68.8552 286.736 68.8346 286.75C68.7934 286.77 61.1231 280.45 61.0819 280.443C61.0407 280.429 55.7853 244.473 55.7716 244.445H55.7784Z" fill="var(--fill-0, #4D4D4D)"/>
      <path id="f09_e31_Vector_98" d="M33.1034 295.381C41.2678 298.999 52.9792 304.48 61.0613 307.96C59.7029 307.898 79.7159 306.516 79.3797 306.489C81.3007 305.457 85.4652 303.676 88.1547 302.417C96.1681 298.779 107.132 293.785 115.186 290.243C117.176 288.166 120.538 284.968 123.001 282.554L130.987 274.831C131.234 274.865 115.344 290.615 115.399 290.656C115.365 290.677 79.4689 307.142 79.4346 307.149C79.4072 307.149 60.8555 308.497 60.8349 308.483C52.8969 304.879 40.8562 299.288 33.1103 295.381H33.1034Z" fill="var(--fill-0, #4D4D4D)"/>
      <path id="f09_e31_Vector_99" d="M84.69 170.738C88.141 165.201 93.266 156.79 96.765 151.391C98.8782 149.073 103.118 144.437 105.252 142.147L105.348 142.044L105.485 141.996L110.644 140.263L110.864 140.187C114.411 141.831 119.275 144.052 122.747 145.717L134.39 151.212L134.705 151.356C134.705 154.018 134.671 156.68 134.637 159.348L134.17 158.88L136.057 158.908L135.652 159.162L138.143 153.977L138.232 153.791C139.748 153.585 141.264 153.351 142.787 153.158L147.158 152.587L147.027 152.67L151.254 147.003L151.309 147.044C151.309 147.044 147.219 152.814 147.206 152.821C147.206 152.801 138.362 154.238 138.52 154.155L136.098 159.376L136.084 159.403H136.05H134.163C134.095 159.403 134.115 159.403 134.115 159.355C134.115 159.362 134.074 151.514 134.143 151.762C134.143 151.762 110.665 140.84 110.857 140.889L105.691 142.594C105.773 142.484 97.1493 151.776 97.1493 151.748C97.1493 151.68 84.7586 170.978 84.7037 170.751L84.69 170.738Z" fill="var(--fill-0, #4D4D4D)"/>
      <path id="f09_e31_Vector_100" d="M148.434 140.834L147.11 144.355L147.089 144.41C145.642 145.242 144.214 146.109 142.76 146.913L142.602 146.858L135.24 144.135L134.918 144.018V143.653C134.884 142.333 134.891 141.012 134.877 139.699L135.09 140.132L127.995 134.609C127.152 134.238 122.191 131.728 120.922 131.115C119.714 130.462 118.342 129.664 117.128 128.997L118.768 128.791C120.62 128.529 123.31 128.206 125.196 128.014C127.714 128.351 131.22 128.763 133.69 129.155L138.074 130.682L138.053 130.751L133.614 129.396C133.663 129.403 125.087 128.495 125.155 128.502L118.85 129.382L118.871 129.279C119.653 129.706 120.421 130.146 121.21 130.558L123.611 131.728L128.407 134.066C128.441 134.114 135.501 139.637 135.494 139.706V143.66L135.46 143.612C135.419 143.598 142.897 146.535 142.719 146.501C142.698 146.514 147.021 144.204 146.918 144.279L148.379 140.82L148.441 140.847L148.434 140.834Z" fill="var(--fill-0, #4D4D4D)"/>
      <path id="f09_e31_Vector_101" d="M27.8138 558.974C30.0778 560.005 34.208 561.773 35.9438 562.66C41.7687 563.018 50.5368 563.747 56.4234 564.249L56.1695 564.276C61.1162 562.612 68.4092 560.157 73.3284 558.623L73.1501 558.747C74.1655 557.529 75.7092 555.803 76.7452 554.627L80.3883 550.542L80.4431 550.583L73.4931 559.029C73.4931 559.029 56.3891 564.909 56.3891 564.923C56.341 564.943 35.9301 563.052 35.8889 563.052L27.7863 559.029L27.8138 558.967V558.974Z" fill="var(--fill-0, #4D4D4D)"/>
      <path id="f09_e31_Vector_102" d="M31.299 467.013L37.9335 462.714L37.9883 462.68H38.0775L45.2471 461.978L45.3569 461.965L45.4804 462.02C49.0069 463.553 54.0838 465.912 57.6446 467.515C60.9653 469.042 66.7009 471.745 69.6168 473.148C73.7607 474.117 78.1036 475.135 82.2269 476.194L82.3093 476.215L82.3504 476.27L85.6711 480.459L85.6162 480.5L82.1378 476.449C82.2544 476.497 69.4589 473.705 69.4795 473.718C69.4727 473.718 45.1717 462.48 45.2677 462.508C45.2883 462.508 38.0158 463.051 38.105 463.031L31.3128 467.068L31.2785 467.006L31.299 467.013Z" fill="var(--fill-0, #4D4D4D)"/>
      <path id="f09_e31_Vector_103" d="M31.0178 474.42C33.4877 472.556 36.774 469.874 39.2301 468.086L39.3262 468.017H39.4566L46.0086 467.872H46.1047C46.1733 467.886 58.5777 472.811 58.6669 472.831C62.1865 474.296 67.7986 476.538 70.9752 477.914L75.7984 479.138C77.4312 479.557 79.0641 479.956 80.6901 480.41L80.7313 480.452L84.9232 484.633L84.8752 484.681C84.8752 484.681 80.4774 480.624 80.546 480.679L70.8517 478.45L45.9881 468.443C46.0704 468.443 39.4497 468.443 39.4566 468.443C39.5595 468.34 30.9697 474.661 31.0178 474.42Z" fill="var(--fill-0, #4D4D4D)"/>
      <path id="f09_e31_Vector_104" d="M100.36 373.325L94.3431 371.524C94.549 371.524 85.9935 371.668 86.0416 371.661C83.9078 373.188 80.2716 375.21 77.6233 376.916L77.8017 376.647C76.3952 385.423 73.4794 403.03 71.9906 411.785L71.922 411.4C72.0935 411.716 76.2923 419.103 76.3129 419.144C76.1963 419.144 69.2394 420.492 68.8346 420.561L69.3149 420.1L65.6306 436.414C64.725 440.465 62.852 448.67 61.912 452.721L61.8503 452.363L70.5224 465.933L70.3371 465.795L87.5921 470.761C87.647 470.967 70.248 466.098 70.2205 466.126C70.2068 466.119 61.4181 452.632 61.4112 452.618C61.4112 452.618 68.67 419.949 68.67 419.942C68.6768 419.887 68.67 419.901 68.7249 419.894L75.3661 418.635L75.3181 418.732L71.3731 411.717C71.3594 411.648 77.3763 376.592 77.4175 376.544C77.4381 376.544 86.0347 371.345 86.0553 371.352C86.069 371.352 94.3981 371.352 94.4118 371.352L100.394 373.257L100.374 373.325H100.36Z" fill="var(--fill-0, #4D4D4D)"/>
      <path id="f09_e31_Vector_105" d="M92.4838 304.803C96.1338 306.207 99.8112 307.981 103.317 309.728C104.387 311.626 105.684 314.37 106.686 316.337L108.202 319.618C108.675 320.725 109.169 321.826 109.602 322.954L109.54 322.988C109.54 322.988 102.748 310.113 102.851 310.244C102.871 310.202 92.2712 304.893 92.477 304.803H92.4838Z" fill="var(--fill-0, #4D4D4D)"/>
      <path id="f09_e31_Vector_106" d="M98.6174 302.004C101.451 303.579 104.209 305.567 106.754 307.555C106.823 307.61 106.871 307.644 106.912 307.733C107.873 309.473 108.916 311.461 109.725 313.263C109.993 313.903 110.288 314.528 110.521 315.189L110.459 315.223L106.336 308.07C106.466 308.125 98.3773 302.046 98.6243 302.011L98.6174 302.004Z" fill="var(--fill-0, #4D4D4D)"/>
      <path id="f09_e31_Vector_107" d="M105.993 122.539C105.753 121.157 105.615 119.767 105.533 118.371C106.329 117.67 107.152 116.996 107.989 116.349C109.499 115.661 111.207 114.946 112.771 114.382L114.384 113.832L114.445 113.811C115.33 113.694 116.222 113.626 117.114 113.591L117.128 113.66L114.541 114.217C112.531 115.091 110.329 116.074 108.332 116.92C108.367 116.872 105.931 118.756 106.075 118.577L106.061 122.539H105.993Z" fill="var(--fill-0, #4D4D4D)"/>
      <path id="f09_e31_Vector_108" d="M59.8606 568.114C64.4094 568.981 69.3012 570.308 73.7744 571.56L73.9185 571.601C74.7486 572.392 75.5239 573.231 76.3266 574.05L76.4638 574.194L76.4913 574.38C77.0607 578.451 77.5684 582.695 77.8086 586.787L77.7399 586.794C77.7399 586.794 75.8189 574.352 75.8738 574.503L73.5617 572.193C73.7264 572.206 59.6548 568.238 59.8675 568.114H59.8606Z" fill="var(--fill-0, #4D4D4D)"/>
      <path id="f09_e31_Vector_109" d="M47.1133 581.14C47.621 578.039 48.705 575.157 50.0566 572.358C50.4751 571.539 51.0651 570.391 51.5934 569.648L51.6551 569.675C50.5711 572.55 48.3276 578.321 47.1819 581.168L47.1201 581.14H47.1133Z" fill="var(--fill-0, #4D4D4D)"/>
      <path id="f09_e31_Vector_110" d="M94.9606 108.488C93.3964 107.477 92.2369 106.108 91.2146 104.595L91.3861 104.74C90.6658 104.272 89.9865 103.756 89.3965 103.11L89.4308 103.048L91.6675 104.203C92.8201 105.586 93.8972 107.037 95.0087 108.447L94.9538 108.488H94.9606Z" fill="var(--fill-0, #4D4D4D)"/>
      </g>
    </svg>
  </g>
</svg>